Besley-Condensed Black Italic.ufo
<glyph name="exclam" format="2">
	<advance width="756" height="0"/>
	<unicode hex="0021"/>
	<outline>
		<contour>
			<point x="10" y="200" type="curve" smooth="yes"/>
			<point x="10" y="332"/>
			<point x="118" y="440"/>
			<point x="250" y="440" type="curve" smooth="yes"/>
			<point x="382" y="440"/>
			<point x="490" y="332"/>
			<point x="490" y="200" type="curve" smooth="yes"/>
			<point x="490" y="68"/>
			<point x="382" y="-40"/>
			<point x="250" y="-40" type="curve" smooth="yes"/>
			<point x="118" y="-40"/>
			<point x="10" y="68"/>
		</contour>
		<contour>
			<point x="760" y="1196" type="curve" smooth="yes"/>
			<point x="639" y="873"/>
			<point x="482" y="825"/>
			<point x="403" y="562" type="curve" smooth="yes"/>
			<point x="394" y="532"/>
			<point x="383" y="530"/>
			<point x="343" y="530" type="curve" smooth="yes"/>
			<point x="297" y="530" type="line" smooth="yes"/>
			<point x="249" y="530"/>
			<point x="233" y="532"/>
			<point x="241" y="570" type="curve" smooth="yes"/>
			<point x="293" y="833"/>
			<point x="181" y="953"/>
			<point x="250" y="1298" type="curve" smooth="yes"/>
			<point x="278" y="1438"/>
			<point x="386" y="1518"/>
			<point x="526" y="1518" type="curve" smooth="yes"/>
			<point x="690" y="1518"/>
			<point x="782" y="1416"/>
			<point x="782" y="1314" type="curve" smooth="yes"/>
			<point x="782" y="1278"/>
			<point x="772" y="1227"/>
		</contour>
	</outline>
</glyph>
<glyph name="numbersign" format="2">
	<advance width="1320" height="0"/>
	<unicode hex="0023"/>
	<outline>
		<contour>
			<point x="611" y="1610" type="curve" smooth="yes"/>
			<point x="731" y="1610" type="line" smooth="yes"/>
			<point x="778" y="1610"/>
			<point x="783" y="1605"/>
			<point x="772" y="1566" type="curve" smooth="yes"/>
			<point x="657" y="1156" type="line" smooth="yes"/>
			<point x="646" y="1117"/>
			<point x="646" y="1110"/>
			<point x="699" y="1110" type="curve" smooth="yes"/>
			<point x="809" y="1110" type="line" smooth="yes"/>
			<point x="855" y="1110"/>
			<point x="850" y="1122"/>
			<point x="859" y="1156" type="curve" smooth="yes"/>
			<point x="976" y="1574" type="line" smooth="yes"/>
			<point x="985" y="1606"/>
			<point x="993" y="1610"/>
			<point x="1035" y="1610" type="curve" smooth="yes"/>
			<point x="1147" y="1610" type="line" smooth="yes"/>
			<point x="1199" y="1610"/>
			<point x="1196" y="1601"/>
			<point x="1184" y="1559" type="curve" smooth="yes"/>
			<point x="1071" y="1148" type="line" smooth="yes"/>
			<point x="1063" y="1118"/>
			<point x="1062" y="1110"/>
			<point x="1105" y="1110" type="curve" smooth="yes"/>
			<point x="1335" y="1110" type="line" smooth="yes"/>
			<point x="1370" y="1110"/>
			<point x="1380" y="1107"/>
			<point x="1380" y="1070" type="curve" smooth="yes"/>
			<point x="1380" y="944" type="line" smooth="yes"/>
			<point x="1380" y="906"/>
			<point x="1376" y="900"/>
			<point x="1339" y="900" type="curve" smooth="yes"/>
			<point x="1049" y="900" type="line" smooth="yes"/>
			<point x="995" y="900"/>
			<point x="999" y="890"/>
			<point x="988" y="850" type="curve" smooth="yes"/>
			<point x="942" y="684" type="line" smooth="yes"/>
			<point x="934" y="654"/>
			<point x="931" y="630"/>
			<point x="977" y="630" type="curve" smooth="yes"/>
			<point x="1191" y="630" type="line" smooth="yes"/>
			<point x="1236" y="630"/>
			<point x="1240" y="622"/>
			<point x="1240" y="578" type="curve" smooth="yes"/>
			<point x="1240" y="466" type="line" smooth="yes"/>
			<point x="1240" y="430"/>
			<point x="1239" y="420"/>
			<point x="1203" y="420" type="curve" smooth="yes"/>
			<point x="921" y="420" type="line" smooth="yes"/>
			<point x="866" y="420"/>
			<point x="867" y="416"/>
			<point x="855" y="374" type="curve" smooth="yes"/>
			<point x="730" y="-74" type="line" smooth="yes"/>
			<point x="720" y="-108"/>
			<point x="709" y="-110"/>
			<point x="665" y="-110" type="curve" smooth="yes"/>
			<point x="557" y="-110" type="line" smooth="yes"/>
			<point x="514" y="-110"/>
			<point x="506" y="-110"/>
			<point x="515" y="-76" type="curve" smooth="yes"/>
			<point x="643" y="380" type="line" smooth="yes"/>
			<point x="653" y="417"/>
			<point x="649" y="420"/>
			<point x="599" y="420" type="curve" smooth="yes"/>
			<point x="489" y="420" type="line" smooth="yes"/>
			<point x="450" y="420"/>
			<point x="450" y="416"/>
			<point x="442" y="386" type="curve" smooth="yes"/>
			<point x="316" y="-68" type="line" smooth="yes"/>
			<point x="307" y="-101"/>
			<point x="300" y="-110"/>
			<point x="255" y="-110" type="curve" smooth="yes"/>
			<point x="133" y="-110" type="line" smooth="yes"/>
			<point x="84" y="-110"/>
			<point x="97" y="-84"/>
			<point x="106" y="-52" type="curve" smooth="yes"/>
			<point x="227" y="380" type="line" smooth="yes"/>
			<point x="236" y="414"/>
			<point x="225" y="420"/>
			<point x="179" y="420" type="curve" smooth="yes"/>
			<point x="-13" y="420" type="line" smooth="yes"/>
			<point x="-46" y="420"/>
			<point x="-60" y="422"/>
			<point x="-60" y="458" type="curve" smooth="yes"/>
			<point x="-60" y="580" type="line" smooth="yes"/>
			<point x="-60" y="618"/>
			<point x="-58" y="630"/>
			<point x="-17" y="630" type="curve" smooth="yes"/>
			<point x="257" y="630" type="line" smooth="yes"/>
			<point x="301" y="630"/>
			<point x="299" y="637"/>
			<point x="308" y="670" type="curve" smooth="yes"/>
			<point x="360" y="858" type="line" smooth="yes"/>
			<point x="369" y="892"/>
			<point x="371" y="900"/>
			<point x="323" y="900" type="curve" smooth="yes"/>
			<point x="123" y="900" type="line" smooth="yes"/>
			<point x="84" y="900"/>
			<point x="80" y="912"/>
			<point x="80" y="948" type="curve" smooth="yes"/>
			<point x="80" y="1078" type="line" smooth="yes"/>
			<point x="80" y="1109"/>
			<point x="97" y="1110"/>
			<point x="125" y="1110" type="curve" smooth="yes"/>
			<point x="379" y="1110" type="line" smooth="yes"/>
			<point x="433" y="1110"/>
			<point x="432" y="1115"/>
			<point x="443" y="1156" type="curve" smooth="yes"/>
			<point x="564" y="1590" type="line" smooth="yes"/>
			<point x="571" y="1614"/>
			<point x="581" y="1610"/>
		</contour>
		<contour>
			<point x="747" y="900" type="curve" smooth="yes"/>
			<point x="615" y="900" type="line" smooth="yes"/>
			<point x="586" y="900"/>
			<point x="585" y="899"/>
			<point x="579" y="876" type="curve" smooth="yes"/>
			<point x="523" y="674" type="line" smooth="yes"/>
			<point x="513" y="638"/>
			<point x="511" y="630"/>
			<point x="561" y="630" type="curve" smooth="yes"/>
			<point x="665" y="630" type="line" smooth="yes"/>
			<point x="713" y="630"/>
			<point x="714" y="633"/>
			<point x="724" y="670" type="curve" smooth="yes"/>
			<point x="779" y="868" type="line" smooth="yes"/>
			<point x="787" y="898"/>
			<point x="778" y="900"/>
		</contour>
	</outline>
</glyph>
<glyph name="percent" format="2">
	<advance width="1960" height="0"/>
	<unicode hex="0025"/>
	<outline>
		<contour>
			<point x="179" y="1080" type="curve" smooth="yes"/>
			<point x="242" y="1366"/>
			<point x="383" y="1530"/>
			<point x="679" y="1530" type="curve" smooth="yes"/>
			<point x="975" y="1530"/>
			<point x="1042" y="1366"/>
			<point x="979" y="1080" type="curve" smooth="yes"/>
			<point x="916" y="794"/>
			<point x="736" y="630"/>
			<point x="480" y="630" type="curve" smooth="yes"/>
			<point x="184" y="630"/>
			<point x="116" y="794"/>
		</contour>
		<contour>
			<point x="549" y="1080" type="curve" smooth="yes"/>
			<point x="495" y="836"/>
			<point x="492" y="810"/>
			<point x="520" y="810" type="curve" smooth="yes"/>
			<point x="548" y="810"/>
			<point x="555" y="836"/>
			<point x="609" y="1080" type="curve" smooth="yes"/>
			<point x="663" y="1324"/>
			<point x="667" y="1350"/>
			<point x="639" y="1350" type="curve" smooth="yes"/>
			<point x="611" y="1350"/>
			<point x="603" y="1324"/>
		</contour>
		<contour>
			<point x="1534" y="1500" type="curve" smooth="yes"/>
			<point x="1606" y="1500" type="line" smooth="yes"/>
			<point x="1670" y="1500"/>
			<point x="1678" y="1490"/>
			<point x="1647" y="1450" type="curve" smooth="yes"/>
			<point x="559" y="24" type="line" smooth="yes"/>
			<point x="539" y="-2"/>
			<point x="509" y="0"/>
			<point x="467" y="0" type="curve" smooth="yes"/>
			<point x="417" y="0" type="line" smooth="yes"/>
			<point x="337" y="0"/>
			<point x="332" y="18"/>
			<point x="363" y="58" type="curve" smooth="yes"/>
			<point x="1440" y="1462" type="line" smooth="yes"/>
			<point x="1461" y="1490"/>
			<point x="1487" y="1500"/>
		</contour>
		<contour>
			<point x="1053" y="420" type="curve" smooth="yes"/>
			<point x="1116" y="706"/>
			<point x="1257" y="870"/>
			<point x="1553" y="870" type="curve" smooth="yes"/>
			<point x="1849" y="870"/>
			<point x="1916" y="706"/>
			<point x="1853" y="420" type="curve" smooth="yes"/>
			<point x="1790" y="134"/>
			<point x="1609" y="-30"/>
			<point x="1353" y="-30" type="curve" smooth="yes"/>
			<point x="1057" y="-30"/>
			<point x="990" y="134"/>
		</contour>
		<contour>
			<point x="1423" y="420" type="curve" smooth="yes"/>
			<point x="1369" y="176"/>
			<point x="1365" y="150"/>
			<point x="1393" y="150" type="curve" smooth="yes"/>
			<point x="1421" y="150"/>
			<point x="1429" y="176"/>
			<point x="1483" y="420" type="curve" smooth="yes"/>
			<point x="1537" y="664"/>
			<point x="1541" y="690"/>
			<point x="1513" y="690" type="curve" smooth="yes"/>
			<point x="1485" y="690"/>
			<point x="1477" y="664"/>
		</contour>
	</outline>
</glyph>
<glyph name="ampersand" format="2">
	<advance width="1840" height="0"/>
	<unicode hex="0026"/>
	<outline>
		<contour>
			<point x="1366" y="648" type="curve" smooth="yes"/>
			<point x="1276" y="648"/>
			<point x="1228" y="716"/>
			<point x="1228" y="812" type="curve" smooth="yes"/>
			<point x="1228" y="952"/>
			<point x="1380" y="1018"/>
			<point x="1518" y="1018" type="curve" smooth="yes"/>
			<point x="1694" y="1018"/>
			<point x="1780" y="912"/>
			<point x="1780" y="750" type="curve" smooth="yes"/>
			<point x="1780" y="592"/>
			<point x="1602" y="400"/>
			<point x="1351" y="246" type="curve" smooth="yes"/>
			<point x="1311" y="222"/>
			<point x="1283" y="203"/>
			<point x="1349" y="187" type="curve" smooth="yes"/>
			<point x="1365" y="183"/>
			<point x="1385" y="182"/>
			<point x="1408" y="182" type="curve" smooth="yes"/>
			<point x="1440" y="182"/>
			<point x="1480" y="202"/>
			<point x="1515" y="242" type="curve" smooth="yes"/>
			<point x="1542" y="273"/>
			<point x="1539" y="294"/>
			<point x="1577" y="266" type="curve" smooth="yes"/>
			<point x="1689" y="183" type="line" smooth="yes"/>
			<point x="1718" y="161"/>
			<point x="1722" y="160"/>
			<point x="1699" y="129" type="curve" smooth="yes"/>
			<point x="1605" y="1"/>
			<point x="1446" y="-70"/>
			<point x="1262" y="-70" type="curve" smooth="yes"/>
			<point x="1165" y="-70"/>
			<point x="1057" y="-49"/>
			<point x="972" y="24" type="curve" smooth="yes"/>
			<point x="933" y="58"/>
			<point x="921" y="47"/>
			<point x="864" y="31" type="curve" smooth="yes"/>
			<point x="729" y="-8"/>
			<point x="591" y="-30"/>
			<point x="460" y="-30" type="curve" smooth="yes"/>
			<point x="174" y="-30"/>
			<point x="2" y="114"/>
			<point x="2" y="320" type="curve" smooth="yes"/>
			<point x="2" y="607"/>
			<point x="207" y="733"/>
			<point x="438" y="827" type="curve" smooth="yes"/>
			<point x="492" y="849"/>
			<point x="502" y="845"/>
			<point x="474" y="896" type="curve" smooth="yes"/>
			<point x="430" y="977"/>
			<point x="398" y="1078"/>
			<point x="398" y="1166" type="curve" smooth="yes"/>
			<point x="398" y="1406"/>
			<point x="708" y="1540"/>
			<point x="1080" y="1540" type="curve" smooth="yes"/>
			<point x="1334" y="1540"/>
			<point x="1512" y="1458"/>
			<point x="1512" y="1310" type="curve" smooth="yes"/>
			<point x="1512" y="1077"/>
			<point x="1280" y="986"/>
			<point x="1034" y="894" type="curve" smooth="yes"/>
			<point x="968" y="869"/>
			<point x="961" y="872"/>
			<point x="993" y="810" type="curve" smooth="yes"/>
			<point x="1176" y="452" type="line" smooth="yes"/>
			<point x="1204" y="397"/>
			<point x="1204" y="391"/>
			<point x="1255" y="426" type="curve" smooth="yes"/>
			<point x="1390" y="520"/>
			<point x="1470" y="615"/>
			<point x="1470" y="642" type="curve" smooth="yes"/>
			<point x="1470" y="654"/>
			<point x="1468" y="660"/>
			<point x="1458" y="660" type="curve" smooth="yes"/>
			<point x="1440" y="660"/>
			<point x="1434" y="648"/>
		</contour>
		<contour>
			<point x="462" y="380" type="curve" smooth="yes"/>
			<point x="462" y="256"/>
			<point x="522" y="220"/>
			<point x="630" y="220" type="curve" smooth="yes"/>
			<point x="682" y="220"/>
			<point x="733" y="224"/>
			<point x="782" y="232" type="curve" smooth="yes"/>
			<point x="842" y="241"/>
			<point x="827" y="250"/>
			<point x="804" y="292" type="curve" smooth="yes"/>
			<point x="623" y="623" type="line" smooth="yes"/>
			<point x="591" y="681"/>
			<point x="585" y="671"/>
			<point x="545" y="622" type="curve" smooth="yes"/>
			<point x="493" y="558"/>
			<point x="462" y="480"/>
		</contour>
		<contour>
			<point x="1084" y="1310" type="curve" smooth="yes"/>
			<point x="1084" y="1344"/>
			<point x="1072" y="1380"/>
			<point x="1026" y="1380" type="curve" smooth="yes"/>
			<point x="952" y="1380"/>
			<point x="848" y="1326"/>
			<point x="848" y="1220" type="curve" smooth="yes"/>
			<point x="848" y="1175"/>
			<point x="858" y="1130"/>
			<point x="879" y="1067" type="curve" smooth="yes"/>
			<point x="895" y="1019"/>
			<point x="897" y="1015"/>
			<point x="937" y="1044" type="curve" smooth="yes"/>
			<point x="1026" y="1108"/>
			<point x="1084" y="1190"/>
		</contour>
	</outline>
</glyph>
<glyph name="quotesingle" format="2">
	<advance width="614" height="0"/>
	<unicode hex="0027"/>
	<outline>
		<contour>
			<point x="570" y="1232" type="curve" smooth="yes"/>
			<point x="502" y="1151"/>
			<point x="401" y="1075"/>
			<point x="374" y="966" type="curve" smooth="yes"/>
			<point x="367" y="939"/>
			<point x="371" y="936"/>
			<point x="336" y="936" type="curve" smooth="yes"/>
			<point x="266" y="936" type="line" smooth="yes"/>
			<point x="228" y="936"/>
			<point x="232" y="941"/>
			<point x="229" y="974" type="curve" smooth="yes"/>
			<point x="212" y="1163"/>
			<point x="180" y="1220"/>
			<point x="180" y="1344" type="curve" smooth="yes"/>
			<point x="180" y="1482"/>
			<point x="298" y="1556"/>
			<point x="430" y="1556" type="curve" smooth="yes"/>
			<point x="522" y="1556"/>
			<point x="634" y="1498"/>
			<point x="634" y="1374" type="curve" smooth="yes"/>
			<point x="634" y="1321"/>
			<point x="607" y="1276"/>
		</contour>
	</outline>
</glyph>
<glyph name="parenleft" format="2">
	<advance width="960" height="0"/>
	<unicode hex="0028"/>
	<outline>
		<contour>
			<point x="783" y="-214" type="curve" smooth="yes"/>
			<point x="739" y="-302" type="line" smooth="yes"/>
			<point x="718" y="-344"/>
			<point x="711" y="-338"/>
			<point x="665" y="-322" type="curve" smooth="yes"/>
			<point x="294" y="-190"/>
			<point x="100" y="83"/>
			<point x="100" y="470" type="curve" smooth="yes"/>
			<point x="100" y="1040"/>
			<point x="453" y="1438"/>
			<point x="993" y="1588" type="curve" smooth="yes"/>
			<point x="1035" y="1600"/>
			<point x="1039" y="1602"/>
			<point x="1057" y="1566" type="curve" smooth="yes"/>
			<point x="1109" y="1462" type="line" smooth="yes"/>
			<point x="1124" y="1432"/>
			<point x="1105" y="1437"/>
			<point x="1075" y="1427" type="curve" smooth="yes"/>
			<point x="755" y="1320"/>
			<point x="570" y="895"/>
			<point x="570" y="470" type="curve" smooth="yes"/>
			<point x="570" y="179"/>
			<point x="608" y="-69"/>
			<point x="777" y="-168" type="curve" smooth="yes"/>
			<point x="804" y="-184"/>
			<point x="797" y="-187"/>
		</contour>
	</outline>
</glyph>
<glyph name="period" format="2">
	<advance width="620" height="0"/>
	<unicode hex="002E"/>
	<outline>
		<contour>
			<point x="-30" y="200" type="curve" smooth="yes"/>
			<point x="-30" y="332"/>
			<point x="78" y="440"/>
			<point x="210" y="440" type="curve" smooth="yes"/>
			<point x="342" y="440"/>
			<point x="450" y="332"/>
			<point x="450" y="200" type="curve" smooth="yes"/>
			<point x="450" y="68"/>
			<point x="342" y="-40"/>
			<point x="210" y="-40" type="curve" smooth="yes"/>
			<point x="78" y="-40"/>
			<point x="-30" y="68"/>
		</contour>
	</outline>
</glyph>
<glyph name="zero" format="2">
	<advance width="1120" height="0"/>
	<unicode hex="0030"/>
	<outline>
		<contour>
			<point x="86" y="750" type="curve" smooth="yes"/>
			<point x="211" y="1316"/>
			<point x="421" y="1520"/>
			<point x="767" y="1520" type="curve" smooth="yes"/>
			<point x="1133" y="1520"/>
			<point x="1231" y="1316"/>
			<point x="1106" y="750" type="curve" smooth="yes"/>
			<point x="981" y="184"/>
			<point x="752" y="-20"/>
			<point x="426" y="-20" type="curve" smooth="yes"/>
			<point x="80" y="-20"/>
			<point x="-39" y="184"/>
		</contour>
		<contour>
			<point x="506" y="750" type="curve" smooth="yes"/>
			<point x="399" y="266"/>
			<point x="404" y="190"/>
			<point x="472" y="190" type="curve" smooth="yes"/>
			<point x="550" y="190"/>
			<point x="579" y="266"/>
			<point x="686" y="750" type="curve" smooth="yes"/>
			<point x="793" y="1234"/>
			<point x="798" y="1310"/>
			<point x="720" y="1310" type="curve" smooth="yes"/>
			<point x="652" y="1310"/>
			<point x="613" y="1234"/>
		</contour>
	</outline>
</glyph>
<glyph name="one" format="2">
	<advance width="920" height="2310"/>
	<unicode hex="0031"/>
	<outline>
		<contour>
			<point x="-46" y="65" type="curve" smooth="yes"/>
			<point x="-23" y="166" type="line" smooth="yes"/>
			<point x="-14" y="208"/>
			<point x="-3" y="210"/>
			<point x="40" y="210" type="curve" smooth="yes"/>
			<point x="132" y="210" type="line" smooth="yes"/>
			<point x="181" y="210"/>
			<point x="189" y="217"/>
			<point x="199" y="264" type="curve" smooth="yes"/>
			<point x="367" y="1023" type="line" smooth="yes"/>
			<point x="376" y="1063"/>
			<point x="368" y="1070"/>
			<point x="330" y="1070" type="curve" smooth="yes"/>
			<point x="256" y="1070" type="line" smooth="yes"/>
			<point x="223" y="1070"/>
			<point x="212" y="1073"/>
			<point x="220" y="1109" type="curve" smooth="yes"/>
			<point x="246" y="1229" type="line" smooth="yes"/>
			<point x="258" y="1283"/>
			<point x="290" y="1279"/>
			<point x="337" y="1281" type="curve" smooth="yes"/>
			<point x="422" y="1285"/>
			<point x="516" y="1310"/>
			<point x="648" y="1485" type="curve" smooth="yes"/>
			<point x="672" y="1517"/>
			<point x="680" y="1530"/>
			<point x="732" y="1530" type="curve" smooth="yes"/>
			<point x="818" y="1530" type="line" smooth="yes"/>
			<point x="861" y="1530"/>
			<point x="868" y="1525"/>
			<point x="859" y="1484" type="curve" smooth="yes"/>
			<point x="589" y="266" type="line" smooth="yes"/>
			<point x="577" y="212"/>
			<point x="587" y="210"/>
			<point x="642" y="210" type="curve" smooth="yes"/>
			<point x="714" y="210" type="line" smooth="yes"/>
			<point x="747" y="210"/>
			<point x="766" y="206"/>
			<point x="758" y="170" type="curve" smooth="yes"/>
			<point x="733" y="59" type="line" smooth="yes"/>
			<point x="722" y="10"/>
			<point x="718" y="0"/>
			<point x="669" y="0" type="curve" smooth="yes"/>
			<point x="5" y="0" type="line" smooth="yes"/>
			<point x="-53" y="0"/>
			<point x="-59" y="5"/>
		</contour>
	</outline>
</glyph>
<glyph name="two" format="2">
	<advance width="1094" height="2310"/>
	<unicode hex="0032"/>
	<outline>
		<contour>
			<point x="1037" y="510" type="curve" smooth="yes"/>
			<point x="944" y="141"/>
			<point x="839" y="-20"/>
			<point x="591" y="-20" type="curve" smooth="yes"/>
			<point x="407" y="-20"/>
			<point x="393" y="100"/>
			<point x="307" y="100" type="curve" smooth="yes"/>
			<point x="250" y="100"/>
			<point x="207" y="74"/>
			<point x="175" y="34" type="curve" smooth="yes"/>
			<point x="153" y="7"/>
			<point x="158" y="0"/>
			<point x="113" y="0" type="curve" smooth="yes"/>
			<point x="-29" y="0" type="line" smooth="yes"/>
			<point x="-68" y="0"/>
			<point x="-73" y="4"/>
			<point x="-65" y="42" type="curve" smooth="yes"/>
			<point x="-2" y="320"/>
			<point x="156" y="626"/>
			<point x="478" y="808" type="curve" smooth="yes"/>
			<point x="624" y="891"/>
			<point x="675" y="972"/>
			<point x="714" y="1150" type="curve" smooth="yes"/>
			<point x="745" y="1288"/>
			<point x="733" y="1336"/>
			<point x="665" y="1336" type="curve" smooth="yes"/>
			<point x="617" y="1336"/>
			<point x="565" y="1302"/>
			<point x="559" y="1274" type="curve" smooth="yes"/>
			<point x="551" y="1238"/>
			<point x="681" y="1228"/>
			<point x="643" y="1056" type="curve" smooth="yes"/>
			<point x="613" y="922"/>
			<point x="492" y="850"/>
			<point x="378" y="850" type="curve" smooth="yes"/>
			<point x="260" y="850"/>
			<point x="166" y="946"/>
			<point x="201" y="1102" type="curve" smooth="yes"/>
			<point x="262" y="1376"/>
			<point x="472" y="1520"/>
			<point x="766" y="1520" type="curve" smooth="yes"/>
			<point x="1038" y="1520"/>
			<point x="1183" y="1360"/>
			<point x="1134" y="1140" type="curve" smooth="yes"/>
			<point x="1081" y="900"/>
			<point x="801" y="768"/>
			<point x="617" y="670" type="curve" smooth="yes"/>
			<point x="429" y="571"/>
			<point x="372" y="516"/>
			<point x="322" y="441" type="curve" smooth="yes"/>
			<point x="279" y="375"/>
			<point x="227" y="301"/>
			<point x="249" y="301" type="curve" smooth="yes"/>
			<point x="272" y="301"/>
			<point x="273" y="356"/>
			<point x="348" y="414" type="curve" smooth="yes"/>
			<point x="405" y="458"/>
			<point x="453" y="469"/>
			<point x="489" y="469" type="curve" smooth="yes"/>
			<point x="599" y="469"/>
			<point x="609" y="381"/>
			<point x="701" y="381" type="curve" smooth="yes"/>
			<point x="778" y="381"/>
			<point x="810" y="431"/>
			<point x="841" y="510" type="curve" smooth="yes"/>
			<point x="856" y="552"/>
			<point x="852" y="554"/>
			<point x="900" y="554" type="curve" smooth="yes"/>
			<point x="1006" y="554" type="line" smooth="yes"/>
			<point x="1050" y="554"/>
			<point x="1046" y="552"/>
		</contour>
	</outline>
</glyph>
<glyph name="three" format="2">
	<advance width="960" height="2310"/>
	<unicode hex="0033"/>
	<outline>
		<contour>
			<point x="-3" y="348" type="curve" smooth="yes"/>
			<point x="27" y="484"/>
			<point x="141" y="590"/>
			<point x="289" y="590" type="curve" smooth="yes"/>
			<point x="423" y="590"/>
			<point x="477" y="518"/>
			<point x="456" y="424" type="curve" smooth="yes"/>
			<point x="422" y="272"/>
			<point x="285" y="262"/>
			<point x="275" y="216" type="curve" smooth="yes"/>
			<point x="267" y="182"/>
			<point x="300" y="164"/>
			<point x="328" y="164" type="curve" smooth="yes"/>
			<point x="406" y="164"/>
			<point x="445" y="212"/>
			<point x="491" y="420" type="curve" smooth="yes"/>
			<point x="521" y="556"/>
			<point x="495" y="655"/>
			<point x="425" y="670" type="curve" smooth="yes"/>
			<point x="389" y="678"/>
			<point x="371" y="663"/>
			<point x="381" y="707" type="curve" smooth="yes"/>
			<point x="410" y="838" type="line" smooth="yes"/>
			<point x="419" y="877"/>
			<point x="425" y="866"/>
			<point x="460" y="872" type="curve" smooth="yes"/>
			<point x="547" y="886"/>
			<point x="598" y="995"/>
			<point x="631" y="1142" type="curve" smooth="yes"/>
			<point x="664" y="1290"/>
			<point x="638" y="1346"/>
			<point x="570" y="1346" type="curve" smooth="yes"/>
			<point x="542" y="1346"/>
			<point x="503" y="1330"/>
			<point x="495" y="1296" type="curve" smooth="yes"/>
			<point x="485" y="1250"/>
			<point x="621" y="1260"/>
			<point x="590" y="1118" type="curve" smooth="yes"/>
			<point x="571" y="1034"/>
			<point x="473" y="952"/>
			<point x="349" y="952" type="curve" smooth="yes"/>
			<point x="231" y="952"/>
			<point x="128" y="1028"/>
			<point x="160" y="1174" type="curve" smooth="yes"/>
			<point x="203" y="1368"/>
			<point x="395" y="1520"/>
			<point x="699" y="1520" type="curve" smooth="yes"/>
			<point x="971" y="1520"/>
			<point x="1084" y="1372"/>
			<point x="1033" y="1142" type="curve" smooth="yes"/>
			<point x="1001" y="998"/>
			<point x="902" y="888"/>
			<point x="785" y="818" type="curve" smooth="yes"/>
			<point x="741" y="792"/>
			<point x="705" y="789"/>
			<point x="702" y="775" type="curve" smooth="yes"/>
			<point x="698" y="758"/>
			<point x="722" y="759"/>
			<point x="766" y="732" type="curve" smooth="yes"/>
			<point x="870" y="669"/>
			<point x="925" y="561"/>
			<point x="889" y="400" type="curve" smooth="yes"/>
			<point x="822" y="100"/>
			<point x="600" y="-20"/>
			<point x="298" y="-20" type="curve" smooth="yes"/>
			<point x="14" y="-20"/>
			<point x="-46" y="154"/>
		</contour>
	</outline>
</glyph>
<glyph name="four" format="2">
	<advance width="984" height="2310"/>
	<unicode hex="0034"/>
	<outline>
		<contour>
			<point x="842" y="164" type="curve" smooth="yes"/>
			<point x="814" y="36" type="line" smooth="yes"/>
			<point x="807" y="3"/>
			<point x="798" y="0"/>
			<point x="764" y="0" type="curve" smooth="yes"/>
			<point x="232" y="0" type="line" smooth="yes"/>
			<point x="185" y="0"/>
			<point x="177" y="1"/>
			<point x="187" y="48" type="curve" smooth="yes"/>
			<point x="213" y="165" type="line" smooth="yes"/>
			<point x="221" y="201"/>
			<point x="230" y="210"/>
			<point x="267" y="210" type="curve" smooth="yes"/>
			<point x="316" y="210" type="line" smooth="yes"/>
			<point x="360" y="210"/>
			<point x="364" y="217"/>
			<point x="374" y="262" type="curve" smooth="yes"/>
			<point x="395" y="356" type="line" smooth="yes"/>
			<point x="407" y="410"/>
			<point x="407" y="410"/>
			<point x="353" y="410" type="curve" smooth="yes"/>
			<point x="55" y="410" type="line" smooth="yes"/>
			<point x="12" y="410"/>
			<point x="13" y="418"/>
			<point x="5" y="444" type="curve" smooth="yes"/>
			<point x="-13" y="502" type="line" smooth="yes"/>
			<point x="-20" y="523"/>
			<point x="-11" y="532"/>
			<point x="5" y="554" type="curve" smooth="yes"/>
			<point x="232" y="868"/>
			<point x="483" y="1048"/>
			<point x="674" y="1444" type="curve" smooth="yes"/>
			<point x="694" y="1486"/>
			<point x="699" y="1500"/>
			<point x="755" y="1500" type="curve" smooth="yes"/>
			<point x="1025" y="1500" type="line" smooth="yes"/>
			<point x="1078" y="1500"/>
			<point x="1085" y="1495"/>
			<point x="1067" y="1448" type="curve" smooth="yes"/>
			<point x="917" y="1062"/>
			<point x="605" y="911"/>
			<point x="360" y="692" type="curve" smooth="yes"/>
			<point x="326" y="662"/>
			<point x="292" y="620"/>
			<point x="370" y="620" type="curve" smooth="yes"/>
			<point x="415" y="620" type="line" smooth="yes"/>
			<point x="450" y="620"/>
			<point x="455" y="628"/>
			<point x="463" y="664" type="curve" smooth="yes"/>
			<point x="473" y="710" type="line" smooth="yes"/>
			<point x="483" y="757"/>
			<point x="494" y="754"/>
			<point x="529" y="771" type="curve" smooth="yes"/>
			<point x="603" y="806"/>
			<point x="702" y="854"/>
			<point x="762" y="940" type="curve" smooth="yes"/>
			<point x="775" y="960"/>
			<point x="784" y="970"/>
			<point x="815" y="970" type="curve" smooth="yes"/>
			<point x="881" y="970" type="line" smooth="yes"/>
			<point x="912" y="970"/>
			<point x="921" y="969"/>
			<point x="914" y="938" type="curve" smooth="yes"/>
			<point x="856" y="678" type="line" smooth="yes"/>
			<point x="849" y="645"/>
			<point x="852" y="620"/>
			<point x="889" y="620" type="curve" smooth="yes"/>
			<point x="937" y="620" type="line" smooth="yes"/>
			<point x="969" y="620"/>
			<point x="972" y="612"/>
			<point x="965" y="582" type="curve" smooth="yes"/>
			<point x="939" y="466" type="line" smooth="yes"/>
			<point x="929" y="420"/>
			<point x="927" y="410"/>
			<point x="881" y="410" type="curve" smooth="yes"/>
			<point x="851" y="410" type="line" smooth="yes"/>
			<point x="810" y="410"/>
			<point x="796" y="406"/>
			<point x="786" y="362" type="curve" smooth="yes"/>
			<point x="764" y="262" type="line" smooth="yes"/>
			<point x="754" y="217"/>
			<point x="758" y="210"/>
			<point x="805" y="210" type="curve" smooth="yes"/>
			<point x="809" y="210" type="line" smooth="yes"/>
			<point x="848" y="210"/>
			<point x="851" y="204"/>
		</contour>
	</outline>
</glyph>
<glyph name="five" format="2">
	<advance width="930" height="2310"/>
	<unicode hex="0035"/>
	<outline>
		<contour>
			<point x="-30" y="318" type="curve" smooth="yes"/>
			<point x="2" y="464"/>
			<point x="122" y="550"/>
			<point x="250" y="550" type="curve" smooth="yes"/>
			<point x="374" y="550"/>
			<point x="436" y="468"/>
			<point x="413" y="364" type="curve" smooth="yes"/>
			<point x="384" y="232"/>
			<point x="301" y="242"/>
			<point x="291" y="196" type="curve" smooth="yes"/>
			<point x="283" y="162"/>
			<point x="306" y="144"/>
			<point x="324" y="144" type="curve" smooth="yes"/>
			<point x="372" y="144"/>
			<point x="435" y="302"/>
			<point x="481" y="510" type="curve" smooth="yes"/>
			<point x="529" y="728"/>
			<point x="523" y="782"/>
			<point x="485" y="782" type="curve" smooth="yes"/>
			<point x="456" y="782"/>
			<point x="430" y="763"/>
			<point x="320" y="655" type="curve" smooth="yes"/>
			<point x="299" y="634"/>
			<point x="286" y="624"/>
			<point x="247" y="624" type="curve" smooth="yes"/>
			<point x="183" y="624" type="line" smooth="yes"/>
			<point x="129" y="624"/>
			<point x="138" y="642"/>
			<point x="153" y="686" type="curve" smooth="yes"/>
			<point x="377" y="1460" type="line" smooth="yes"/>
			<point x="389" y="1498"/>
			<point x="400" y="1500"/>
			<point x="442" y="1500" type="curve" smooth="yes"/>
			<point x="497" y="1500" type="line" smooth="yes"/>
			<point x="698" y="1500"/>
			<point x="792" y="1468"/>
			<point x="875" y="1543" type="curve" smooth="yes"/>
			<point x="891" y="1558"/>
			<point x="903" y="1564"/>
			<point x="934" y="1564" type="curve" smooth="yes"/>
			<point x="1039" y="1564" type="line" smooth="yes"/>
			<point x="1065" y="1564"/>
			<point x="1074" y="1557"/>
			<point x="1064" y="1534" type="curve" smooth="yes"/>
			<point x="1054" y="1500" type="line" smooth="yes"/>
			<point x="1003" y="1334"/>
			<point x="962" y="1120"/>
			<point x="628" y="1120" type="curve" smooth="yes"/>
			<point x="473" y="1120" type="line" smooth="yes"/>
			<point x="435" y="1120"/>
			<point x="422" y="1111"/>
			<point x="417" y="1078" type="curve" smooth="yes"/>
			<point x="379" y="930" type="line" smooth="yes"/>
			<point x="373" y="893"/>
			<point x="355" y="850"/>
			<point x="362" y="846" type="curve" smooth="yes"/>
			<point x="375" y="837"/>
			<point x="398" y="863"/>
			<point x="428" y="896" type="curve" smooth="yes"/>
			<point x="489" y="962"/>
			<point x="567" y="1000"/>
			<point x="678" y="1000" type="curve" smooth="yes"/>
			<point x="970" y="1000"/>
			<point x="943" y="780"/>
			<point x="881" y="500" type="curve" smooth="yes"/>
			<point x="806" y="160"/>
			<point x="670" y="-20"/>
			<point x="328" y="-20" type="curve" smooth="yes"/>
			<point x="24" y="-20"/>
			<point x="-75" y="114"/>
		</contour>
	</outline>
</glyph>
<glyph name="six" format="2">
	<advance width="1010" height="2310"/>
	<unicode hex="0036"/>
	<outline>
		<contour>
			<point x="754" y="1342" type="curve" smooth="yes"/>
			<point x="758" y="1358"/>
			<point x="749" y="1366"/>
			<point x="731" y="1366" type="curve" smooth="yes"/>
			<point x="633" y="1366"/>
			<point x="590" y="1197"/>
			<point x="496" y="864" type="curve" smooth="yes"/>
			<point x="486" y="829"/>
			<point x="478" y="815"/>
			<point x="484" y="811" type="curve" smooth="yes"/>
			<point x="492" y="806"/>
			<point x="505" y="817"/>
			<point x="524" y="842" type="curve" smooth="yes"/>
			<point x="581" y="914"/>
			<point x="655" y="960"/>
			<point x="745" y="960" type="curve" smooth="yes"/>
			<point x="967" y="960"/>
			<point x="1030" y="810"/>
			<point x="961" y="500" type="curve" smooth="yes"/>
			<point x="879" y="130"/>
			<point x="676" y="-20"/>
			<point x="374" y="-20" type="curve" smooth="yes"/>
			<point x="52" y="-20"/>
			<point x="-62" y="170"/>
			<point x="64" y="740" type="curve" smooth="yes"/>
			<point x="170" y="1220"/>
			<point x="393" y="1520"/>
			<point x="765" y="1520" type="curve" smooth="yes"/>
			<point x="1039" y="1520"/>
			<point x="1105" y="1376"/>
			<point x="1071" y="1222" type="curve" smooth="yes"/>
			<point x="1041" y="1086"/>
			<point x="940" y="990"/>
			<point x="801" y="990" type="curve" smooth="yes"/>
			<point x="667" y="990"/>
			<point x="594" y="1062"/>
			<point x="619" y="1176" type="curve" smooth="yes"/>
			<point x="644" y="1288"/>
			<point x="748" y="1316"/>
		</contour>
		<contour>
			<point x="554" y="470" type="curve" smooth="yes"/>
			<point x="596" y="658"/>
			<point x="576" y="722"/>
			<point x="538" y="722" type="curve" smooth="yes"/>
			<point x="502" y="722"/>
			<point x="437" y="620"/>
			<point x="402" y="460" type="curve" smooth="yes"/>
			<point x="367" y="302"/>
			<point x="367" y="210"/>
			<point x="425" y="210" type="curve" smooth="yes"/>
			<point x="473" y="210"/>
			<point x="515" y="292"/>
		</contour>
	</outline>
</glyph>
<glyph name="seven" format="2">
	<advance width="1027" height="2310"/>
	<unicode hex="0037"/>
	<outline>
		<contour>
			<point x="88" y="982" type="curve" smooth="yes"/>
			<point x="179" y="1347"/>
			<point x="326" y="1520"/>
			<point x="527" y="1520" type="curve" smooth="yes"/>
			<point x="721" y="1520"/>
			<point x="715" y="1400"/>
			<point x="881" y="1400" type="curve" smooth="yes"/>
			<point x="949" y="1400"/>
			<point x="988" y="1427"/>
			<point x="1018" y="1471" type="curve" smooth="yes"/>
			<point x="1030" y="1489"/>
			<point x="1035" y="1500"/>
			<point x="1063" y="1500" type="curve" smooth="yes"/>
			<point x="1192" y="1500" type="line" smooth="yes"/>
			<point x="1227" y="1500"/>
			<point x="1231" y="1493"/>
			<point x="1219" y="1460" type="curve" smooth="yes"/>
			<point x="1162" y="1305"/>
			<point x="932" y="993"/>
			<point x="734" y="756" type="curve" smooth="yes"/>
			<point x="593" y="586"/>
			<point x="536" y="532"/>
			<point x="521" y="464" type="curve" smooth="yes"/>
			<point x="500" y="368"/>
			<point x="676" y="368"/>
			<point x="642" y="216" type="curve" smooth="yes"/>
			<point x="617" y="102"/>
			<point x="520" y="-20"/>
			<point x="362" y="-20" type="curve" smooth="yes"/>
			<point x="214" y="-20"/>
			<point x="121" y="74"/>
			<point x="160" y="252" type="curve" smooth="yes"/>
			<point x="199" y="430"/>
			<point x="320" y="540"/>
			<point x="497" y="762" type="curve" smooth="yes"/>
			<point x="594" y="884"/>
			<point x="652" y="965"/>
			<point x="778" y="1100" type="curve" smooth="yes"/>
			<point x="816" y="1141"/>
			<point x="849" y="1176"/>
			<point x="841" y="1186" type="curve" smooth="yes"/>
			<point x="829" y="1201"/>
			<point x="791" y="1165"/>
			<point x="762" y="1136" type="curve" smooth="yes"/>
			<point x="714" y="1088"/>
			<point x="673" y="1076"/>
			<point x="619" y="1076" type="curve" smooth="yes"/>
			<point x="529" y="1076"/>
			<point x="542" y="1134"/>
			<point x="460" y="1134" type="curve" smooth="yes"/>
			<point x="393" y="1134"/>
			<point x="297" y="1082"/>
			<point x="264" y="980" type="curve" smooth="yes"/>
			<point x="257" y="957"/>
			<point x="261" y="946"/>
			<point x="233" y="946" type="curve" smooth="yes"/>
			<point x="117" y="946" type="line" smooth="yes"/>
			<point x="87" y="946"/>
			<point x="81" y="954"/>
		</contour>
	</outline>
</glyph>
<glyph name="nine" format="2">
	<advance width="1010" height="2310"/>
	<unicode hex="0039"/>
	<outline>
		<contour>
			<point x="329" y="158" type="curve" smooth="yes"/>
			<point x="325" y="142"/>
			<point x="334" y="134"/>
			<point x="352" y="134" type="curve" smooth="yes"/>
			<point x="450" y="134"/>
			<point x="493" y="303"/>
			<point x="587" y="636" type="curve" smooth="yes"/>
			<point x="597" y="671"/>
			<point x="605" y="685"/>
			<point x="599" y="689" type="curve" smooth="yes"/>
			<point x="591" y="694"/>
			<point x="578" y="683"/>
			<point x="559" y="658" type="curve" smooth="yes"/>
			<point x="502" y="586"/>
			<point x="428" y="540"/>
			<point x="338" y="540" type="curve" smooth="yes"/>
			<point x="116" y="540"/>
			<point x="53" y="690"/>
			<point x="122" y="1000" type="curve" smooth="yes"/>
			<point x="204" y="1370"/>
			<point x="407" y="1520"/>
			<point x="709" y="1520" type="curve" smooth="yes"/>
			<point x="1031" y="1520"/>
			<point x="1144" y="1330"/>
			<point x="1018" y="760" type="curve" smooth="yes"/>
			<point x="912" y="280"/>
			<point x="690" y="-20"/>
			<point x="318" y="-20" type="curve" smooth="yes"/>
			<point x="44" y="-20"/>
			<point x="-22" y="124"/>
			<point x="12" y="278" type="curve" smooth="yes"/>
			<point x="42" y="414"/>
			<point x="142" y="510"/>
			<point x="281" y="510" type="curve" smooth="yes"/>
			<point x="415" y="510"/>
			<point x="489" y="438"/>
			<point x="464" y="324" type="curve" smooth="yes"/>
			<point x="439" y="212"/>
			<point x="335" y="184"/>
		</contour>
		<contour>
			<point x="528" y="1030" type="curve" smooth="yes"/>
			<point x="486" y="842"/>
			<point x="506" y="778"/>
			<point x="544" y="778" type="curve" smooth="yes"/>
			<point x="580" y="778"/>
			<point x="646" y="880"/>
			<point x="681" y="1040" type="curve" smooth="yes"/>
			<point x="716" y="1198"/>
			<point x="716" y="1290"/>
			<point x="658" y="1290" type="curve" smooth="yes"/>
			<point x="610" y="1290"/>
			<point x="567" y="1208"/>
		</contour>
	</outline>
</glyph>
<glyph name="question" format="2">
	<advance width="1220" height="0"/>
	<unicode hex="003F"/>
	<outline>
		<contour>
			<point x="727" y="494" type="curve" smooth="yes"/>
			<point x="654" y="476"/>
			<point x="593" y="472"/>
			<point x="562" y="472" type="curve" smooth="yes"/>
			<point x="441" y="472"/>
			<point x="290" y="536"/>
			<point x="290" y="680" type="curve" smooth="yes"/>
			<point x="290" y="996"/>
			<point x="858" y="865"/>
			<point x="858" y="1200" type="curve" smooth="yes"/>
			<point x="858" y="1308"/>
			<point x="800" y="1366"/>
			<point x="702" y="1366" type="curve" smooth="yes"/>
			<point x="634" y="1366"/>
			<point x="578" y="1350"/>
			<point x="578" y="1326" type="curve" smooth="yes"/>
			<point x="578" y="1286"/>
			<point x="660" y="1282"/>
			<point x="660" y="1140" type="curve" smooth="yes"/>
			<point x="660" y="1016"/>
			<point x="514" y="940"/>
			<point x="404" y="940" type="curve" smooth="yes"/>
			<point x="294" y="940"/>
			<point x="150" y="1026"/>
			<point x="150" y="1162" type="curve" smooth="yes"/>
			<point x="150" y="1366"/>
			<point x="398" y="1540"/>
			<point x="762" y="1540" type="curve" smooth="yes"/>
			<point x="1104" y="1540"/>
			<point x="1280" y="1400"/>
			<point x="1280" y="1180" type="curve" smooth="yes"/>
			<point x="1280" y="726"/>
			<point x="531" y="783"/>
			<point x="531" y="701" type="curve" smooth="yes"/>
			<point x="531" y="678"/>
			<point x="553" y="666"/>
			<point x="600" y="666" type="curve" smooth="yes"/>
			<point x="622" y="666"/>
			<point x="675" y="670"/>
			<point x="728" y="688" type="curve" smooth="yes"/>
			<point x="766" y="701"/>
			<point x="770" y="714"/>
			<point x="775" y="661" type="curve" smooth="yes"/>
			<point x="786" y="555" type="line" smooth="yes"/>
			<point x="792" y="501"/>
			<point x="770" y="505"/>
		</contour>
		<component base="period" xOffset="338"/>
	</outline>
</glyph>
<glyph name="A" format="2">
	<advance width="1390" height="0"/>
	<unicode hex="0041"/>
	<anchor x="903" y="1500" name="Anchor-0"/>
	<anchor x="486" y="0" name="Anchor-1"/>
	<anchor x="1056" y="0" name="Anchor-2"/>
	<anchor x="1056" y="0" name="Anchor-3"/>
	<outline>
		<contour>
			<point x="659" y="999" type="curve" smooth="yes"/>
			<point x="548" y="735" type="line" smooth="yes"/>
			<point x="536" y="706"/>
			<point x="521" y="670"/>
			<point x="575" y="670" type="curve" smooth="yes"/>
			<point x="636" y="670" type="line" smooth="yes"/>
			<point x="682" y="670"/>
			<point x="682" y="703"/>
			<point x="684" y="731" type="curve" smooth="yes"/>
			<point x="704" y="1003" type="line" smooth="yes"/>
			<point x="705" y="1023"/>
			<point x="698" y="1030"/>
			<point x="690" y="1030" type="curve" smooth="yes"/>
			<point x="679" y="1030"/>
			<point x="666" y="1016"/>
		</contour>
		<contour>
			<point x="-80" y="57" type="curve" smooth="yes"/>
			<point x="-80" y="221" type="line" smooth="yes"/>
			<point x="-80" y="255"/>
			<point x="-72" y="270"/>
			<point x="-34" y="270" type="curve" smooth="yes"/>
			<point x="51" y="270" type="line" smooth="yes"/>
			<point x="84" y="270"/>
			<point x="81" y="285"/>
			<point x="91" y="307" type="curve" smooth="yes"/>
			<point x="623" y="1477" type="line" smooth="yes"/>
			<point x="637" y="1508"/>
			<point x="640" y="1510"/>
			<point x="686" y="1510" type="curve" smooth="yes"/>
			<point x="1086" y="1510" type="line" smooth="yes"/>
			<point x="1133" y="1510"/>
			<point x="1151" y="1499"/>
			<point x="1152" y="1467" type="curve" smooth="yes"/>
			<point x="1178" y="331" type="line" smooth="yes"/>
			<point x="1179" y="293"/>
			<point x="1188" y="270"/>
			<point x="1245" y="270" type="curve" smooth="yes"/>
			<point x="1257" y="270" type="line" smooth="yes"/>
			<point x="1292" y="270"/>
			<point x="1310" y="270"/>
			<point x="1310" y="231" type="curve" smooth="yes"/>
			<point x="1310" y="45" type="line" smooth="yes"/>
			<point x="1310" y="5"/>
			<point x="1304" y="0"/>
			<point x="1265" y="0" type="curve" smooth="yes"/>
			<point x="571" y="0" type="line" smooth="yes"/>
			<point x="531" y="0"/>
			<point x="530" y="9"/>
			<point x="530" y="49" type="curve" smooth="yes"/>
			<point x="530" y="227" type="line" smooth="yes"/>
			<point x="530" y="265"/>
			<point x="536" y="270"/>
			<point x="573" y="270" type="curve" smooth="yes"/>
			<point x="607" y="270" type="line" smooth="yes"/>
			<point x="655" y="270"/>
			<point x="651" y="280"/>
			<point x="656" y="319" type="curve" smooth="yes"/>
			<point x="664" y="387" type="line" smooth="yes"/>
			<point x="667" y="414"/>
			<point x="656" y="420"/>
			<point x="617" y="420" type="curve" smooth="yes"/>
			<point x="470" y="420" type="line" smooth="yes"/>
			<point x="431" y="420"/>
			<point x="418" y="423"/>
			<point x="408" y="395" type="curve" smooth="yes"/>
			<point x="378" y="313" type="line" smooth="yes"/>
			<point x="367" y="282"/>
			<point x="377" y="270"/>
			<point x="403" y="270" type="curve" smooth="yes"/>
			<point x="407" y="270" type="line" smooth="yes"/>
			<point x="439" y="270"/>
			<point x="440" y="261"/>
			<point x="440" y="229" type="curve" smooth="yes"/>
			<point x="440" y="37" type="line" smooth="yes"/>
			<point x="440" y="4"/>
			<point x="430" y="0"/>
			<point x="399" y="0" type="curve" smooth="yes"/>
			<point x="-14" y="0" type="line" smooth="yes"/>
			<point x="-70" y="0"/>
			<point x="-80" y="1"/>
		</contour>
	</outline>
</glyph>
<glyph name="B" format="2">
	<advance width="1210" height="0"/>
	<unicode hex="0042"/>
	<anchor x="723" y="1500" name="Anchor-0"/>
	<anchor x="426" y="0" name="Anchor-1"/>
	<anchor x="426" y="0" name="Anchor-2"/>
	<outline>
		<contour>
			<point x="670" y="0" type="curve" smooth="yes"/>
			<point x="-18" y="0" type="line" smooth="yes"/>
			<point x="-64" y="0"/>
			<point x="-65" y="19"/>
			<point x="-65" y="66" type="curve" smooth="yes"/>
			<point x="-65" y="240" type="line" smooth="yes"/>
			<point x="-65" y="266"/>
			<point x="-54" y="270"/>
			<point x="-30" y="270" type="curve" smooth="yes"/>
			<point x="8" y="270" type="line" smooth="yes"/>
			<point x="52" y="270"/>
			<point x="66" y="289"/>
			<point x="75" y="332" type="curve" smooth="yes"/>
			<point x="260" y="1178" type="line" smooth="yes"/>
			<point x="260" y="1214"/>
			<point x="254" y="1230"/>
			<point x="219" y="1230" type="curve" smooth="yes"/>
			<point x="203" y="1230" type="line" smooth="yes"/>
			<point x="166" y="1230"/>
			<point x="160" y="1236"/>
			<point x="160" y="1272" type="curve" smooth="yes"/>
			<point x="160" y="1448" type="line" smooth="yes"/>
			<point x="160" y="1488"/>
			<point x="169" y="1500"/>
			<point x="207" y="1500" type="curve" smooth="yes"/>
			<point x="820" y="1500" type="line" smooth="yes"/>
			<point x="1132" y="1500"/>
			<point x="1286" y="1440"/>
			<point x="1286" y="1240" type="curve" smooth="yes"/>
			<point x="1286" y="965"/>
			<point x="1074" y="859"/>
			<point x="945" y="805" type="curve" smooth="yes"/>
			<point x="927" y="797"/>
			<point x="917" y="789"/>
			<point x="917" y="781" type="curve" smooth="yes"/>
			<point x="917" y="773"/>
			<point x="929" y="766"/>
			<point x="951" y="760" type="curve" smooth="yes"/>
			<point x="1123" y="714"/>
			<point x="1180" y="613"/>
			<point x="1180" y="510" type="curve" smooth="yes"/>
			<point x="1180" y="240"/>
			<point x="1002" y="0"/>
		</contour>
		<contour>
			<point x="560" y="270" type="line" smooth="yes"/>
			<point x="642" y="270"/>
			<point x="703" y="422"/>
			<point x="703" y="540" type="curve" smooth="yes"/>
			<point x="703" y="608"/>
			<point x="672" y="640"/>
			<point x="630" y="640" type="curve" smooth="yes"/>
			<point x="611" y="640" type="line" smooth="yes"/>
			<point x="585" y="640"/>
			<point x="566" y="623"/>
			<point x="560" y="596" type="curve" smooth="yes"/>
			<point x="500" y="326" type="line" smooth="yes"/>
			<point x="491" y="287"/>
			<point x="496" y="270"/>
			<point x="535" y="270" type="curve" smooth="yes"/>
		</contour>
		<contour>
			<point x="662" y="910" type="curve" smooth="yes"/>
			<point x="685" y="910" type="line" smooth="yes"/>
			<point x="737" y="910"/>
			<point x="792" y="1072"/>
			<point x="792" y="1160" type="curve" smooth="yes"/>
			<point x="792" y="1208"/>
			<point x="779" y="1230"/>
			<point x="747" y="1230" type="curve" smooth="yes"/>
			<point x="738" y="1230" type="line" smooth="yes"/>
			<point x="707" y="1230"/>
			<point x="704" y="1227"/>
			<point x="697" y="1198" type="curve" smooth="yes"/>
			<point x="645" y="969" type="line" smooth="yes"/>
			<point x="634" y="921"/>
			<point x="638" y="910"/>
		</contour>
	</outline>
</glyph>
<glyph name="C" format="2">
	<advance width="1208" height="0"/>
	<unicode hex="0043"/>
	<anchor x="905" y="1500" name="Anchor-0"/>
	<anchor x="537" y="0" name="Anchor-1"/>
	<anchor x="537" y="0" name="Anchor-2"/>
	<outline>
		<contour>
			<point x="1197" y="542" type="curve" smooth="yes"/>
			<point x="1080" y="202"/>
			<point x="887" y="-40"/>
			<point x="542" y="-40" type="curve" smooth="yes"/>
			<point x="174" y="-40"/>
			<point x="27" y="134"/>
			<point x="27" y="429" type="curve" smooth="yes"/>
			<point x="27" y="999"/>
			<point x="332" y="1540"/>
			<point x="792" y="1540" type="curve" smooth="yes"/>
			<point x="912" y="1540"/>
			<point x="981" y="1487"/>
			<point x="1024" y="1431" type="curve" smooth="yes"/>
			<point x="1053" y="1393"/>
			<point x="1054" y="1395"/>
			<point x="1090" y="1444" type="curve" smooth="yes"/>
			<point x="1122" y="1488" type="line" smooth="yes"/>
			<point x="1138" y="1509"/>
			<point x="1148" y="1510"/>
			<point x="1185" y="1510" type="curve" smooth="yes"/>
			<point x="1325" y="1510" type="line" smooth="yes"/>
			<point x="1374" y="1510"/>
			<point x="1373" y="1501"/>
			<point x="1362" y="1452" type="curve" smooth="yes"/>
			<point x="1256" y="974" type="line" smooth="yes"/>
			<point x="1248" y="936"/>
			<point x="1242" y="930"/>
			<point x="1202" y="930" type="curve" smooth="yes"/>
			<point x="989" y="930" type="line" smooth="yes"/>
			<point x="941" y="930"/>
			<point x="936" y="941"/>
			<point x="936" y="977" type="curve" smooth="yes"/>
			<point x="936" y="1157"/>
			<point x="955" y="1284"/>
			<point x="855" y="1284" type="curve" smooth="yes"/>
			<point x="712" y="1284"/>
			<point x="536" y="713"/>
			<point x="536" y="405" type="curve" smooth="yes"/>
			<point x="536" y="288"/>
			<point x="567" y="228"/>
			<point x="641" y="228" type="curve" smooth="yes"/>
			<point x="727" y="228"/>
			<point x="795" y="338"/>
			<point x="876" y="522" type="curve" smooth="yes"/>
			<point x="900" y="577"/>
			<point x="910" y="590"/>
			<point x="959" y="590" type="curve" smooth="yes"/>
			<point x="1155" y="590" type="line" smooth="yes"/>
			<point x="1208" y="590"/>
			<point x="1210" y="579"/>
		</contour>
	</outline>
</glyph>
<glyph name="D" format="2">
	<advance width="1320" height="0"/>
	<unicode hex="0044"/>
	<anchor x="783" y="1500" name="Anchor-0"/>
	<anchor x="483" y="0" name="Anchor-1"/>
	<anchor x="483" y="0" name="Anchor-2"/>
	<outline>
		<contour>
			<point x="-70" y="34" type="curve" smooth="yes"/>
			<point x="-70" y="230" type="line" smooth="yes"/>
			<point x="-70" y="263"/>
			<point x="-62" y="270"/>
			<point x="-31" y="270" type="curve" smooth="yes"/>
			<point x="33" y="270" type="line" smooth="yes"/>
			<point x="69" y="270"/>
			<point x="62" y="281"/>
			<point x="70" y="316" type="curve" smooth="yes"/>
			<point x="260" y="1179" type="line" smooth="yes"/>
			<point x="269" y="1220"/>
			<point x="254" y="1230"/>
			<point x="213" y="1230" type="curve" smooth="yes"/>
			<point x="209" y="1230" type="line" smooth="yes"/>
			<point x="165" y="1230"/>
			<point x="160" y="1236"/>
			<point x="160" y="1278" type="curve" smooth="yes"/>
			<point x="160" y="1447" type="line" smooth="yes"/>
			<point x="160" y="1492"/>
			<point x="170" y="1500"/>
			<point x="213" y="1500" type="curve" smooth="yes"/>
			<point x="820" y="1500" type="line" smooth="yes"/>
			<point x="1226" y="1500"/>
			<point x="1380" y="1326"/>
			<point x="1380" y="1050" type="curve" smooth="yes"/>
			<point x="1380" y="645"/>
			<point x="1206" y="0"/>
			<point x="610" y="0" type="curve" smooth="yes"/>
			<point x="-22" y="0" type="line" smooth="yes"/>
			<point x="-55" y="0"/>
			<point x="-70" y="1"/>
		</contour>
		<contour>
			<point x="578" y="270" type="curve" smooth="yes"/>
			<point x="600" y="270" type="line" smooth="yes"/>
			<point x="758" y="270"/>
			<point x="890" y="816"/>
			<point x="890" y="1060" type="curve" smooth="yes"/>
			<point x="890" y="1174"/>
			<point x="858" y="1230"/>
			<point x="780" y="1230" type="curve" smooth="yes"/>
			<point x="769" y="1230" type="line" smooth="yes"/>
			<point x="742" y="1230"/>
			<point x="740" y="1220"/>
			<point x="730" y="1174" type="curve" smooth="yes"/>
			<point x="540" y="316" type="line" smooth="yes"/>
			<point x="531" y="274"/>
			<point x="543" y="270"/>
		</contour>
	</outline>
</glyph>
<glyph name="E" format="2">
	<advance width="1170" height="0"/>
	<unicode hex="0045"/>
	<anchor x="753" y="1500" name="Anchor-0"/>
	<anchor x="456" y="0" name="Anchor-1"/>
	<anchor x="896" y="0" name="Anchor-2"/>
	<anchor x="896" y="0" name="Anchor-3"/>
	<outline>
		<contour>
			<point x="600" y="592" type="curve" smooth="yes"/>
			<point x="540" y="310" type="line" smooth="yes"/>
			<point x="530" y="265"/>
			<point x="549" y="270"/>
			<point x="594" y="270" type="curve" smooth="yes"/>
			<point x="620" y="270" type="line" smooth="yes"/>
			<point x="804" y="270"/>
			<point x="882" y="361"/>
			<point x="929" y="592" type="curve" smooth="yes"/>
			<point x="939" y="642"/>
			<point x="945" y="650"/>
			<point x="1000" y="650" type="curve" smooth="yes"/>
			<point x="1120" y="650" type="line" smooth="yes"/>
			<point x="1165" y="650"/>
			<point x="1169" y="642"/>
			<point x="1160" y="600" type="curve" smooth="yes"/>
			<point x="1040" y="40" type="line" smooth="yes"/>
			<point x="1031" y="0"/>
			<point x="1038" y="0"/>
			<point x="996" y="0" type="curve" smooth="yes"/>
			<point x="-20" y="0" type="line" smooth="yes"/>
			<point x="-60" y="0"/>
			<point x="-70" y="13"/>
			<point x="-70" y="56" type="curve" smooth="yes"/>
			<point x="-70" y="218" type="line" smooth="yes"/>
			<point x="-70" y="252"/>
			<point x="-67" y="270"/>
			<point x="-34" y="270" type="curve" smooth="yes"/>
			<point x="16" y="270" type="line" smooth="yes"/>
			<point x="59" y="270"/>
			<point x="61" y="271"/>
			<point x="70" y="312" type="curve" smooth="yes"/>
			<point x="265" y="1192" type="line" smooth="yes"/>
			<point x="272" y="1225"/>
			<point x="257" y="1230"/>
			<point x="221" y="1230" type="curve" smooth="yes"/>
			<point x="211" y="1230" type="line" smooth="yes"/>
			<point x="169" y="1230"/>
			<point x="165" y="1238"/>
			<point x="165" y="1278" type="curve" smooth="yes"/>
			<point x="165" y="1454" type="line" smooth="yes"/>
			<point x="165" y="1499"/>
			<point x="179" y="1500"/>
			<point x="221" y="1500" type="curve" smooth="yes"/>
			<point x="1290" y="1500" type="line" smooth="yes"/>
			<point x="1329" y="1500"/>
			<point x="1332" y="1489"/>
			<point x="1332" y="1452" type="curve" smooth="yes"/>
			<point x="1220" y="948" type="line" smooth="yes"/>
			<point x="1212" y="912"/>
			<point x="1210" y="910"/>
			<point x="1172" y="910" type="curve" smooth="yes"/>
			<point x="1022" y="910" type="line" smooth="yes"/>
			<point x="992" y="910"/>
			<point x="984" y="925"/>
			<point x="989" y="950" type="curve" smooth="yes"/>
			<point x="1033" y="1154"/>
			<point x="1005" y="1230"/>
			<point x="835" y="1230" type="curve" smooth="yes"/>
			<point x="793" y="1230" type="line" smooth="yes"/>
			<point x="754" y="1230"/>
			<point x="745" y="1224"/>
			<point x="735" y="1183" type="curve" smooth="yes"/>
			<point x="670" y="918" type="line" smooth="yes"/>
			<point x="659" y="873"/>
			<point x="666" y="860"/>
			<point x="678" y="860" type="curve" smooth="yes"/>
			<point x="679" y="860" type="line" smooth="yes"/>
			<point x="702" y="860"/>
			<point x="740" y="945"/>
			<point x="766" y="1038" type="curve" smooth="yes"/>
			<point x="774" y="1068"/>
			<point x="793" y="1086"/>
			<point x="821" y="1086" type="curve" smooth="yes"/>
			<point x="912" y="1086" type="line" smooth="yes"/>
			<point x="955" y="1086"/>
			<point x="969" y="1078"/>
			<point x="960" y="1038" type="curve" smooth="yes"/>
			<point x="830" y="458" type="line" smooth="yes"/>
			<point x="823" y="425"/>
			<point x="815" y="416"/>
			<point x="778" y="416" type="curve" smooth="yes"/>
			<point x="690" y="416" type="line" smooth="yes"/>
			<point x="649" y="416"/>
			<point x="626" y="436"/>
			<point x="635" y="468" type="curve" smooth="yes"/>
			<point x="659" y="559"/>
			<point x="659" y="650"/>
			<point x="632" y="650" type="curve" smooth="yes"/>
			<point x="631" y="650" type="line" smooth="yes"/>
			<point x="614" y="650"/>
			<point x="608" y="631"/>
		</contour>
	</outline>
</glyph>
<glyph name="F" format="2">
	<advance width="1150" height="0"/>
	<unicode hex="0046"/>
	<anchor x="793" y="1500" name="Anchor-0"/>
	<anchor x="266" y="0" name="Anchor-1"/>
	<anchor x="266" y="0" name="Anchor-2"/>
	<outline>
		<contour>
			<point x="-69" y="55" type="curve" smooth="yes"/>
			<point x="-69" y="231" type="line" smooth="yes"/>
			<point x="-69" y="259"/>
			<point x="-60" y="270"/>
			<point x="-31" y="270" type="curve" smooth="yes"/>
			<point x="28" y="270" type="line" smooth="yes"/>
			<point x="58" y="270"/>
			<point x="62" y="279"/>
			<point x="71" y="318" type="curve" smooth="yes"/>
			<point x="265" y="1195" type="line" smooth="yes"/>
			<point x="271" y="1224"/>
			<point x="262" y="1230"/>
			<point x="234" y="1230" type="curve" smooth="yes"/>
			<point x="195" y="1230" type="line" smooth="yes"/>
			<point x="172" y="1230"/>
			<point x="170" y="1248"/>
			<point x="170" y="1272" type="curve" smooth="yes"/>
			<point x="170" y="1464" type="line" smooth="yes"/>
			<point x="170" y="1489"/>
			<point x="179" y="1500"/>
			<point x="204" y="1500" type="curve" smooth="yes"/>
			<point x="1299" y="1500" type="line" smooth="yes"/>
			<point x="1331" y="1500"/>
			<point x="1342" y="1491"/>
			<point x="1335" y="1460" type="curve" smooth="yes"/>
			<point x="1214" y="921" type="line" smooth="yes"/>
			<point x="1208" y="894"/>
			<point x="1187" y="890"/>
			<point x="1158" y="890" type="curve" smooth="yes"/>
			<point x="1030" y="890" type="line" smooth="yes"/>
			<point x="994" y="890"/>
			<point x="977" y="891"/>
			<point x="984" y="925" type="curve" smooth="yes"/>
			<point x="1029" y="1135"/>
			<point x="1042" y="1230"/>
			<point x="820" y="1230" type="curve" smooth="yes"/>
			<point x="782" y="1230" type="line" smooth="yes"/>
			<point x="750" y="1230"/>
			<point x="742" y="1228"/>
			<point x="735" y="1197" type="curve" smooth="yes"/>
			<point x="660" y="851" type="line" smooth="yes"/>
			<point x="660" y="841"/>
			<point x="663" y="837"/>
			<point x="669" y="837" type="curve" smooth="yes"/>
			<point x="671" y="837" type="line" smooth="yes"/>
			<point x="714" y="837"/>
			<point x="741" y="929"/>
			<point x="769" y="1049" type="curve" smooth="yes"/>
			<point x="772" y="1064"/>
			<point x="788" y="1066"/>
			<point x="804" y="1066" type="curve" smooth="yes"/>
			<point x="927" y="1066" type="line" smooth="yes"/>
			<point x="948" y="1066"/>
			<point x="965" y="1057"/>
			<point x="960" y="1036" type="curve" smooth="yes"/>
			<point x="820" y="406" type="line" smooth="yes"/>
			<point x="815" y="383"/>
			<point x="804" y="376"/>
			<point x="778" y="376" type="curve" smooth="yes"/>
			<point x="658" y="376" type="line" smooth="yes"/>
			<point x="629" y="376"/>
			<point x="625" y="397"/>
			<point x="629" y="423" type="curve" smooth="yes"/>
			<point x="647" y="541"/>
			<point x="652" y="615"/>
			<point x="620" y="615" type="curve" smooth="yes"/>
			<point x="619" y="615" type="line" smooth="yes"/>
			<point x="607" y="615"/>
			<point x="603" y="599"/>
			<point x="599" y="580" type="curve" smooth="yes"/>
			<point x="541" y="317" type="line" smooth="yes"/>
			<point x="533" y="279"/>
			<point x="546" y="270"/>
			<point x="588" y="270" type="curve" smooth="yes"/>
			<point x="644" y="270" type="line" smooth="yes"/>
			<point x="681" y="270"/>
			<point x="681" y="250"/>
			<point x="681" y="213" type="curve" smooth="yes"/>
			<point x="681" y="47" type="line" smooth="yes"/>
			<point x="681" y="5"/>
			<point x="655" y="0"/>
			<point x="614" y="0" type="curve" smooth="yes"/>
			<point x="-28" y="0" type="line" smooth="yes"/>
			<point x="-61" y="0"/>
			<point x="-69" y="23"/>
		</contour>
	</outline>
</glyph>
<glyph name="G" format="2">
	<advance width="1310" height="0"/>
	<unicode hex="0047"/>
	<anchor x="895" y="1500" name="Anchor-0"/>
	<anchor x="507" y="0" name="Anchor-1"/>
	<anchor x="507" y="0" name="Anchor-2"/>
	<outline>
		<contour>
			<point x="743" y="860" type="curve" smooth="yes"/>
			<point x="1245" y="860" type="line" smooth="yes"/>
			<point x="1290" y="860"/>
			<point x="1304" y="855"/>
			<point x="1304" y="808" type="curve" smooth="yes"/>
			<point x="1304" y="626" type="line" smooth="yes"/>
			<point x="1304" y="592"/>
			<point x="1283" y="590"/>
			<point x="1248" y="590" type="curve" smooth="yes"/>
			<point x="1238" y="590" type="line" smooth="yes"/>
			<point x="1207" y="590"/>
			<point x="1200" y="586"/>
			<point x="1193" y="556" type="curve" smooth="yes"/>
			<point x="1144" y="334" type="line" smooth="yes"/>
			<point x="1134" y="288"/>
			<point x="1121" y="278"/>
			<point x="1098" y="251" type="curve" smooth="yes"/>
			<point x="970" y="102"/>
			<point x="868" y="-40"/>
			<point x="531" y="-40" type="curve" smooth="yes"/>
			<point x="156" y="-40"/>
			<point x="15" y="134"/>
			<point x="15" y="429" type="curve" smooth="yes"/>
			<point x="15" y="1013"/>
			<point x="315" y="1540"/>
			<point x="801" y="1540" type="curve" smooth="yes"/>
			<point x="947" y="1540"/>
			<point x="995" y="1471"/>
			<point x="1015" y="1438" type="curve" smooth="yes"/>
			<point x="1038" y="1400"/>
			<point x="1059" y="1412"/>
			<point x="1091" y="1444" type="curve" smooth="yes"/>
			<point x="1137" y="1492" type="line" smooth="yes"/>
			<point x="1150" y="1505"/>
			<point x="1163" y="1510"/>
			<point x="1188" y="1510" type="curve" smooth="yes"/>
			<point x="1338" y="1510" type="line" smooth="yes"/>
			<point x="1372" y="1510"/>
			<point x="1384" y="1507"/>
			<point x="1377" y="1474" type="curve" smooth="yes"/>
			<point x="1278" y="1029" type="line" smooth="yes"/>
			<point x="1268" y="985"/>
			<point x="1264" y="970"/>
			<point x="1220" y="970" type="curve" smooth="yes"/>
			<point x="1024" y="970" type="line" smooth="yes"/>
			<point x="967" y="970"/>
			<point x="973" y="983"/>
			<point x="965" y="1020" type="curve" smooth="yes"/>
			<point x="929" y="1192"/>
			<point x="935" y="1284"/>
			<point x="845" y="1284" type="curve" smooth="yes"/>
			<point x="690" y="1284"/>
			<point x="515" y="640"/>
			<point x="515" y="343" type="curve" smooth="yes"/>
			<point x="515" y="256"/>
			<point x="534" y="210"/>
			<point x="577" y="210" type="curve" smooth="yes"/>
			<point x="635" y="210"/>
			<point x="660" y="285"/>
			<point x="697" y="384" type="curve" smooth="yes"/>
			<point x="708" y="414"/>
			<point x="715" y="431"/>
			<point x="725" y="474" type="curve" smooth="yes"/>
			<point x="741" y="544" type="line" smooth="yes"/>
			<point x="750" y="583"/>
			<point x="748" y="590"/>
			<point x="710" y="590" type="curve" smooth="yes"/>
			<point x="706" y="590" type="line" smooth="yes"/>
			<point x="660" y="590"/>
			<point x="675" y="610"/>
			<point x="675" y="652" type="curve" smooth="yes"/>
			<point x="675" y="810" type="line" smooth="yes"/>
			<point x="675" y="858"/>
			<point x="698" y="860"/>
		</contour>
	</outline>
</glyph>
<glyph name="H" format="2">
	<advance width="1440" height="0"/>
	<unicode hex="0048"/>
	<anchor x="855" y="1500" name="Anchor-0"/>
	<anchor x="636" y="0" name="Anchor-1"/>
	<anchor x="636" y="0" name="Anchor-2"/>
	<outline>
		<contour>
			<point x="-70" y="67" type="curve" smooth="yes"/>
			<point x="-70" y="206" type="line" smooth="yes"/>
			<point x="-70" y="251"/>
			<point x="-68" y="270"/>
			<point x="-23" y="270" type="curve" smooth="yes"/>
			<point x="5" y="270" type="line" smooth="yes"/>
			<point x="34" y="270"/>
			<point x="60" y="273"/>
			<point x="70" y="320" type="curve" smooth="yes"/>
			<point x="260" y="1184" type="line" smooth="yes"/>
			<point x="269" y="1223"/>
			<point x="249" y="1230"/>
			<point x="206" y="1230" type="curve" smooth="yes"/>
			<point x="205" y="1230" type="line" smooth="yes"/>
			<point x="173" y="1230"/>
			<point x="160" y="1235"/>
			<point x="160" y="1290" type="curve" smooth="yes"/>
			<point x="160" y="1444" type="line" smooth="yes"/>
			<point x="160" y="1493"/>
			<point x="185" y="1500"/>
			<point x="230" y="1500" type="curve" smooth="yes"/>
			<point x="770" y="1500" type="line" smooth="yes"/>
			<point x="827" y="1500"/>
			<point x="850" y="1494"/>
			<point x="850" y="1432" type="curve" smooth="yes"/>
			<point x="850" y="1278" type="line" smooth="yes"/>
			<point x="850" y="1235"/>
			<point x="844" y="1230"/>
			<point x="803" y="1230" type="curve" smooth="yes"/>
			<point x="793" y="1230" type="line" smooth="yes"/>
			<point x="767" y="1230"/>
			<point x="737" y="1223"/>
			<point x="730" y="1188" type="curve" smooth="yes"/>
			<point x="680" y="950" type="line" smooth="yes"/>
			<point x="671" y="908"/>
			<point x="692" y="900"/>
			<point x="742" y="900" type="curve" smooth="yes"/>
			<point x="867" y="900" type="line" smooth="yes"/>
			<point x="917" y="900"/>
			<point x="910" y="913"/>
			<point x="920" y="962" type="curve" smooth="yes"/>
			<point x="970" y="1196" type="line" smooth="yes"/>
			<point x="977" y="1227"/>
			<point x="968" y="1230"/>
			<point x="945" y="1230" type="curve" smooth="yes"/>
			<point x="937" y="1230" type="line" smooth="yes"/>
			<point x="897" y="1230"/>
			<point x="890" y="1233"/>
			<point x="890" y="1282" type="curve" smooth="yes"/>
			<point x="890" y="1439" type="line" smooth="yes"/>
			<point x="890" y="1493"/>
			<point x="898" y="1500"/>
			<point x="950" y="1500" type="curve" smooth="yes"/>
			<point x="1520" y="1500" type="line" smooth="yes"/>
			<point x="1558" y="1500"/>
			<point x="1580" y="1493"/>
			<point x="1580" y="1461" type="curve" smooth="yes"/>
			<point x="1580" y="1288" type="line" smooth="yes"/>
			<point x="1580" y="1249"/>
			<point x="1572" y="1230"/>
			<point x="1530" y="1230" type="curve" smooth="yes"/>
			<point x="1481" y="1230" type="line" smooth="yes"/>
			<point x="1443" y="1230"/>
			<point x="1448" y="1216"/>
			<point x="1440" y="1179" type="curve" smooth="yes"/>
			<point x="1250" y="320" type="line" smooth="yes"/>
			<point x="1242" y="284"/>
			<point x="1231" y="270"/>
			<point x="1269" y="270" type="curve" smooth="yes"/>
			<point x="1299" y="270" type="line" smooth="yes"/>
			<point x="1344" y="270"/>
			<point x="1350" y="260"/>
			<point x="1350" y="213" type="curve" smooth="yes"/>
			<point x="1350" y="81" type="line" smooth="yes"/>
			<point x="1350" y="8"/>
			<point x="1341" y="0"/>
			<point x="1270" y="0" type="curve" smooth="yes"/>
			<point x="740" y="0" type="line" smooth="yes"/>
			<point x="681" y="0"/>
			<point x="660" y="7"/>
			<point x="660" y="70" type="curve" smooth="yes"/>
			<point x="660" y="225" type="line" smooth="yes"/>
			<point x="660" y="263"/>
			<point x="673" y="270"/>
			<point x="709" y="270" type="curve" smooth="yes"/>
			<point x="718" y="270" type="line" smooth="yes"/>
			<point x="745" y="270"/>
			<point x="770" y="273"/>
			<point x="780" y="318" type="curve" smooth="yes"/>
			<point x="845" y="599" type="line" smooth="yes"/>
			<point x="854" y="640"/>
			<point x="846" y="650"/>
			<point x="806" y="650" type="curve" smooth="yes"/>
			<point x="662" y="650" type="line" smooth="yes"/>
			<point x="621" y="650"/>
			<point x="615" y="638"/>
			<point x="605" y="597" type="curve" smooth="yes"/>
			<point x="540" y="329" type="line" smooth="yes"/>
			<point x="530" y="287"/>
			<point x="531" y="270"/>
			<point x="575" y="270" type="curve" smooth="yes"/>
			<point x="577" y="270" type="line" smooth="yes"/>
			<point x="607" y="270"/>
			<point x="620" y="267"/>
			<point x="620" y="228" type="curve" smooth="yes"/>
			<point x="620" y="65" type="line" smooth="yes"/>
			<point x="620" y="6"/>
			<point x="594" y="0"/>
			<point x="540" y="0" type="curve" smooth="yes"/>
			<point x="0" y="0" type="line" smooth="yes"/>
			<point x="-58" y="0"/>
			<point x="-70" y="6"/>
		</contour>
	</outline>
</glyph>
<glyph name="I" format="2">
	<advance width="770" height="0"/>
	<unicode hex="0049"/>
	<anchor x="565" y="1500" name="Anchor-0"/>
	<anchor x="242" y="0" name="Anchor-1"/>
	<anchor x="242" y="0" name="Anchor-2"/>
	<anchor x="242" y="0" name="Anchor-3"/>
	<outline>
		<contour>
			<point x="-70" y="56" type="curve" smooth="yes"/>
			<point x="-70" y="221" type="line" smooth="yes"/>
			<point x="-70" y="266"/>
			<point x="-57" y="270"/>
			<point x="-15" y="270" type="curve" smooth="yes"/>
			<point x="43" y="270" type="line" smooth="yes"/>
			<point x="81" y="270"/>
			<point x="81" y="278"/>
			<point x="90" y="317" type="curve" smooth="yes"/>
			<point x="280" y="1176" type="line" smooth="yes"/>
			<point x="289" y="1217"/>
			<point x="278" y="1230"/>
			<point x="235" y="1230" type="curve" smooth="yes"/>
			<point x="213" y="1230" type="line" smooth="yes"/>
			<point x="172" y="1230"/>
			<point x="160" y="1234"/>
			<point x="160" y="1278" type="curve" smooth="yes"/>
			<point x="160" y="1443" type="line" smooth="yes"/>
			<point x="160" y="1491"/>
			<point x="162" y="1500"/>
			<point x="210" y="1500" type="curve" smooth="yes"/>
			<point x="856" y="1500" type="line" smooth="yes"/>
			<point x="904" y="1500"/>
			<point x="910" y="1489"/>
			<point x="910" y="1444" type="curve" smooth="yes"/>
			<point x="910" y="1284" type="line" smooth="yes"/>
			<point x="910" y="1236"/>
			<point x="903" y="1230"/>
			<point x="857" y="1230" type="curve" smooth="yes"/>
			<point x="800" y="1230" type="line" smooth="yes"/>
			<point x="756" y="1230"/>
			<point x="759" y="1218"/>
			<point x="750" y="1178" type="curve" smooth="yes"/>
			<point x="560" y="314" type="line" smooth="yes"/>
			<point x="551" y="273"/>
			<point x="570" y="270"/>
			<point x="614" y="270" type="curve" smooth="yes"/>
			<point x="632" y="270" type="line" smooth="yes"/>
			<point x="665" y="270"/>
			<point x="680" y="269"/>
			<point x="680" y="236" type="curve" smooth="yes"/>
			<point x="680" y="50" type="line" smooth="yes"/>
			<point x="680" y="5"/>
			<point x="674" y="0"/>
			<point x="630" y="0" type="curve" smooth="yes"/>
			<point x="-20" y="0" type="line" smooth="yes"/>
			<point x="-66" y="0"/>
			<point x="-70" y="9"/>
		</contour>
	</outline>
</glyph>
<glyph name="J" format="2">
	<advance width="1112" height="0"/>
	<unicode hex="004A"/>
	<anchor x="895" y="1500" name="Anchor-0"/>
	<anchor x="288" y="0" name="Anchor-1"/>
	<anchor x="288" y="0" name="Anchor-2"/>
	<outline>
		<contour>
			<point x="-50" y="390" type="curve" smooth="yes"/>
			<point x="-50" y="594"/>
			<point x="38" y="740"/>
			<point x="218" y="740" type="curve" smooth="yes"/>
			<point x="372" y="740"/>
			<point x="446" y="648"/>
			<point x="446" y="522" type="curve" smooth="yes"/>
			<point x="446" y="342"/>
			<point x="340" y="304"/>
			<point x="340" y="248" type="curve" smooth="yes"/>
			<point x="340" y="214"/>
			<point x="368" y="190"/>
			<point x="402" y="190" type="curve" smooth="yes"/>
			<point x="454" y="190"/>
			<point x="456" y="270"/>
			<point x="502" y="480" type="curve" smooth="yes"/>
			<point x="654" y="1172" type="line" smooth="yes"/>
			<point x="666" y="1225"/>
			<point x="641" y="1230"/>
			<point x="585" y="1230" type="curve" smooth="yes"/>
			<point x="512" y="1230" type="line" smooth="yes"/>
			<point x="468" y="1230"/>
			<point x="454" y="1231"/>
			<point x="454" y="1278" type="curve" smooth="yes"/>
			<point x="454" y="1442" type="line" smooth="yes"/>
			<point x="454" y="1491"/>
			<point x="455" y="1500"/>
			<point x="504" y="1500" type="curve" smooth="yes"/>
			<point x="1214" y="1500" type="line" smooth="yes"/>
			<point x="1256" y="1500"/>
			<point x="1264" y="1493"/>
			<point x="1264" y="1449" type="curve" smooth="yes"/>
			<point x="1264" y="1272" type="line" smooth="yes"/>
			<point x="1264" y="1231"/>
			<point x="1252" y="1230"/>
			<point x="1211" y="1230" type="curve" smooth="yes"/>
			<point x="1142" y="1230" type="line" smooth="yes"/>
			<point x="1107" y="1230"/>
			<point x="1112" y="1215"/>
			<point x="1104" y="1181" type="curve" smooth="yes"/>
			<point x="962" y="540" type="line" smooth="yes"/>
			<point x="877" y="180"/>
			<point x="714" y="-40"/>
			<point x="382" y="-40" type="curve" smooth="yes"/>
			<point x="68" y="-40"/>
			<point x="-50" y="170"/>
		</contour>
	</outline>
</glyph>
<glyph name="K" format="2">
	<advance width="1480" height="0"/>
	<unicode hex="004B"/>
	<anchor x="885" y="1500" name="Anchor-0"/>
	<anchor x="640" y="0" name="Anchor-1"/>
	<anchor x="640" y="0" name="Anchor-2"/>
	<outline>
		<contour>
			<point x="-60" y="48" type="curve" smooth="yes"/>
			<point x="-60" y="215" type="line" smooth="yes"/>
			<point x="-60" y="266"/>
			<point x="-51" y="270"/>
			<point x="-2" y="270" type="curve" smooth="yes"/>
			<point x="16" y="270" type="line" smooth="yes"/>
			<point x="64" y="270"/>
			<point x="63" y="274"/>
			<point x="71" y="312" type="curve" smooth="yes"/>
			<point x="260" y="1174" type="line" smooth="yes"/>
			<point x="271" y="1226"/>
			<point x="266" y="1230"/>
			<point x="206" y="1230" type="curve" smooth="yes"/>
			<point x="222" y="1230" type="line" smooth="yes"/>
			<point x="184" y="1230"/>
			<point x="170" y="1231"/>
			<point x="170" y="1272" type="curve" smooth="yes"/>
			<point x="170" y="1462" type="line" smooth="yes"/>
			<point x="170" y="1493"/>
			<point x="174" y="1500"/>
			<point x="204" y="1500" type="curve" smooth="yes"/>
			<point x="818" y="1500" type="line" smooth="yes"/>
			<point x="863" y="1500"/>
			<point x="882" y="1496"/>
			<point x="882" y="1447" type="curve" smooth="yes"/>
			<point x="882" y="1270" type="line" smooth="yes"/>
			<point x="882" y="1226"/>
			<point x="871" y="1224"/>
			<point x="830" y="1224" type="curve" smooth="yes"/>
			<point x="806" y="1224" type="line" smooth="yes"/>
			<point x="752" y="1224"/>
			<point x="738" y="1205"/>
			<point x="729" y="1164" type="curve" smooth="yes"/>
			<point x="672" y="906" type="line" smooth="yes"/>
			<point x="665" y="873"/>
			<point x="687" y="858"/>
			<point x="719" y="895" type="curve" smooth="yes"/>
			<point x="964" y="1173" type="line" smooth="yes"/>
			<point x="989" y="1204"/>
			<point x="995" y="1224"/>
			<point x="970" y="1224" type="curve" smooth="yes"/>
			<point x="954" y="1224" type="line" smooth="yes"/>
			<point x="921" y="1224"/>
			<point x="916" y="1231"/>
			<point x="916" y="1262" type="curve" smooth="yes"/>
			<point x="916" y="1450" type="line" smooth="yes"/>
			<point x="916" y="1499"/>
			<point x="941" y="1500"/>
			<point x="986" y="1500" type="curve" smooth="yes"/>
			<point x="1547" y="1500" type="line" smooth="yes"/>
			<point x="1595" y="1500"/>
			<point x="1595" y="1500"/>
			<point x="1595" y="1452" type="curve" smooth="yes"/>
			<point x="1595" y="1272" type="line" smooth="yes"/>
			<point x="1595" y="1231"/>
			<point x="1591" y="1224"/>
			<point x="1551" y="1224" type="curve" smooth="yes"/>
			<point x="1480" y="1224" type="line" smooth="yes"/>
			<point x="1428" y="1224"/>
			<point x="1412" y="1222"/>
			<point x="1390" y="1196" type="curve" smooth="yes"/>
			<point x="1088" y="845" type="line" smooth="yes"/>
			<point x="1041" y="790"/>
			<point x="1073" y="808"/>
			<point x="1128" y="775" type="curve" smooth="yes"/>
			<point x="1374" y="630"/>
			<point x="1134" y="270"/>
			<point x="1316" y="270" type="curve" smooth="yes"/>
			<point x="1346" y="270" type="line" smooth="yes"/>
			<point x="1387" y="270"/>
			<point x="1394" y="265"/>
			<point x="1394" y="222" type="curve" smooth="yes"/>
			<point x="1394" y="52" type="line" smooth="yes"/>
			<point x="1394" y="2"/>
			<point x="1383" y="0"/>
			<point x="1336" y="0" type="curve" smooth="yes"/>
			<point x="1094" y="0" type="line" smooth="yes"/>
			<point x="566" y="0"/>
			<point x="818" y="319"/>
			<point x="761" y="566" type="curve" smooth="yes"/>
			<point x="748" y="623"/>
			<point x="726" y="611"/>
			<point x="696" y="574" type="curve" smooth="yes"/>
			<point x="584" y="437" type="line" smooth="yes"/>
			<point x="569" y="419"/>
			<point x="555" y="413"/>
			<point x="549" y="384" type="curve" smooth="yes"/>
			<point x="534" y="318" type="line" smooth="yes"/>
			<point x="525" y="276"/>
			<point x="516" y="270"/>
			<point x="570" y="270" type="curve" smooth="yes"/>
			<point x="574" y="270" type="line" smooth="yes"/>
			<point x="602" y="270"/>
			<point x="612" y="266"/>
			<point x="612" y="236" type="curve" smooth="yes"/>
			<point x="612" y="46" type="line" smooth="yes"/>
			<point x="612" y="0"/>
			<point x="597" y="0"/>
			<point x="554" y="0" type="curve" smooth="yes"/>
			<point x="-22" y="0" type="line" smooth="yes"/>
			<point x="-60" y="0"/>
			<point x="-60" y="10"/>
		</contour>
	</outline>
</glyph>
<glyph name="L" format="2">
	<advance width="1100" height="0"/>
	<unicode hex="004C"/>
	<anchor x="543" y="1500" name="Anchor-0"/>
	<anchor x="406" y="0" name="Anchor-1"/>
	<anchor x="406" y="0" name="Anchor-2"/>
	<outline>
		<contour>
			<point x="-80" y="48" type="curve" smooth="yes"/>
			<point x="-80" y="234" type="line" smooth="yes"/>
			<point x="-80" y="261"/>
			<point x="-77" y="270"/>
			<point x="-51" y="270" type="curve" smooth="yes"/>
			<point x="7" y="270" type="line" smooth="yes"/>
			<point x="41" y="270"/>
			<point x="60" y="279"/>
			<point x="70" y="323" type="curve" smooth="yes"/>
			<point x="260" y="1180" type="line" smooth="yes"/>
			<point x="269" y="1219"/>
			<point x="257" y="1230"/>
			<point x="217" y="1230" type="curve" smooth="yes"/>
			<point x="205" y="1230" type="line" smooth="yes"/>
			<point x="175" y="1230"/>
			<point x="170" y="1236"/>
			<point x="170" y="1268" type="curve" smooth="yes"/>
			<point x="170" y="1446" type="line" smooth="yes"/>
			<point x="170" y="1491"/>
			<point x="172" y="1500"/>
			<point x="217" y="1500" type="curve" smooth="yes"/>
			<point x="851" y="1500" type="line" smooth="yes"/>
			<point x="891" y="1500"/>
			<point x="920" y="1495"/>
			<point x="920" y="1452" type="curve" smooth="yes"/>
			<point x="920" y="1278" type="line" smooth="yes"/>
			<point x="920" y="1234"/>
			<point x="908" y="1230"/>
			<point x="867" y="1230" type="curve" smooth="yes"/>
			<point x="799" y="1230" type="line" smooth="yes"/>
			<point x="760" y="1230"/>
			<point x="738" y="1227"/>
			<point x="730" y="1190" type="curve" smooth="yes"/>
			<point x="540" y="326" type="line" smooth="yes"/>
			<point x="530" y="281"/>
			<point x="542" y="270"/>
			<point x="589" y="270" type="curve" smooth="yes"/>
			<point x="610" y="270" type="line" smooth="yes"/>
			<point x="733" y="270"/>
			<point x="753" y="348"/>
			<point x="844" y="646" type="curve" smooth="yes"/>
			<point x="856" y="685"/>
			<point x="873" y="690"/>
			<point x="916" y="690" type="curve" smooth="yes"/>
			<point x="1034" y="690" type="line" smooth="yes"/>
			<point x="1067" y="690"/>
			<point x="1085" y="686"/>
			<point x="1085" y="654" type="curve" smooth="yes"/>
			<point x="950" y="52" type="line" smooth="yes"/>
			<point x="941" y="11"/>
			<point x="917" y="0"/>
			<point x="875" y="0" type="curve" smooth="yes"/>
			<point x="-35" y="0" type="line" smooth="yes"/>
			<point x="-75" y="0"/>
			<point x="-80" y="6"/>
		</contour>
	</outline>
</glyph>
<glyph name="M" format="2">
	<advance width="1830" height="0"/>
	<unicode hex="004D"/>
	<anchor x="1105" y="1500" name="Anchor-0"/>
	<anchor x="696" y="0" name="Anchor-1"/>
	<anchor x="696" y="0" name="Anchor-2"/>
	<outline>
		<contour>
			<point x="1254" y="833" type="curve" smooth="yes"/>
			<point x="907" y="21" type="line" smooth="yes"/>
			<point x="889" y="-21"/>
			<point x="885" y="-30"/>
			<point x="826" y="-30" type="curve" smooth="yes"/>
			<point x="586" y="-30" type="line" smooth="yes"/>
			<point x="527" y="-30"/>
			<point x="501" y="-20"/>
			<point x="504" y="21" type="curve" smooth="yes"/>
			<point x="577" y="887" type="line" smooth="yes"/>
			<point x="583" y="963"/>
			<point x="602" y="1098"/>
			<point x="576" y="1097" type="curve" smooth="yes"/>
			<point x="558" y="1096"/>
			<point x="549" y="1041"/>
			<point x="531" y="973" type="curve" smooth="yes"/>
			<point x="362" y="341" type="line" smooth="yes"/>
			<point x="350" y="296"/>
			<point x="349" y="270"/>
			<point x="404" y="270" type="curve" smooth="yes"/>
			<point x="406" y="270" type="line" smooth="yes"/>
			<point x="443" y="270"/>
			<point x="450" y="263"/>
			<point x="450" y="225" type="curve" smooth="yes"/>
			<point x="450" y="51" type="line" smooth="yes"/>
			<point x="450" y="2"/>
			<point x="438" y="0"/>
			<point x="392" y="0" type="curve" smooth="yes"/>
			<point x="-28" y="0" type="line" smooth="yes"/>
			<point x="-75" y="0"/>
			<point x="-80" y="6"/>
			<point x="-80" y="55" type="curve" smooth="yes"/>
			<point x="-80" y="235" type="line" smooth="yes"/>
			<point x="-80" y="263"/>
			<point x="-77" y="270"/>
			<point x="-50" y="270" type="curve" smooth="yes"/>
			<point x="8" y="270" type="line" smooth="yes"/>
			<point x="68" y="270"/>
			<point x="81" y="297"/>
			<point x="95" y="347" type="curve" smooth="yes"/>
			<point x="329" y="1195" type="line" smooth="yes"/>
			<point x="338" y="1226"/>
			<point x="324" y="1230"/>
			<point x="292" y="1230" type="curve" smooth="yes"/>
			<point x="288" y="1230" type="line" smooth="yes"/>
			<point x="251" y="1230"/>
			<point x="240" y="1249"/>
			<point x="240" y="1287" type="curve" smooth="yes"/>
			<point x="240" y="1439" type="line" smooth="yes"/>
			<point x="240" y="1480"/>
			<point x="258" y="1500"/>
			<point x="296" y="1500" type="curve" smooth="yes"/>
			<point x="931" y="1500" type="line" smooth="yes"/>
			<point x="1010" y="1500"/>
			<point x="1024" y="1471"/>
			<point x="1020" y="1417" type="curve" smooth="yes"/>
			<point x="986" y="989" type="line" smooth="yes"/>
			<point x="981" y="925"/>
			<point x="969" y="853"/>
			<point x="989" y="853" type="curve" smooth="yes"/>
			<point x="1011" y="853"/>
			<point x="1030" y="891"/>
			<point x="1056" y="957" type="curve" smooth="yes"/>
			<point x="1257" y="1459" type="line" smooth="yes"/>
			<point x="1271" y="1496"/>
			<point x="1302" y="1500"/>
			<point x="1354" y="1500" type="curve" smooth="yes"/>
			<point x="1850" y="1500" type="line" smooth="yes"/>
			<point x="1901" y="1500"/>
			<point x="1930" y="1492"/>
			<point x="1930" y="1437" type="curve" smooth="yes"/>
			<point x="1930" y="1291" type="line" smooth="yes"/>
			<point x="1930" y="1242"/>
			<point x="1922" y="1230"/>
			<point x="1872" y="1230" type="curve" smooth="yes"/>
			<point x="1840" y="1230" type="line" smooth="yes"/>
			<point x="1797" y="1230"/>
			<point x="1797" y="1226"/>
			<point x="1790" y="1187" type="curve" smooth="yes"/>
			<point x="1630" y="311" type="line" smooth="yes"/>
			<point x="1624" y="277"/>
			<point x="1626" y="270"/>
			<point x="1664" y="270" type="curve" smooth="yes"/>
			<point x="1694" y="270" type="line" smooth="yes"/>
			<point x="1727" y="270"/>
			<point x="1730" y="253"/>
			<point x="1730" y="219" type="curve" smooth="yes"/>
			<point x="1730" y="55" type="line" smooth="yes"/>
			<point x="1730" y="12"/>
			<point x="1718" y="0"/>
			<point x="1672" y="0" type="curve" smooth="yes"/>
			<point x="1106" y="0" type="line" smooth="yes"/>
			<point x="1062" y="0"/>
			<point x="1060" y="8"/>
			<point x="1060" y="53" type="curve" smooth="yes"/>
			<point x="1060" y="223" type="line" smooth="yes"/>
			<point x="1060" y="268"/>
			<point x="1072" y="270"/>
			<point x="1114" y="270" type="curve" smooth="yes"/>
			<point x="1140" y="270" type="line" smooth="yes"/>
			<point x="1182" y="270"/>
			<point x="1194" y="282"/>
			<point x="1202" y="322" type="curve" smooth="yes"/>
			<point x="1270" y="683" type="line" smooth="yes"/>
			<point x="1295" y="817"/>
			<point x="1357" y="957"/>
			<point x="1320" y="957" type="curve" smooth="yes"/>
			<point x="1295" y="957"/>
			<point x="1291" y="919"/>
		</contour>
	</outline>
</glyph>
<glyph name="N" format="2">
	<advance width="1250" height="0"/>
	<unicode hex="004E"/>
	<anchor x="735" y="1500" name="Anchor-0"/>
	<anchor x="486" y="0" name="Anchor-1"/>
	<anchor x="486" y="0" name="Anchor-2"/>
	<outline>
		<contour>
			<point x="199" y="1230" type="curve" smooth="yes"/>
			<point x="185" y="1230" type="line" smooth="yes"/>
			<point x="150" y="1230"/>
			<point x="140" y="1233"/>
			<point x="140" y="1267" type="curve" smooth="yes"/>
			<point x="140" y="1436" type="line" smooth="yes"/>
			<point x="140" y="1494"/>
			<point x="149" y="1500"/>
			<point x="205" y="1500" type="curve" smooth="yes"/>
			<point x="647" y="1500" type="line" smooth="yes"/>
			<point x="720" y="1500"/>
			<point x="759" y="1500"/>
			<point x="768" y="1459" type="curve" smooth="yes"/>
			<point x="890" y="899" type="line" smooth="yes"/>
			<point x="894" y="880"/>
			<point x="904" y="866"/>
			<point x="912" y="866" type="curve" smooth="yes"/>
			<point x="921" y="866"/>
			<point x="931" y="880"/>
			<point x="940" y="927" type="curve" smooth="yes"/>
			<point x="990" y="1191" type="line" smooth="yes"/>
			<point x="995" y="1219"/>
			<point x="987" y="1230"/>
			<point x="959" y="1230" type="curve" smooth="yes"/>
			<point x="945" y="1230" type="line" smooth="yes"/>
			<point x="901" y="1230"/>
			<point x="900" y="1241"/>
			<point x="900" y="1285" type="curve" smooth="yes"/>
			<point x="900" y="1449" type="line" smooth="yes"/>
			<point x="900" y="1497"/>
			<point x="914" y="1500"/>
			<point x="959" y="1500" type="curve" smooth="yes"/>
			<point x="1363" y="1500" type="line" smooth="yes"/>
			<point x="1390" y="1500"/>
			<point x="1400" y="1494"/>
			<point x="1400" y="1465" type="curve" smooth="yes"/>
			<point x="1400" y="1293" type="line" smooth="yes"/>
			<point x="1400" y="1234"/>
			<point x="1391" y="1230"/>
			<point x="1351" y="1230" type="curve" smooth="yes"/>
			<point x="1315" y="1230" type="line" smooth="yes"/>
			<point x="1278" y="1230"/>
			<point x="1268" y="1215"/>
			<point x="1260" y="1181" type="curve" smooth="yes"/>
			<point x="1000" y="10" type="line" smooth="yes"/>
			<point x="992" y="-25"/>
			<point x="981" y="-30"/>
			<point x="943" y="-30" type="curve" smooth="yes"/>
			<point x="660" y="-30" type="line" smooth="yes"/>
			<point x="600" y="-30"/>
			<point x="566" y="-13"/>
			<point x="559" y="37" type="curve" smooth="yes"/>
			<point x="469" y="663" type="line" smooth="yes"/>
			<point x="466" y="684"/>
			<point x="454" y="696"/>
			<point x="440" y="696" type="curve" smooth="yes"/>
			<point x="426" y="696"/>
			<point x="410" y="675"/>
			<point x="400" y="631" type="curve" smooth="yes"/>
			<point x="330" y="325" type="line" smooth="yes"/>
			<point x="320" y="280"/>
			<point x="335" y="270"/>
			<point x="381" y="270" type="curve" smooth="yes"/>
			<point x="395" y="270" type="line" smooth="yes"/>
			<point x="423" y="270"/>
			<point x="430" y="262"/>
			<point x="430" y="232" type="curve" smooth="yes"/>
			<point x="430" y="50" type="line" smooth="yes"/>
			<point x="430" y="1"/>
			<point x="403" y="0"/>
			<point x="359" y="0" type="curve" smooth="yes"/>
			<point x="-13" y="0" type="line" smooth="yes"/>
			<point x="-71" y="0"/>
			<point x="-80" y="5"/>
			<point x="-80" y="65" type="curve" smooth="yes"/>
			<point x="-80" y="209" type="line" smooth="yes"/>
			<point x="-80" y="259"/>
			<point x="-69" y="270"/>
			<point x="-19" y="270" type="curve" smooth="yes"/>
			<point x="9" y="270" type="line" smooth="yes"/>
			<point x="55" y="270"/>
			<point x="50" y="281"/>
			<point x="60" y="326" type="curve" smooth="yes"/>
			<point x="250" y="1179" type="line" smooth="yes"/>
			<point x="261" y="1228"/>
			<point x="240" y="1230"/>
		</contour>
	</outline>
</glyph>
<glyph name="O" format="2">
	<advance width="1240" height="0"/>
	<unicode hex="004F"/>
	<anchor x="815" y="1500" name="Anchor-0"/>
	<anchor x="516" y="0" name="Anchor-1"/>
	<anchor x="516" y="0" name="Anchor-2"/>
	<outline>
		<contour>
			<point x="811" y="1540" type="line"/>
			<point x="1144" y="1540"/>
			<point x="1298" y="1351"/>
			<point x="1298" y="1067" type="curve" smooth="yes"/>
			<point x="1298" y="450"/>
			<point x="1011" y="-40"/>
			<point x="501" y="-40" type="curve"/>
			<point x="538" y="220" type="line"/>
			<point x="679" y="220"/>
			<point x="832" y="919"/>
			<point x="832" y="1181" type="curve" smooth="yes"/>
			<point x="832" y="1255"/>
			<point x="812" y="1280"/>
			<point x="774" y="1280" type="curve"/>
		</contour>
		<contour>
			<point x="501" y="-40" type="line"/>
			<point x="168" y="-40"/>
			<point x="14" y="149"/>
			<point x="14" y="433" type="curve" smooth="yes"/>
			<point x="14" y="1050"/>
			<point x="301" y="1540"/>
			<point x="811" y="1540" type="curve"/>
			<point x="774" y="1280" type="line"/>
			<point x="633" y="1280"/>
			<point x="480" y="581"/>
			<point x="480" y="319" type="curve" smooth="yes"/>
			<point x="480" y="245"/>
			<point x="500" y="220"/>
			<point x="538" y="220" type="curve"/>
		</contour>
	</outline>
</glyph>
<glyph name="P" format="2">
	<advance width="1230" height="0"/>
	<unicode hex="0050"/>
	<anchor x="755" y="1500" name="Anchor-0"/>
	<anchor x="242" y="0" name="Anchor-1"/>
	<anchor x="242" y="0" name="Anchor-2"/>
	<outline>
		<contour>
			<point x="692" y="830" type="curve" smooth="yes"/>
			<point x="700" y="830" type="line" smooth="yes"/>
			<point x="782" y="830"/>
			<point x="840" y="1042"/>
			<point x="840" y="1150" type="curve" smooth="yes"/>
			<point x="840" y="1208"/>
			<point x="832" y="1230"/>
			<point x="780" y="1230" type="curve" smooth="yes"/>
			<point x="776" y="1230" type="line" smooth="yes"/>
			<point x="741" y="1230"/>
			<point x="737" y="1219"/>
			<point x="730" y="1186" type="curve" smooth="yes"/>
			<point x="660" y="874" type="line" smooth="yes"/>
			<point x="652" y="838"/>
			<point x="655" y="830"/>
		</contour>
		<contour>
			<point x="584" y="508" type="curve" smooth="yes"/>
			<point x="540" y="318" type="line" smooth="yes"/>
			<point x="530" y="276"/>
			<point x="547" y="270"/>
			<point x="592" y="270" type="curve" smooth="yes"/>
			<point x="661" y="270" type="line" smooth="yes"/>
			<point x="703" y="270"/>
			<point x="705" y="262"/>
			<point x="705" y="220" type="curve" smooth="yes"/>
			<point x="705" y="56" type="line" smooth="yes"/>
			<point x="705" y="10"/>
			<point x="705" y="0"/>
			<point x="659" y="0" type="curve" smooth="yes"/>
			<point x="3" y="0" type="line" smooth="yes"/>
			<point x="-37" y="0"/>
			<point x="-45" y="4"/>
			<point x="-45" y="46" type="curve" smooth="yes"/>
			<point x="-45" y="220" type="line" smooth="yes"/>
			<point x="-45" y="263"/>
			<point x="-41" y="270"/>
			<point x="1" y="270" type="curve" smooth="yes"/>
			<point x="17" y="270" type="line" smooth="yes"/>
			<point x="73" y="270"/>
			<point x="64" y="282"/>
			<point x="75" y="334" type="curve" smooth="yes"/>
			<point x="260" y="1182" type="line" smooth="yes"/>
			<point x="270" y="1227"/>
			<point x="251" y="1230"/>
			<point x="204" y="1230" type="curve" smooth="yes"/>
			<point x="194" y="1230" type="line" smooth="yes"/>
			<point x="148" y="1230"/>
			<point x="140" y="1232"/>
			<point x="140" y="1278" type="curve" smooth="yes"/>
			<point x="140" y="1448" type="line" smooth="yes"/>
			<point x="140" y="1496"/>
			<point x="151" y="1500"/>
			<point x="196" y="1500" type="curve" smooth="yes"/>
			<point x="810" y="1500" type="line" smooth="yes"/>
			<point x="1172" y="1500"/>
			<point x="1340" y="1440"/>
			<point x="1340" y="1200" type="curve" smooth="yes"/>
			<point x="1340" y="770"/>
			<point x="1062" y="560"/>
			<point x="700" y="560" type="curve" smooth="yes"/>
			<point x="644" y="560" type="line" smooth="yes"/>
			<point x="601" y="560"/>
			<point x="593" y="549"/>
		</contour>
	</outline>
</glyph>
<glyph name="Q" format="2">
	<advance width="1240" height="0"/>
	<unicode hex="0051"/>
	<anchor x="815" y="1500" name="Anchor-0"/>
	<outline>
		<contour>
			<point x="480" y="321" type="curve" smooth="yes"/>
			<point x="480" y="246"/>
			<point x="491" y="220"/>
			<point x="529" y="220" type="curve" smooth="yes"/>
			<point x="670" y="220"/>
			<point x="832" y="919"/>
			<point x="832" y="1181" type="curve" smooth="yes"/>
			<point x="832" y="1255"/>
			<point x="812" y="1280"/>
			<point x="774" y="1280" type="curve" smooth="yes"/>
			<point x="645" y="1280"/>
			<point x="480" y="585"/>
		</contour>
		<contour>
			<point x="-40" y="-308" type="curve" smooth="yes"/>
			<point x="-40" y="-78"/>
			<point x="200" y="-54"/>
			<point x="358" y="-54" type="curve" smooth="yes"/>
			<point x="717" y="-54"/>
			<point x="663" y="-338"/>
			<point x="738" y="-338" type="curve" smooth="yes"/>
			<point x="762" y="-338"/>
			<point x="768" y="-332"/>
			<point x="768" y="-320" type="curve" smooth="yes"/>
			<point x="768" y="-290"/>
			<point x="726" y="-312"/>
			<point x="726" y="-220" type="curve" smooth="yes"/>
			<point x="726" y="-136"/>
			<point x="802" y="-54"/>
			<point x="916" y="-54" type="curve" smooth="yes"/>
			<point x="1030" y="-54"/>
			<point x="1128" y="-128"/>
			<point x="1128" y="-236" type="curve" smooth="yes"/>
			<point x="1128" y="-486"/>
			<point x="898" y="-500"/>
			<point x="740" y="-500" type="curve" smooth="yes"/>
			<point x="361" y="-500"/>
			<point x="471" y="-216"/>
			<point x="356" y="-216" type="curve" smooth="yes"/>
			<point x="334" y="-216"/>
			<point x="326" y="-218"/>
			<point x="326" y="-230" type="curve" smooth="yes"/>
			<point x="326" y="-254"/>
			<point x="372" y="-242"/>
			<point x="372" y="-334" type="curve" smooth="yes"/>
			<point x="372" y="-418"/>
			<point x="312" y="-500"/>
			<point x="178" y="-500" type="curve" smooth="yes"/>
			<point x="44" y="-500"/>
			<point x="-40" y="-424"/>
		</contour>
		<contour>
			<point x="14" y="433" type="curve" smooth="yes"/>
			<point x="14" y="1050"/>
			<point x="284" y="1540"/>
			<point x="811" y="1540" type="curve" smooth="yes"/>
			<point x="1144" y="1540"/>
			<point x="1298" y="1351"/>
			<point x="1298" y="1067" type="curve" smooth="yes"/>
			<point x="1298" y="450"/>
			<point x="1011" y="-40"/>
			<point x="501" y="-40" type="curve" smooth="yes"/>
			<point x="168" y="-40"/>
			<point x="14" y="149"/>
		</contour>
	</outline>
</glyph>
<glyph name="R" format="2">
	<advance width="1356" height="0"/>
	<unicode hex="0052"/>
	<anchor x="825" y="1500" name="Anchor-0"/>
	<anchor x="556" y="0" name="Anchor-1"/>
	<anchor x="556" y="0" name="Anchor-2"/>
	<outline>
		<contour>
			<point x="1316" y="273" type="curve" smooth="yes"/>
			<point x="1244" y="95"/>
			<point x="1130" y="-40"/>
			<point x="920" y="-40" type="curve" smooth="yes"/>
			<point x="724" y="-40"/>
			<point x="678" y="63"/>
			<point x="678" y="187" type="curve" smooth="yes"/>
			<point x="678" y="304"/>
			<point x="721" y="441"/>
			<point x="721" y="529" type="curve" smooth="yes"/>
			<point x="721" y="584"/>
			<point x="704" y="620"/>
			<point x="650" y="620" type="curve" smooth="yes"/>
			<point x="648" y="620" type="line" smooth="yes"/>
			<point x="610" y="620"/>
			<point x="608" y="608"/>
			<point x="600" y="572" type="curve" smooth="yes"/>
			<point x="540" y="310" type="line" smooth="yes"/>
			<point x="533" y="281"/>
			<point x="541" y="270"/>
			<point x="572" y="270" type="curve" smooth="yes"/>
			<point x="584" y="270" type="line" smooth="yes"/>
			<point x="620" y="270"/>
			<point x="630" y="263"/>
			<point x="630" y="224" type="curve" smooth="yes"/>
			<point x="630" y="72" type="line" smooth="yes"/>
			<point x="630" y="13"/>
			<point x="629" y="0"/>
			<point x="570" y="0" type="curve" smooth="yes"/>
			<point x="-37" y="0" type="line" smooth="yes"/>
			<point x="-71" y="0"/>
			<point x="-80" y="5"/>
			<point x="-80" y="38" type="curve" smooth="yes"/>
			<point x="-80" y="226" type="line" smooth="yes"/>
			<point x="-80" y="263"/>
			<point x="-74" y="270"/>
			<point x="-38" y="270" type="curve" smooth="yes"/>
			<point x="3" y="270" type="line" smooth="yes"/>
			<point x="50" y="270"/>
			<point x="60" y="278"/>
			<point x="70" y="322" type="curve" smooth="yes"/>
			<point x="261" y="1179" type="line" smooth="yes"/>
			<point x="271" y="1223"/>
			<point x="260" y="1230"/>
			<point x="217" y="1230" type="curve" smooth="yes"/>
			<point x="215" y="1230" type="line" smooth="yes"/>
			<point x="173" y="1230"/>
			<point x="171" y="1242"/>
			<point x="171" y="1282" type="curve" smooth="yes"/>
			<point x="171" y="1462" type="line" smooth="yes"/>
			<point x="171" y="1496"/>
			<point x="181" y="1500"/>
			<point x="216" y="1500" type="curve" smooth="yes"/>
			<point x="851" y="1500" type="line" smooth="yes"/>
			<point x="1193" y="1500"/>
			<point x="1310" y="1399"/>
			<point x="1310" y="1209" type="curve" smooth="yes"/>
			<point x="1310" y="948"/>
			<point x="1188" y="815"/>
			<point x="1093" y="732" type="curve" smooth="yes"/>
			<point x="1067" y="710"/>
			<point x="1048" y="702"/>
			<point x="1048" y="691" type="curve" smooth="yes"/>
			<point x="1048" y="685"/>
			<point x="1057" y="678"/>
			<point x="1076" y="668" type="curve" smooth="yes"/>
			<point x="1152" y="626"/>
			<point x="1177" y="575"/>
			<point x="1177" y="525" type="curve" smooth="yes"/>
			<point x="1177" y="452"/>
			<point x="1126" y="375"/>
			<point x="1126" y="334" type="curve" smooth="yes"/>
			<point x="1126" y="316"/>
			<point x="1134" y="308"/>
			<point x="1148" y="308" type="curve" smooth="yes"/>
			<point x="1167" y="308"/>
			<point x="1180" y="324"/>
			<point x="1193" y="358" type="curve" smooth="yes"/>
			<point x="1203" y="384"/>
			<point x="1213" y="388"/>
			<point x="1251" y="374" type="curve" smooth="yes"/>
			<point x="1304" y="354" type="line" smooth="yes"/>
			<point x="1336" y="342"/>
			<point x="1332" y="313"/>
		</contour>
		<contour>
			<point x="705" y="880" type="curve" smooth="yes"/>
			<point x="713" y="880" type="line" smooth="yes"/>
			<point x="795" y="880"/>
			<point x="844" y="1072"/>
			<point x="844" y="1170" type="curve" smooth="yes"/>
			<point x="844" y="1218"/>
			<point x="822" y="1230"/>
			<point x="780" y="1230" type="curve" smooth="yes"/>
			<point x="762" y="1230" type="line" smooth="yes"/>
			<point x="734" y="1230"/>
			<point x="739" y="1219"/>
			<point x="731" y="1182" type="curve" smooth="yes"/>
			<point x="674" y="926" type="line" smooth="yes"/>
			<point x="664" y="879"/>
			<point x="677" y="880"/>
		</contour>
	</outline>
</glyph>
<glyph name="S" format="2">
	<advance width="1070" height="0"/>
	<unicode hex="0053"/>
	<anchor x="735" y="1500" name="Anchor-0"/>
	<anchor x="405" y="0" name="Anchor-1"/>
	<anchor x="405" y="0" name="Anchor-2"/>
	<outline>
		<contour>
			<point x="628" y="1136" type="curve" smooth="yes"/>
			<point x="628" y="916"/>
			<point x="1034" y="940"/>
			<point x="1034" y="490" type="curve" smooth="yes"/>
			<point x="1034" y="143"/>
			<point x="793" y="-40"/>
			<point x="561" y="-40" type="curve" smooth="yes"/>
			<point x="361" y="-40"/>
			<point x="290" y="34"/>
			<point x="254" y="87" type="curve" smooth="yes"/>
			<point x="224" y="131"/>
			<point x="217" y="103"/>
			<point x="175" y="51" type="curve" smooth="yes"/>
			<point x="150" y="17" type="line" smooth="yes"/>
			<point x="132" y="-6"/>
			<point x="114" y="-10"/>
			<point x="77" y="-10" type="curve" smooth="yes"/>
			<point x="-48" y="-10" type="line" smooth="yes"/>
			<point x="-87" y="-10"/>
			<point x="-100" y="-3"/>
			<point x="-92" y="35" type="curve" smooth="yes"/>
			<point x="19" y="537" type="line" smooth="yes"/>
			<point x="28" y="579"/>
			<point x="34" y="590"/>
			<point x="75" y="590" type="curve" smooth="yes"/>
			<point x="201" y="590" type="line" smooth="yes"/>
			<point x="248" y="590"/>
			<point x="253" y="582"/>
			<point x="253" y="541" type="curve" smooth="yes"/>
			<point x="253" y="395"/>
			<point x="309" y="252"/>
			<point x="426" y="252" type="curve" smooth="yes"/>
			<point x="518" y="252"/>
			<point x="572" y="290"/>
			<point x="572" y="390" type="curve" smooth="yes"/>
			<point x="572" y="700"/>
			<point x="170" y="616"/>
			<point x="170" y="1028" type="curve" smooth="yes"/>
			<point x="170" y="1358"/>
			<point x="407" y="1530"/>
			<point x="609" y="1530" type="curve" smooth="yes"/>
			<point x="761" y="1530"/>
			<point x="806" y="1473"/>
			<point x="860" y="1415" type="curve" smooth="yes"/>
			<point x="890" y="1383"/>
			<point x="886" y="1383"/>
			<point x="925" y="1430" type="curve" smooth="yes"/>
			<point x="960" y="1473" type="line" smooth="yes"/>
			<point x="976" y="1492"/>
			<point x="978" y="1500"/>
			<point x="1011" y="1500" type="curve" smooth="yes"/>
			<point x="1165" y="1500" type="line" smooth="yes"/>
			<point x="1200" y="1500"/>
			<point x="1210" y="1491"/>
			<point x="1202" y="1454" type="curve" smooth="yes"/>
			<point x="1103" y="1005" type="line" smooth="yes"/>
			<point x="1092" y="957"/>
			<point x="1084" y="950"/>
			<point x="1034" y="950" type="curve" smooth="yes"/>
			<point x="925" y="950" type="line" smooth="yes"/>
			<point x="859" y="950"/>
			<point x="873" y="966"/>
			<point x="869" y="1017" type="curve" smooth="yes"/>
			<point x="856" y="1173"/>
			<point x="803" y="1228"/>
			<point x="732" y="1228" type="curve" smooth="yes"/>
			<point x="670" y="1228"/>
			<point x="628" y="1195"/>
		</contour>
	</outline>
</glyph>
<glyph name="T" format="2">
	<advance width="1250" height="0"/>
	<unicode hex="0054"/>
	<anchor x="824" y="1500" name="Anchor-0"/>
	<anchor x="526" y="0" name="Anchor-1"/>
	<anchor x="526" y="0" name="Anchor-2"/>
	<outline>
		<contour>
			<point x="190" y="51" type="curve" smooth="yes"/>
			<point x="190" y="220" type="line" smooth="yes"/>
			<point x="190" y="260"/>
			<point x="197" y="270"/>
			<point x="236" y="270" type="curve" smooth="yes"/>
			<point x="298" y="270" type="line" smooth="yes"/>
			<point x="351" y="270"/>
			<point x="349" y="284"/>
			<point x="360" y="335" type="curve" smooth="yes"/>
			<point x="547" y="1202" type="line" smooth="yes"/>
			<point x="552" y="1225"/>
			<point x="551" y="1240"/>
			<point x="526" y="1240" type="curve" smooth="yes"/>
			<point x="520" y="1240" type="line" smooth="yes"/>
			<point x="471" y="1240"/>
			<point x="407" y="1174"/>
			<point x="341" y="927" type="curve" smooth="yes"/>
			<point x="329" y="881"/>
			<point x="326" y="870"/>
			<point x="274" y="870" type="curve" smooth="yes"/>
			<point x="153" y="870" type="line" smooth="yes"/>
			<point x="114" y="870"/>
			<point x="92" y="874"/>
			<point x="100" y="911" type="curve" smooth="yes"/>
			<point x="220" y="1442" type="line" smooth="yes"/>
			<point x="229" y="1483"/>
			<point x="231" y="1500"/>
			<point x="274" y="1500" type="curve" smooth="yes"/>
			<point x="1370" y="1500" type="line" smooth="yes"/>
			<point x="1402" y="1500"/>
			<point x="1417" y="1486"/>
			<point x="1410" y="1452" type="curve" smooth="yes"/>
			<point x="1300" y="927" type="line" smooth="yes"/>
			<point x="1290" y="878"/>
			<point x="1281" y="870"/>
			<point x="1228" y="870" type="curve" smooth="yes"/>
			<point x="1120" y="870" type="line" smooth="yes"/>
			<point x="1068" y="870"/>
			<point x="1049" y="877"/>
			<point x="1059" y="925" type="curve" smooth="yes"/>
			<point x="1113" y="1174"/>
			<point x="1080" y="1240"/>
			<point x="1020" y="1240" type="curve" smooth="yes"/>
			<point x="1008" y="1240" type="line" smooth="yes"/>
			<point x="978" y="1240"/>
			<point x="982" y="1225"/>
			<point x="976" y="1197" type="curve" smooth="yes"/>
			<point x="790" y="350" type="line" smooth="yes"/>
			<point x="777" y="290"/>
			<point x="773" y="270"/>
			<point x="826" y="270" type="curve" smooth="yes"/>
			<point x="843" y="270" type="line" smooth="yes"/>
			<point x="889" y="270"/>
			<point x="900" y="258"/>
			<point x="900" y="215" type="curve" smooth="yes"/>
			<point x="900" y="55" type="line" smooth="yes"/>
			<point x="900" y="7"/>
			<point x="890" y="0"/>
			<point x="844" y="0" type="curve" smooth="yes"/>
			<point x="244" y="0" type="line" smooth="yes"/>
			<point x="202" y="0"/>
			<point x="190" y="6"/>
		</contour>
	</outline>
</glyph>
<glyph name="U" format="2">
	<advance width="1340" height="0"/>
	<unicode hex="0055"/>
	<anchor x="915" y="1500" name="Anchor-0"/>
	<anchor x="546" y="0" name="Anchor-1"/>
	<anchor x="821" y="80" name="Anchor-2"/>
	<anchor x="821" y="80" name="Anchor-3"/>
	<outline>
		<contour>
			<point x="730" y="1164" type="curve" smooth="yes"/>
			<point x="614" y="660" type="line" smooth="yes"/>
			<point x="589" y="550"/>
			<point x="572" y="461"/>
			<point x="572" y="396" type="curve" smooth="yes"/>
			<point x="572" y="301"/>
			<point x="607" y="254"/>
			<point x="700" y="254" type="curve" smooth="yes"/>
			<point x="818" y="254"/>
			<point x="876" y="348"/>
			<point x="932" y="600" type="curve" smooth="yes"/>
			<point x="1060" y="1179" type="line" smooth="yes"/>
			<point x="1068" y="1216"/>
			<point x="1061" y="1230"/>
			<point x="1016" y="1230" type="curve" smooth="yes"/>
			<point x="1010" y="1230" type="line" smooth="yes"/>
			<point x="962" y="1230"/>
			<point x="950" y="1242"/>
			<point x="950" y="1287" type="curve" smooth="yes"/>
			<point x="950" y="1427" type="line" smooth="yes"/>
			<point x="950" y="1481"/>
			<point x="952" y="1500"/>
			<point x="1006" y="1500" type="curve" smooth="yes"/>
			<point x="1442" y="1500" type="line" smooth="yes"/>
			<point x="1485" y="1500"/>
			<point x="1490" y="1491"/>
			<point x="1490" y="1446" type="curve" smooth="yes"/>
			<point x="1490" y="1285" type="line" smooth="yes"/>
			<point x="1490" y="1237"/>
			<point x="1483" y="1230"/>
			<point x="1443" y="1230" type="curve" smooth="yes"/>
			<point x="1432" y="1230" type="line" smooth="yes"/>
			<point x="1380" y="1230"/>
			<point x="1352" y="1220"/>
			<point x="1340" y="1169" type="curve" smooth="yes"/>
			<point x="1210" y="600" type="line" smooth="yes"/>
			<point x="1117" y="191"/>
			<point x="926" y="-40"/>
			<point x="550" y="-40" type="curve" smooth="yes"/>
			<point x="191" y="-40"/>
			<point x="96" y="105"/>
			<point x="96" y="308" type="curve" smooth="yes"/>
			<point x="96" y="402"/>
			<point x="116" y="509"/>
			<point x="140" y="620" type="curve" smooth="yes"/>
			<point x="260" y="1179" type="line"/>
			<point x="266" y="1214"/>
			<point x="266" y="1230"/>
			<point x="226" y="1230" type="curve" smooth="yes"/>
			<point x="220" y="1230" type="line" smooth="yes"/>
			<point x="181" y="1230"/>
			<point x="170" y="1232"/>
			<point x="170" y="1281" type="curve" smooth="yes"/>
			<point x="170" y="1437" type="line" smooth="yes"/>
			<point x="170" y="1486"/>
			<point x="177" y="1500"/>
			<point x="224" y="1500" type="curve" smooth="yes"/>
			<point x="848" y="1500" type="line" smooth="yes"/>
			<point x="885" y="1500"/>
			<point x="890" y="1491"/>
			<point x="890" y="1452" type="curve" smooth="yes"/>
			<point x="890" y="1279" type="line" smooth="yes"/>
			<point x="890" y="1239"/>
			<point x="884" y="1230"/>
			<point x="841" y="1230" type="curve" smooth="yes"/>
			<point x="816" y="1230" type="line" smooth="yes"/>
			<point x="762" y="1230"/>
			<point x="742" y="1216"/>
		</contour>
	</outline>
</glyph>
<glyph name="V" format="2">
	<advance width="1390" height="0"/>
	<unicode hex="0056"/>
	<anchor x="995" y="1500" name="Anchor-0"/>
	<anchor x="582" y="0" name="Anchor-1"/>
	<anchor x="582" y="0" name="Anchor-2"/>
	<outline>
		<contour>
			<point x="313" y="33" type="curve" smooth="yes"/>
			<point x="282" y="1169" type="line" smooth="yes"/>
			<point x="281" y="1207"/>
			<point x="272" y="1230"/>
			<point x="215" y="1230" type="curve" smooth="yes"/>
			<point x="213" y="1230" type="line" smooth="yes"/>
			<point x="178" y="1230"/>
			<point x="160" y="1230"/>
			<point x="160" y="1269" type="curve" smooth="yes"/>
			<point x="160" y="1455" type="line" smooth="yes"/>
			<point x="160" y="1495"/>
			<point x="166" y="1500"/>
			<point x="205" y="1500" type="curve" smooth="yes"/>
			<point x="889" y="1500" type="line" smooth="yes"/>
			<point x="929" y="1500"/>
			<point x="940" y="1491"/>
			<point x="940" y="1451" type="curve" smooth="yes"/>
			<point x="940" y="1273" type="line" smooth="yes"/>
			<point x="940" y="1235"/>
			<point x="934" y="1230"/>
			<point x="897" y="1230" type="curve" smooth="yes"/>
			<point x="883" y="1230" type="line" smooth="yes"/>
			<point x="825" y="1230"/>
			<point x="807" y="1219"/>
			<point x="804" y="1181" type="curve" smooth="yes"/>
			<point x="756" y="497" type="line" smooth="yes"/>
			<point x="755" y="479"/>
			<point x="755" y="470"/>
			<point x="767" y="470" type="curve" smooth="yes"/>
			<point x="788" y="470"/>
			<point x="793" y="482"/>
			<point x="801" y="501" type="curve" smooth="yes"/>
			<point x="1082" y="1187" type="line" smooth="yes"/>
			<point x="1095" y="1219"/>
			<point x="1095" y="1230"/>
			<point x="1079" y="1230" type="curve" smooth="yes"/>
			<point x="1075" y="1230" type="line" smooth="yes"/>
			<point x="1053" y="1230"/>
			<point x="1050" y="1239"/>
			<point x="1050" y="1271" type="curve" smooth="yes"/>
			<point x="1050" y="1463" type="line" smooth="yes"/>
			<point x="1050" y="1496"/>
			<point x="1060" y="1500"/>
			<point x="1091" y="1500" type="curve" smooth="yes"/>
			<point x="1484" y="1500" type="line" smooth="yes"/>
			<point x="1540" y="1500"/>
			<point x="1550" y="1489"/>
			<point x="1550" y="1433" type="curve" smooth="yes"/>
			<point x="1550" y="1279" type="line" smooth="yes"/>
			<point x="1550" y="1245"/>
			<point x="1542" y="1230"/>
			<point x="1504" y="1230" type="curve" smooth="yes"/>
			<point x="1419" y="1230" type="line" smooth="yes"/>
			<point x="1386" y="1230"/>
			<point x="1379" y="1215"/>
			<point x="1369" y="1193" type="curve" smooth="yes"/>
			<point x="842" y="23" type="line" smooth="yes"/>
			<point x="828" y="-8"/>
			<point x="825" y="-10"/>
			<point x="779" y="-10" type="curve" smooth="yes"/>
			<point x="379" y="-10" type="line" smooth="yes"/>
			<point x="342" y="-10"/>
			<point x="314" y="1"/>
		</contour>
	</outline>
</glyph>
<glyph name="W" format="2">
	<advance width="1920" height="0"/>
	<unicode hex="0057"/>
	<anchor x="1265" y="1500" name="Anchor-0"/>
	<anchor x="866" y="0" name="Anchor-1"/>
	<anchor x="866" y="0" name="Anchor-2"/>
	<outline>
		<contour>
			<point x="881" y="936" type="curve" smooth="yes"/>
			<point x="966" y="1092" type="line" smooth="yes"/>
			<point x="985" y="1127"/>
			<point x="994" y="1138"/>
			<point x="995" y="1162" type="curve" smooth="yes"/>
			<point x="997" y="1210" type="line" smooth="yes"/>
			<point x="998" y="1227"/>
			<point x="988" y="1230"/>
			<point x="965" y="1230" type="curve" smooth="yes"/>
			<point x="949" y="1230" type="line" smooth="yes"/>
			<point x="931" y="1230"/>
			<point x="930" y="1239"/>
			<point x="930" y="1278" type="curve" smooth="yes"/>
			<point x="930" y="1435" type="line" smooth="yes"/>
			<point x="930" y="1489"/>
			<point x="931" y="1500"/>
			<point x="985" y="1500" type="curve" smooth="yes"/>
			<point x="1453" y="1500" type="line" smooth="yes"/>
			<point x="1487" y="1500"/>
			<point x="1530" y="1498"/>
			<point x="1530" y="1460" type="curve" smooth="yes"/>
			<point x="1530" y="1294" type="line" smooth="yes"/>
			<point x="1530" y="1251"/>
			<point x="1529" y="1230"/>
			<point x="1512" y="1230" type="curve" smooth="yes"/>
			<point x="1470" y="1230" type="line" smooth="yes"/>
			<point x="1453" y="1230"/>
			<point x="1441" y="1211"/>
			<point x="1444" y="1178" type="curve" smooth="yes"/>
			<point x="1456" y="1060" type="line" smooth="yes"/>
			<point x="1463" y="996"/>
			<point x="1453" y="893"/>
			<point x="1479" y="893" type="curve" smooth="yes"/>
			<point x="1488" y="893"/>
			<point x="1508" y="913"/>
			<point x="1522" y="946" type="curve" smooth="yes"/>
			<point x="1613" y="1164" type="line" smooth="yes"/>
			<point x="1632" y="1211"/>
			<point x="1643" y="1230"/>
			<point x="1619" y="1230" type="curve" smooth="yes"/>
			<point x="1607" y="1230" type="line" smooth="yes"/>
			<point x="1592" y="1230"/>
			<point x="1580" y="1236"/>
			<point x="1580" y="1284" type="curve" smooth="yes"/>
			<point x="1580" y="1442" type="line" smooth="yes"/>
			<point x="1580" y="1494"/>
			<point x="1587" y="1500"/>
			<point x="1637" y="1500" type="curve" smooth="yes"/>
			<point x="2019" y="1500" type="line" smooth="yes"/>
			<point x="2060" y="1500"/>
			<point x="2080" y="1498"/>
			<point x="2080" y="1453" type="curve" smooth="yes"/>
			<point x="2080" y="1272" type="line" smooth="yes"/>
			<point x="2080" y="1233"/>
			<point x="2071" y="1230"/>
			<point x="2031" y="1230" type="curve" smooth="yes"/>
			<point x="1983" y="1230" type="line" smooth="yes"/>
			<point x="1923" y="1230"/>
			<point x="1921" y="1213"/>
			<point x="1903" y="1172" type="curve" smooth="yes"/>
			<point x="1383" y="18" type="line" smooth="yes"/>
			<point x="1367" y="-17"/>
			<point x="1365" y="-20"/>
			<point x="1316" y="-20" type="curve" smooth="yes"/>
			<point x="1073" y="-20" type="line" smooth="yes"/>
			<point x="1017" y="-20"/>
			<point x="1011" y="-11"/>
			<point x="1014" y="32" type="curve" smooth="yes"/>
			<point x="1053" y="608" type="line" smooth="yes"/>
			<point x="1056" y="659"/>
			<point x="1065" y="693"/>
			<point x="1023" y="693" type="curve" smooth="yes"/>
			<point x="993" y="693"/>
			<point x="985" y="662"/>
			<point x="970" y="628" type="curve" smooth="yes"/>
			<point x="705" y="28" type="line" smooth="yes"/>
			<point x="689" y="-8"/>
			<point x="672" y="-20"/>
			<point x="624" y="-20" type="curve" smooth="yes"/>
			<point x="392" y="-20" type="line" smooth="yes"/>
			<point x="349" y="-20"/>
			<point x="335" y="-11"/>
			<point x="333" y="26" type="curve" smooth="yes"/>
			<point x="268" y="1176" type="line" smooth="yes"/>
			<point x="265" y="1225"/>
			<point x="261" y="1230"/>
			<point x="213" y="1230" type="curve" smooth="yes"/>
			<point x="207" y="1230" type="line" smooth="yes"/>
			<point x="167" y="1230"/>
			<point x="160" y="1235"/>
			<point x="160" y="1276" type="curve" smooth="yes"/>
			<point x="160" y="1448" type="line" smooth="yes"/>
			<point x="160" y="1498"/>
			<point x="176" y="1500"/>
			<point x="223" y="1500" type="curve" smooth="yes"/>
			<point x="791" y="1500" type="line" smooth="yes"/>
			<point x="844" y="1500"/>
			<point x="860" y="1499"/>
			<point x="860" y="1442" type="curve" smooth="yes"/>
			<point x="860" y="1290" type="line" smooth="yes"/>
			<point x="860" y="1239"/>
			<point x="848" y="1230"/>
			<point x="817" y="1230" type="curve" smooth="yes"/>
			<point x="813" y="1230" type="line" smooth="yes"/>
			<point x="785" y="1230"/>
			<point x="783" y="1221"/>
			<point x="785" y="1196" type="curve" smooth="yes"/>
			<point x="797" y="1024" type="line" smooth="yes"/>
			<point x="801" y="964"/>
			<point x="800" y="882"/>
			<point x="824" y="882" type="curve" smooth="yes"/>
			<point x="845" y="882"/>
			<point x="864" y="905"/>
		</contour>
	</outline>
</glyph>
<glyph name="X" format="2">
	<advance width="1370" height="0"/>
	<unicode hex="0058"/>
	<anchor x="935" y="1500" name="Anchor-0"/>
	<anchor x="506" y="0" name="Anchor-1"/>
	<anchor x="506" y="0" name="Anchor-2"/>
	<outline>
		<contour>
			<point x="236" y="1230" type="curve" smooth="yes"/>
			<point x="226" y="1230" type="line" smooth="yes"/>
			<point x="196" y="1230"/>
			<point x="180" y="1236"/>
			<point x="180" y="1288" type="curve" smooth="yes"/>
			<point x="180" y="1431" type="line" smooth="yes"/>
			<point x="180" y="1489"/>
			<point x="182" y="1500"/>
			<point x="240" y="1500" type="curve" smooth="yes"/>
			<point x="862" y="1500" type="line" smooth="yes"/>
			<point x="907" y="1500"/>
			<point x="920" y="1496"/>
			<point x="920" y="1448" type="curve" smooth="yes"/>
			<point x="920" y="1280" type="line" smooth="yes"/>
			<point x="920" y="1240"/>
			<point x="918" y="1230"/>
			<point x="878" y="1230" type="curve" smooth="yes"/>
			<point x="846" y="1230" type="line" smooth="yes"/>
			<point x="803" y="1230"/>
			<point x="806" y="1209"/>
			<point x="813" y="1181" type="curve" smooth="yes"/>
			<point x="837" y="1069" type="line" smooth="yes"/>
			<point x="841" y="1050"/>
			<point x="847" y="1041"/>
			<point x="854" y="1041" type="curve" smooth="yes"/>
			<point x="866" y="1041"/>
			<point x="882" y="1060"/>
			<point x="901" y="1087" type="curve" smooth="yes"/>
			<point x="975" y="1187" type="line" smooth="yes"/>
			<point x="997" y="1221"/>
			<point x="1000" y="1230"/>
			<point x="978" y="1230" type="curve" smooth="yes"/>
			<point x="976" y="1230" type="line" smooth="yes"/>
			<point x="952" y="1230"/>
			<point x="950" y="1243"/>
			<point x="950" y="1255" type="curve" smooth="yes"/>
			<point x="950" y="1446" type="line" smooth="yes"/>
			<point x="950" y="1492"/>
			<point x="953" y="1500"/>
			<point x="998" y="1500" type="curve" smooth="yes"/>
			<point x="1466" y="1500" type="line" smooth="yes"/>
			<point x="1495" y="1500"/>
			<point x="1500" y="1492"/>
			<point x="1500" y="1461" type="curve" smooth="yes"/>
			<point x="1500" y="1275" type="line" smooth="yes"/>
			<point x="1500" y="1232"/>
			<point x="1492" y="1230"/>
			<point x="1448" y="1230" type="curve" smooth="yes"/>
			<point x="1400" y="1230" type="line" smooth="yes"/>
			<point x="1352" y="1230"/>
			<point x="1342" y="1221"/>
			<point x="1328" y="1204" type="curve" smooth="yes"/>
			<point x="1034" y="846" type="line" smooth="yes"/>
			<point x="1021" y="830"/>
			<point x="1015" y="816"/>
			<point x="1015" y="798" type="curve" smooth="yes"/>
			<point x="1015" y="781"/>
			<point x="1021" y="761"/>
			<point x="1032" y="731" type="curve" smooth="yes"/>
			<point x="1183" y="307" type="line" smooth="yes"/>
			<point x="1194" y="275"/>
			<point x="1213" y="270"/>
			<point x="1236" y="270" type="curve" smooth="yes"/>
			<point x="1246" y="270" type="line" smooth="yes"/>
			<point x="1275" y="270"/>
			<point x="1280" y="263"/>
			<point x="1280" y="225" type="curve" smooth="yes"/>
			<point x="1280" y="43" type="line" smooth="yes"/>
			<point x="1280" y="2"/>
			<point x="1272" y="0"/>
			<point x="1230" y="0" type="curve" smooth="yes"/>
			<point x="596" y="0" type="line" smooth="yes"/>
			<point x="552" y="0"/>
			<point x="540" y="1"/>
			<point x="540" y="45" type="curve" smooth="yes"/>
			<point x="540" y="222" type="line" smooth="yes"/>
			<point x="540" y="260"/>
			<point x="542" y="270"/>
			<point x="560" y="270" type="curve" smooth="yes"/>
			<point x="574" y="270" type="line" smooth="yes"/>
			<point x="610" y="270"/>
			<point x="626" y="291"/>
			<point x="616" y="329" type="curve" smooth="yes"/>
			<point x="584" y="454" type="line" smooth="yes"/>
			<point x="581" y="466"/>
			<point x="576" y="471"/>
			<point x="570" y="471" type="curve" smooth="yes"/>
			<point x="565" y="471"/>
			<point x="559" y="467"/>
			<point x="554" y="461" type="curve" smooth="yes"/>
			<point x="435" y="317" type="line" smooth="yes"/>
			<point x="410" y="287"/>
			<point x="408" y="270"/>
			<point x="434" y="270" type="curve" smooth="yes"/>
			<point x="442" y="270" type="line" smooth="yes"/>
			<point x="464" y="270"/>
			<point x="470" y="260"/>
			<point x="470" y="215" type="curve" smooth="yes"/>
			<point x="470" y="79" type="line" smooth="yes"/>
			<point x="470" y="18"/>
			<point x="453" y="0"/>
			<point x="396" y="0" type="curve" smooth="yes"/>
			<point x="-42" y="0" type="line" smooth="yes"/>
			<point x="-89" y="0"/>
			<point x="-90" y="11"/>
			<point x="-90" y="59" type="curve" smooth="yes"/>
			<point x="-90" y="211" type="line" smooth="yes"/>
			<point x="-90" y="258"/>
			<point x="-89" y="270"/>
			<point x="-42" y="270" type="curve" smooth="yes"/>
			<point x="0" y="270" type="line" smooth="yes"/>
			<point x="55" y="270"/>
			<point x="65" y="278"/>
			<point x="88" y="305" type="curve" smooth="yes"/>
			<point x="386" y="658" type="line" smooth="yes"/>
			<point x="410" y="687"/>
			<point x="419" y="708"/>
			<point x="419" y="732" type="curve" smooth="yes"/>
			<point x="419" y="749"/>
			<point x="413" y="767"/>
			<point x="406" y="791" type="curve" smooth="yes"/>
			<point x="283" y="1181" type="line" smooth="yes"/>
			<point x="271" y="1219"/>
			<point x="250" y="1230"/>
		</contour>
	</outline>
</glyph>
<glyph name="Y" format="2">
	<advance width="1380" height="0"/>
	<unicode hex="0059"/>
	<anchor x="935" y="1500" name="Anchor-0"/>
	<anchor x="616" y="0" name="Anchor-1"/>
	<anchor x="616" y="0" name="Anchor-2"/>
	<outline>
		<contour>
			<point x="260" y="36" type="curve" smooth="yes"/>
			<point x="260" y="224" type="line" smooth="yes"/>
			<point x="260" y="262"/>
			<point x="263" y="270"/>
			<point x="300" y="270" type="curve" smooth="yes"/>
			<point x="356" y="270" type="line" smooth="yes"/>
			<point x="396" y="270"/>
			<point x="401" y="280"/>
			<point x="410" y="319" type="curve" smooth="yes"/>
			<point x="443" y="463" type="line" smooth="yes"/>
			<point x="455" y="514"/>
			<point x="443" y="527"/>
			<point x="434" y="561" type="curve" smooth="yes"/>
			<point x="267" y="1184" type="line" smooth="yes"/>
			<point x="249" y="1220"/>
			<point x="242" y="1230"/>
			<point x="212" y="1230" type="curve" smooth="yes"/>
			<point x="206" y="1230" type="line" smooth="yes"/>
			<point x="164" y="1230"/>
			<point x="163" y="1239"/>
			<point x="163" y="1281" type="curve" smooth="yes"/>
			<point x="163" y="1430" type="line" smooth="yes"/>
			<point x="163" y="1492"/>
			<point x="182" y="1500"/>
			<point x="240" y="1500" type="curve" smooth="yes"/>
			<point x="834" y="1500" type="line" smooth="yes"/>
			<point x="885" y="1500"/>
			<point x="903" y="1497"/>
			<point x="903" y="1442" type="curve" smooth="yes"/>
			<point x="903" y="1277" type="line" smooth="yes"/>
			<point x="903" y="1237"/>
			<point x="892" y="1230"/>
			<point x="867" y="1230" type="curve" smooth="yes"/>
			<point x="862" y="1230" type="line" smooth="yes"/>
			<point x="822" y="1230"/>
			<point x="803" y="1223"/>
			<point x="813" y="1176" type="curve" smooth="yes"/>
			<point x="847" y="1016" type="line" smooth="yes"/>
			<point x="854" y="984"/>
			<point x="851" y="961"/>
			<point x="869" y="961" type="curve" smooth="yes"/>
			<point x="884" y="961"/>
			<point x="888" y="977"/>
			<point x="918" y="1020" type="curve" smooth="yes"/>
			<point x="1029" y="1180" type="line" smooth="yes"/>
			<point x="1057" y="1220"/>
			<point x="1052" y="1230"/>
			<point x="1030" y="1230" type="curve" smooth="yes"/>
			<point x="1023" y="1230" type="line" smooth="yes"/>
			<point x="1002" y="1230"/>
			<point x="993" y="1232"/>
			<point x="993" y="1283" type="curve" smooth="yes"/>
			<point x="993" y="1450" type="line" smooth="yes"/>
			<point x="993" y="1495"/>
			<point x="999" y="1500"/>
			<point x="1043" y="1500" type="curve" smooth="yes"/>
			<point x="1464" y="1500" type="line" smooth="yes"/>
			<point x="1498" y="1500"/>
			<point x="1543" y="1499"/>
			<point x="1543" y="1461" type="curve" smooth="yes"/>
			<point x="1543" y="1257" type="line" smooth="yes"/>
			<point x="1543" y="1232"/>
			<point x="1532" y="1230"/>
			<point x="1506" y="1230" type="curve" smooth="yes"/>
			<point x="1450" y="1230" type="line" smooth="yes"/>
			<point x="1431" y="1230"/>
			<point x="1415" y="1219"/>
			<point x="1392" y="1188" type="curve" smooth="yes"/>
			<point x="996" y="659" type="line" smooth="yes"/>
			<point x="972" y="626"/>
			<point x="946" y="613"/>
			<point x="933" y="553" type="curve" smooth="yes"/>
			<point x="880" y="317" type="line" smooth="yes"/>
			<point x="872" y="281"/>
			<point x="873" y="270"/>
			<point x="910" y="270" type="curve" smooth="yes"/>
			<point x="949" y="270" type="line" smooth="yes"/>
			<point x="988" y="270"/>
			<point x="990" y="261"/>
			<point x="990" y="221" type="curve" smooth="yes"/>
			<point x="990" y="39" type="line" smooth="yes"/>
			<point x="990" y="8"/>
			<point x="986" y="0"/>
			<point x="956" y="0" type="curve" smooth="yes"/>
			<point x="292" y="0" type="line" smooth="yes"/>
			<point x="265" y="0"/>
			<point x="260" y="7"/>
		</contour>
	</outline>
</glyph>
<glyph name="Z" format="2">
	<advance width="1190" height="0"/>
	<unicode hex="005A"/>
	<anchor x="735" y="1500" name="Anchor-0"/>
	<anchor x="456" y="0" name="Anchor-1"/>
	<anchor x="456" y="0" name="Anchor-2"/>
	<outline>
		<contour>
			<point x="-100" y="60" type="curve" smooth="yes"/>
			<point x="-100" y="165" type="line" smooth="yes"/>
			<point x="-100" y="232"/>
			<point x="-78" y="263"/>
			<point x="-54" y="299" type="curve" smooth="yes"/>
			<point x="662" y="1166" type="line" smooth="yes"/>
			<point x="679" y="1186"/>
			<point x="692" y="1198"/>
			<point x="692" y="1208" type="curve" smooth="yes"/>
			<point x="692" y="1224"/>
			<point x="675" y="1230"/>
			<point x="650" y="1230" type="curve" smooth="yes"/>
			<point x="640" y="1230" type="line" smooth="yes"/>
			<point x="490" y="1230"/>
			<point x="380" y="1103"/>
			<point x="331" y="896" type="curve" smooth="yes"/>
			<point x="320" y="851"/>
			<point x="310" y="850"/>
			<point x="262" y="850" type="curve" smooth="yes"/>
			<point x="136" y="850" type="line" smooth="yes"/>
			<point x="100" y="850"/>
			<point x="83" y="852"/>
			<point x="90" y="886" type="curve" smooth="yes"/>
			<point x="210" y="1456" type="line" smooth="yes"/>
			<point x="218" y="1496"/>
			<point x="238" y="1500"/>
			<point x="280" y="1500" type="curve" smooth="yes"/>
			<point x="1196" y="1500" type="line" smooth="yes"/>
			<point x="1245" y="1500"/>
			<point x="1260" y="1490"/>
			<point x="1260" y="1438" type="curve" smooth="yes"/>
			<point x="1260" y="1242" type="line" smooth="yes"/>
			<point x="1260" y="1172"/>
			<point x="1241" y="1128"/>
			<point x="1212" y="1094" type="curve" smooth="yes"/>
			<point x="582" y="367" type="line" smooth="yes"/>
			<point x="558" y="339"/>
			<point x="547" y="308"/>
			<point x="547" y="288" type="curve" smooth="yes"/>
			<point x="547" y="277"/>
			<point x="552" y="270"/>
			<point x="600" y="270" type="curve" smooth="yes"/>
			<point x="640" y="270" type="line" smooth="yes"/>
			<point x="810" y="270"/>
			<point x="868" y="386"/>
			<point x="929" y="626" type="curve" smooth="yes"/>
			<point x="943" y="679"/>
			<point x="944" y="690"/>
			<point x="1000" y="690" type="curve" smooth="yes"/>
			<point x="1128" y="690" type="line" smooth="yes"/>
			<point x="1175" y="690"/>
			<point x="1179" y="654"/>
			<point x="1170" y="614" type="curve" smooth="yes"/>
			<point x="1040" y="62" type="line" smooth="yes"/>
			<point x="1027" y="7"/>
			<point x="1030" y="0"/>
			<point x="974" y="0" type="curve" smooth="yes"/>
			<point x="-32" y="0" type="line" smooth="yes"/>
			<point x="-90" y="0"/>
			<point x="-100" y="2"/>
		</contour>
	</outline>
</glyph>
<glyph name="asciicircum" format="2">
	<advance width="1090" height="0"/>
	<unicode hex="005E"/>
	<outline>
		<contour>
			<point x="676" y="1279" type="curve" smooth="yes"/>
			<point x="362" y="1125" type="line" smooth="yes"/>
			<point x="315" y="1102"/>
			<point x="309" y="1101"/>
			<point x="268" y="1131" type="curve" smooth="yes"/>
			<point x="238" y="1152" type="line" smooth="yes"/>
			<point x="198" y="1181"/>
			<point x="200" y="1180"/>
			<point x="238" y="1211" type="curve" smooth="yes"/>
			<point x="590" y="1499" type="line" smooth="yes"/>
			<point x="626" y="1529"/>
			<point x="639" y="1540"/>
			<point x="710" y="1540" type="curve" smooth="yes"/>
			<point x="772" y="1540" type="line" smooth="yes"/>
			<point x="838" y="1540"/>
			<point x="852" y="1538"/>
			<point x="880" y="1502" type="curve" smooth="yes"/>
			<point x="1107" y="1210" type="line" smooth="yes"/>
			<point x="1130" y="1180"/>
			<point x="1131" y="1180"/>
			<point x="1100" y="1158" type="curve" smooth="yes"/>
			<point x="1058" y="1128" type="line" smooth="yes"/>
			<point x="1022" y="1101"/>
			<point x="1019" y="1101"/>
			<point x="982" y="1127" type="curve" smooth="yes"/>
			<point x="784" y="1269" type="line" smooth="yes"/>
			<point x="737" y="1303"/>
			<point x="730" y="1306"/>
		</contour>
	</outline>
</glyph>
<glyph name="a" format="2">
	<advance width="1036" height="2310"/>
	<unicode hex="0061"/>
	<anchor x="671" y="1040" name="Anchor-0"/>
	<anchor x="505" y="0" name="Anchor-1"/>
	<anchor x="505" y="0" name="Anchor-2"/>
	<anchor x="1007" y="10" name="Anchor-3"/>
	<outline>
		<contour>
			<point x="613" y="840" type="curve" smooth="yes"/>
			<point x="614" y="862"/>
			<point x="605" y="880"/>
			<point x="588" y="880" type="curve" smooth="yes"/>
			<point x="512" y="880"/>
			<point x="388" y="238"/>
			<point x="387" y="200" type="curve" smooth="yes"/>
			<point x="387" y="182"/>
			<point x="390" y="160"/>
			<point x="409" y="160" type="curve" smooth="yes"/>
			<point x="485" y="160"/>
			<point x="612" y="782"/>
		</contour>
		<contour>
			<point x="1039" y="231" type="curve" smooth="yes"/>
			<point x="992" y="49"/>
			<point x="857" y="-50"/>
			<point x="683" y="-50" type="curve" smooth="yes"/>
			<point x="599" y="-50"/>
			<point x="532" y="-7"/>
			<point x="512" y="49" type="curve" smooth="yes"/>
			<point x="506" y="65"/>
			<point x="505" y="72"/>
			<point x="503" y="79" type="curve" smooth="yes"/>
			<point x="495" y="106"/>
			<point x="488" y="97"/>
			<point x="464" y="61" type="curve" smooth="yes"/>
			<point x="424" y="1"/>
			<point x="357" y="-40"/>
			<point x="271" y="-40" type="curve" smooth="yes"/>
			<point x="135" y="-40"/>
			<point x="2" y="70"/>
			<point x="2" y="330" type="curve" smooth="yes"/>
			<point x="2" y="770"/>
			<point x="275" y="1078"/>
			<point x="507" y="1078" type="curve" smooth="yes"/>
			<point x="612" y="1078"/>
			<point x="653" y="1011"/>
			<point x="657" y="957" type="curve" smooth="yes"/>
			<point x="659" y="925"/>
			<point x="677" y="915"/>
			<point x="689" y="974" type="curve" smooth="yes"/>
			<point x="695" y="1008" type="line" smooth="yes"/>
			<point x="700" y="1032"/>
			<point x="707" y="1040"/>
			<point x="740" y="1040" type="curve" smooth="yes"/>
			<point x="1009" y="1040" type="line" smooth="yes"/>
			<point x="1057" y="1040"/>
			<point x="1057" y="1031"/>
			<point x="1047" y="994" type="curve" smooth="yes"/>
			<point x="854" y="252" type="line" smooth="yes"/>
			<point x="851" y="240"/>
			<point x="844" y="212"/>
			<point x="844" y="202" type="curve" smooth="yes"/>
			<point x="844" y="192"/>
			<point x="849" y="184"/>
			<point x="858" y="184" type="curve" smooth="yes"/>
			<point x="869" y="184"/>
			<point x="878" y="186"/>
			<point x="909" y="280" type="curve" smooth="yes"/>
			<point x="919" y="310"/>
			<point x="917" y="316"/>
			<point x="967" y="307" type="curve" smooth="yes"/>
			<point x="1023" y="297" type="line" smooth="yes"/>
			<point x="1046" y="293"/>
			<point x="1052" y="281"/>
		</contour>
	</outline>
</glyph>
<glyph name="b" format="2">
	<advance width="1082" height="2310"/>
	<unicode hex="0062"/>
	<anchor x="1101" y="1040" name="Anchor-0"/>
	<anchor x="455" y="-20" name="Anchor-1"/>
	<anchor x="455" y="-20" name="Anchor-2"/>
	<outline>
		<contour>
			<point x="434" y="169" type="curve" smooth="yes"/>
			<point x="429" y="126"/>
			<point x="437" y="110"/>
			<point x="451" y="110" type="curve" smooth="yes"/>
			<point x="529" y="110"/>
			<point x="662" y="762"/>
			<point x="663" y="810" type="curve" smooth="yes"/>
			<point x="664" y="838"/>
			<point x="654" y="851"/>
			<point x="640" y="851" type="curve" smooth="yes"/>
			<point x="604" y="851"/>
			<point x="553" y="730"/>
			<point x="508" y="525" type="curve" smooth="yes"/>
			<point x="447" y="243" type="line" smooth="yes"/>
			<point x="441" y="217"/>
			<point x="437" y="194"/>
		</contour>
		<contour>
			<point x="38" y="282" type="curve" smooth="yes"/>
			<point x="269" y="1291" type="line" smooth="yes"/>
			<point x="279" y="1335"/>
			<point x="276" y="1350"/>
			<point x="237" y="1350" type="curve" smooth="yes"/>
			<point x="224" y="1350" type="line" smooth="yes"/>
			<point x="194" y="1350"/>
			<point x="191" y="1358"/>
			<point x="191" y="1389" type="curve" smooth="yes"/>
			<point x="191" y="1519" type="line" smooth="yes"/>
			<point x="191" y="1553"/>
			<point x="195" y="1560"/>
			<point x="228" y="1560" type="curve" smooth="yes"/>
			<point x="699" y="1560" type="line" smooth="yes"/>
			<point x="743" y="1560"/>
			<point x="745" y="1555"/>
			<point x="735" y="1513" type="curve" smooth="yes"/>
			<point x="631" y="1039" type="line" smooth="yes"/>
			<point x="621" y="994"/>
			<point x="629" y="973"/>
			<point x="659" y="1004" type="curve" smooth="yes"/>
			<point x="684" y="1030"/>
			<point x="738" y="1078"/>
			<point x="829" y="1078" type="curve" smooth="yes"/>
			<point x="984" y="1078"/>
			<point x="1083" y="960"/>
			<point x="1083" y="710" type="curve" smooth="yes"/>
			<point x="1083" y="300"/>
			<point x="799" y="-40"/>
			<point x="468" y="-40" type="curve" smooth="yes"/>
			<point x="279" y="-40"/>
			<point x="126" y="33"/>
			<point x="57" y="152" type="curve" smooth="yes"/>
			<point x="29" y="200"/>
			<point x="24" y="221"/>
		</contour>
	</outline>
</glyph>
<glyph name="c" format="2">
	<advance width="952" height="2310"/>
	<unicode hex="0063"/>
	<anchor x="679" y="1040" name="Anchor-0"/>
	<anchor x="428" y="0" name="Anchor-1"/>
	<anchor x="428" y="0" name="Anchor-2"/>
	<outline>
		<contour>
			<point x="971" y="718" type="curve" smooth="yes"/>
			<point x="971" y="562"/>
			<point x="871" y="474"/>
			<point x="743" y="474" type="curve" smooth="yes"/>
			<point x="631" y="474"/>
			<point x="533" y="526"/>
			<point x="533" y="650" type="curve" smooth="yes"/>
			<point x="536" y="776"/>
			<point x="611" y="804"/>
			<point x="611" y="848" type="curve" smooth="yes"/>
			<point x="611" y="870"/>
			<point x="601" y="880"/>
			<point x="583" y="880" type="curve" smooth="yes"/>
			<point x="504" y="880"/>
			<point x="389" y="258"/>
			<point x="388" y="220" type="curve" smooth="yes"/>
			<point x="387" y="171"/>
			<point x="408" y="160"/>
			<point x="427" y="160" type="curve" smooth="yes"/>
			<point x="480" y="160"/>
			<point x="509" y="218"/>
			<point x="541" y="309" type="curve" smooth="yes"/>
			<point x="550" y="335"/>
			<point x="558" y="346"/>
			<point x="599" y="346" type="curve" smooth="yes"/>
			<point x="830" y="346" type="line" smooth="yes"/>
			<point x="872" y="346"/>
			<point x="880" y="339"/>
			<point x="868" y="302" type="curve" smooth="yes"/>
			<point x="804" y="110"/>
			<point x="687" y="-20"/>
			<point x="408" y="-20" type="curve" smooth="yes"/>
			<point x="145" y="-20"/>
			<point x="3" y="158"/>
			<point x="3" y="390" type="curve" smooth="yes"/>
			<point x="3" y="770"/>
			<point x="281" y="1060"/>
			<point x="562" y="1060" type="curve" smooth="yes"/>
			<point x="818" y="1060"/>
			<point x="971" y="922"/>
		</contour>
	</outline>
</glyph>
<glyph name="d" format="2">
	<advance width="1036" height="2310"/>
	<unicode hex="0064"/>
	<anchor x="470" y="1040" name="Anchor-0"/>
	<anchor x="1588" y="1040" name="Anchor-1"/>
	<anchor x="432" y="0" name="Anchor-2"/>
	<outline>
		<contour>
			<point x="613" y="840" type="curve" smooth="yes"/>
			<point x="613" y="861"/>
			<point x="607" y="880"/>
			<point x="588" y="880" type="curve" smooth="yes"/>
			<point x="512" y="880"/>
			<point x="389" y="248"/>
			<point x="388" y="200" type="curve" smooth="yes"/>
			<point x="387" y="172"/>
			<point x="394" y="158"/>
			<point x="407" y="158" type="curve" smooth="yes"/>
			<point x="483" y="158"/>
			<point x="611" y="772"/>
		</contour>
		<contour>
			<point x="1039" y="232" type="curve" smooth="yes"/>
			<point x="994" y="58"/>
			<point x="905" y="-50"/>
			<point x="720" y="-50" type="curve" smooth="yes"/>
			<point x="608" y="-50"/>
			<point x="530" y="-11"/>
			<point x="508" y="60" type="curve" smooth="yes"/>
			<point x="504" y="74"/>
			<point x="502" y="90"/>
			<point x="496" y="94" type="curve" smooth="yes"/>
			<point x="484" y="102"/>
			<point x="475" y="76"/>
			<point x="462" y="57" type="curve" smooth="yes"/>
			<point x="423" y="1"/>
			<point x="355" y="-40"/>
			<point x="269" y="-40" type="curve" smooth="yes"/>
			<point x="136" y="-40"/>
			<point x="3" y="70"/>
			<point x="3" y="330" type="curve" smooth="yes"/>
			<point x="3" y="770"/>
			<point x="275" y="1078"/>
			<point x="507" y="1078" type="curve" smooth="yes"/>
			<point x="611" y="1078"/>
			<point x="654" y="1008"/>
			<point x="657" y="961" type="curve" smooth="yes"/>
			<point x="660" y="919"/>
			<point x="676" y="922"/>
			<point x="689" y="974" type="curve" smooth="yes"/>
			<point x="770" y="1313" type="line" smooth="yes"/>
			<point x="778" y="1346"/>
			<point x="774" y="1350"/>
			<point x="737" y="1350" type="curve" smooth="yes"/>
			<point x="731" y="1350" type="line" smooth="yes"/>
			<point x="696" y="1350"/>
			<point x="684" y="1353"/>
			<point x="686" y="1399" type="curve" smooth="yes"/>
			<point x="689" y="1517" type="line" smooth="yes"/>
			<point x="690" y="1552"/>
			<point x="694" y="1560"/>
			<point x="722" y="1560" type="curve" smooth="yes"/>
			<point x="1111" y="1560" type="line" smooth="yes"/>
			<point x="1183" y="1560"/>
			<point x="1190" y="1552"/>
			<point x="1175" y="1494" type="curve" smooth="yes"/>
			<point x="854" y="252" type="line" smooth="yes"/>
			<point x="848" y="231"/>
			<point x="844" y="212"/>
			<point x="844" y="202" type="curve" smooth="yes"/>
			<point x="844" y="190"/>
			<point x="845" y="184"/>
			<point x="854" y="184" type="curve" smooth="yes"/>
			<point x="877" y="184"/>
			<point x="886" y="217"/>
			<point x="910" y="287" type="curve" smooth="yes"/>
			<point x="920" y="317"/>
			<point x="932" y="313"/>
			<point x="951" y="310" type="curve" smooth="yes"/>
			<point x="1022" y="297" type="line" smooth="yes"/>
			<point x="1051" y="292"/>
			<point x="1049" y="272"/>
		</contour>
	</outline>
</glyph>
<glyph name="e" format="2">
	<advance width="924" height="2310"/>
	<unicode hex="0065"/>
	<anchor x="624" y="1040" name="Anchor-0"/>
	<anchor x="429" y="20" name="Anchor-1"/>
	<anchor x="429" y="20" name="Anchor-2"/>
	<anchor x="733" y="102" name="Anchor-3"/>
	<outline>
		<contour>
			<point x="4" y="390" type="curve" smooth="yes"/>
			<point x="4" y="780"/>
			<point x="285" y="1060"/>
			<point x="563" y="1060" type="curve" smooth="yes"/>
			<point x="803" y="1060"/>
			<point x="943" y="940"/>
			<point x="943" y="746" type="curve" smooth="yes"/>
			<point x="943" y="456"/>
			<point x="698" y="423"/>
			<point x="434" y="395" type="curve" smooth="yes"/>
			<point x="415" y="393"/>
			<point x="415" y="386"/>
			<point x="411" y="365" type="curve" smooth="yes"/>
			<point x="380" y="217"/>
			<point x="378" y="158"/>
			<point x="428" y="158" type="curve" smooth="yes"/>
			<point x="472" y="158"/>
			<point x="514" y="219"/>
			<point x="543" y="311" type="curve" smooth="yes"/>
			<point x="551" y="337"/>
			<point x="567" y="346"/>
			<point x="605" y="346" type="curve" smooth="yes"/>
			<point x="806" y="346" type="line" smooth="yes"/>
			<point x="865" y="346"/>
			<point x="874" y="337"/>
			<point x="857" y="290" type="curve" smooth="yes"/>
			<point x="797" y="122"/>
			<point x="673" y="-20"/>
			<point x="409" y="-20" type="curve" smooth="yes"/>
			<point x="138" y="-20"/>
			<point x="4" y="158"/>
		</contour>
		<contour>
			<point x="481" y="569" type="curve" smooth="yes"/>
			<point x="522" y="589"/>
			<point x="605" y="784"/>
			<point x="606" y="848" type="curve" smooth="yes"/>
			<point x="606" y="866"/>
			<point x="606" y="880"/>
			<point x="588" y="880" type="curve" smooth="yes"/>
			<point x="556" y="880"/>
			<point x="520" y="804"/>
			<point x="465" y="602" type="curve" smooth="yes"/>
			<point x="457" y="571"/>
			<point x="460" y="559"/>
		</contour>
	</outline>
</glyph>
<glyph name="f" format="2">
	<advance width="659" height="2310"/>
	<unicode hex="0066"/>
	<anchor x="687" y="1692" name="Anchor-0"/>
	<anchor x="216" y="0" name="Anchor-1"/>
	<anchor x="216" y="0" name="Anchor-2"/>
	<outline>
		<contour>
			<point x="-72" y="-233" type="curve" smooth="yes"/>
			<point x="132" y="777" type="line" smooth="yes"/>
			<point x="141" y="822"/>
			<point x="140" y="830"/>
			<point x="103" y="830" type="curve" smooth="yes"/>
			<point x="100" y="830" type="line" smooth="yes"/>
			<point x="68" y="830"/>
			<point x="66" y="838"/>
			<point x="66" y="871" type="curve" smooth="yes"/>
			<point x="66" y="988" type="line" smooth="yes"/>
			<point x="66" y="1031"/>
			<point x="67" y="1040"/>
			<point x="110" y="1040" type="curve" smooth="yes"/>
			<point x="132" y="1040" type="line" smooth="yes"/>
			<point x="178" y="1040"/>
			<point x="185" y="1047"/>
			<point x="191" y="1078" type="curve" smooth="yes"/>
			<point x="204" y="1144" type="line" smooth="yes"/>
			<point x="274" y="1508"/>
			<point x="444" y="1600"/>
			<point x="713" y="1600" type="curve" smooth="yes"/>
			<point x="934" y="1600"/>
			<point x="1068" y="1482"/>
			<point x="1068" y="1308" type="curve" smooth="yes"/>
			<point x="1068" y="1162"/>
			<point x="960" y="1074"/>
			<point x="832" y="1074" type="curve" smooth="yes"/>
			<point x="731" y="1074"/>
			<point x="641" y="1136"/>
			<point x="644" y="1260" type="curve" smooth="yes"/>
			<point x="646" y="1352"/>
			<point x="693" y="1376"/>
			<point x="694" y="1400" type="curve" smooth="yes"/>
			<point x="694" y="1412"/>
			<point x="680" y="1420"/>
			<point x="660" y="1420" type="curve" smooth="yes"/>
			<point x="559" y="1420"/>
			<point x="603" y="1250"/>
			<point x="575" y="1100" type="curve" smooth="yes"/>
			<point x="572" y="1084" type="line" smooth="yes"/>
			<point x="565" y="1051"/>
			<point x="565" y="1040"/>
			<point x="601" y="1040" type="curve" smooth="yes"/>
			<point x="647" y="1040" type="line" smooth="yes"/>
			<point x="682" y="1040"/>
			<point x="686" y="1032"/>
			<point x="684" y="988" type="curve" smooth="yes"/>
			<point x="680" y="868" type="line" smooth="yes"/>
			<point x="679" y="832"/>
			<point x="673" y="830"/>
			<point x="643" y="830" type="curve" smooth="yes"/>
			<point x="566" y="830" type="line" smooth="yes"/>
			<point x="525" y="830"/>
			<point x="520" y="820"/>
			<point x="512" y="779" type="curve" smooth="yes"/>
			<point x="322" y="-242" type="line" smooth="yes"/>
			<point x="312" y="-294"/>
			<point x="306" y="-300"/>
			<point x="248" y="-300" type="curve" smooth="yes"/>
			<point x="-11" y="-300" type="line" smooth="yes"/>
			<point x="-79" y="-300"/>
			<point x="-83" y="-285"/>
		</contour>
	</outline>
</glyph>
<glyph name="g" format="2">
	<advance width="821" height="2310"/>
	<unicode hex="0067"/>
	<anchor x="433" y="1040" name="Anchor-0"/>
	<anchor x="156" y="-565" name="Anchor-1"/>
	<anchor x="156" y="-565" name="Anchor-2"/>
	<outline>
		<contour>
			<point x="-202" y="-300" type="curve" smooth="yes"/>
			<point x="-202" y="-196"/>
			<point x="-119" y="-100"/>
			<point x="-18" y="-55" type="curve" smooth="yes"/>
			<point x="13" y="-41"/>
			<point x="13" y="-37"/>
			<point x="-6" y="-21" type="curve" smooth="yes"/>
			<point x="-63" y="26"/>
			<point x="-83" y="74"/>
			<point x="-83" y="128" type="curve" smooth="yes"/>
			<point x="-83" y="248"/>
			<point x="28" y="343"/>
			<point x="142" y="391" type="curve" smooth="yes"/>
			<point x="172" y="404"/>
			<point x="173" y="413"/>
			<point x="155" y="426" type="curve" smooth="yes"/>
			<point x="87" y="476"/>
			<point x="46" y="546"/>
			<point x="46" y="635" type="curve" smooth="yes"/>
			<point x="46" y="918"/>
			<point x="322" y="1080"/>
			<point x="474" y="1080" type="curve" smooth="yes"/>
			<point x="476" y="1080"/>
			<point x="477" y="1080"/>
			<point x="479" y="1080" type="curve" smooth="yes"/>
			<point x="502" y="1080"/>
			<point x="502" y="1082"/>
			<point x="513" y="1109" type="curve" smooth="yes"/>
			<point x="564" y="1239"/>
			<point x="634" y="1382"/>
			<point x="804" y="1382" type="curve" smooth="yes"/>
			<point x="941" y="1382"/>
			<point x="1010" y="1290"/>
			<point x="1010" y="1186" type="curve" smooth="yes"/>
			<point x="1010" y="1101"/>
			<point x="960" y="1015"/>
			<point x="854" y="1015" type="curve" smooth="yes"/>
			<point x="780" y="1015"/>
			<point x="723" y="1058"/>
			<point x="724" y="1116" type="curve" smooth="yes"/>
			<point x="725" y="1144"/>
			<point x="738" y="1171"/>
			<point x="725" y="1171" type="curve" smooth="yes"/>
			<point x="702" y="1171"/>
			<point x="678" y="1102"/>
			<point x="671" y="1080" type="curve" smooth="yes"/>
			<point x="663" y="1056"/>
			<point x="662" y="1051"/>
			<point x="676" y="1043" type="curve" smooth="yes"/>
			<point x="766" y="997"/>
			<point x="827" y="910"/>
			<point x="827" y="796" type="curve" smooth="yes"/>
			<point x="827" y="506"/>
			<point x="562" y="340"/>
			<point x="348" y="340" type="curve" smooth="yes"/>
			<point x="344" y="340"/>
			<point x="332" y="341"/>
			<point x="320" y="342" type="curve" smooth="yes"/>
			<point x="312" y="343"/>
			<point x="304" y="341"/>
			<point x="292" y="330" type="curve" smooth="yes"/>
			<point x="282" y="321"/>
			<point x="267" y="302"/>
			<point x="267" y="284" type="curve" smooth="yes"/>
			<point x="267" y="264"/>
			<point x="267" y="238"/>
			<point x="330" y="238" type="curve" smooth="yes"/>
			<point x="375" y="238"/>
			<point x="435" y="240"/>
			<point x="494" y="240" type="curve" smooth="yes"/>
			<point x="677" y="240"/>
			<point x="717" y="134"/>
			<point x="717" y="-24" type="curve" smooth="yes"/>
			<point x="717" y="-311"/>
			<point x="483" y="-530"/>
			<point x="149" y="-530" type="curve" smooth="yes"/>
			<point x="-108" y="-530"/>
			<point x="-202" y="-454"/>
		</contour>
		<contour>
			<point x="197" y="-110" type="curve" smooth="yes"/>
			<point x="160" y="-143"/>
			<point x="138" y="-190"/>
			<point x="137" y="-246" type="curve" smooth="yes"/>
			<point x="136" y="-308"/>
			<point x="178" y="-326"/>
			<point x="225" y="-326" type="curve" smooth="yes"/>
			<point x="309" y="-326"/>
			<point x="384" y="-265"/>
			<point x="386" y="-158" type="curve" smooth="yes"/>
			<point x="387" y="-121"/>
			<point x="374" y="-104"/>
			<point x="347" y="-104" type="curve" smooth="yes"/>
			<point x="327" y="-104"/>
			<point x="315" y="-104"/>
			<point x="302" y="-104" type="curve" smooth="yes"/>
			<point x="282" y="-104"/>
			<point x="264" y="-104"/>
			<point x="244" y="-102" type="curve" smooth="yes"/>
			<point x="225" y="-100"/>
			<point x="212" y="-97"/>
		</contour>
		<contour>
			<point x="371" y="553" type="curve" smooth="yes"/>
			<point x="370" y="526"/>
			<point x="382" y="520"/>
			<point x="395" y="520" type="curve" smooth="yes"/>
			<point x="443" y="520"/>
			<point x="495" y="775"/>
			<point x="497" y="870" type="curve" smooth="yes"/>
			<point x="498" y="895"/>
			<point x="495" y="900"/>
			<point x="482" y="900" type="curve" smooth="yes"/>
			<point x="434" y="900"/>
			<point x="374" y="650"/>
		</contour>
	</outline>
</glyph>
<glyph name="h" format="2">
	<advance width="1072" height="2310"/>
	<unicode hex="0068"/>
	<anchor x="1107" y="1039" name="Anchor-0"/>
	<anchor x="379" y="0" name="Anchor-1"/>
	<anchor x="379" y="0" name="Anchor-2"/>
	<outline>
		<contour>
			<point x="1058" y="207" type="curve" smooth="yes"/>
			<point x="1009" y="60"/>
			<point x="906" y="-40"/>
			<point x="750" y="-40" type="curve" smooth="yes"/>
			<point x="530" y="-40"/>
			<point x="466" y="44"/>
			<point x="466" y="146" type="curve" smooth="yes"/>
			<point x="466" y="184"/>
			<point x="475" y="220"/>
			<point x="484" y="250" type="curve" smooth="yes"/>
			<point x="588" y="620" type="line" smooth="yes"/>
			<point x="626" y="748"/>
			<point x="640" y="806"/>
			<point x="593" y="806" type="curve" smooth="yes"/>
			<point x="542" y="806"/>
			<point x="502" y="588"/>
			<point x="445" y="327" type="curve" smooth="yes"/>
			<point x="387" y="62" type="line" smooth="yes"/>
			<point x="376" y="10"/>
			<point x="370" y="0"/>
			<point x="308" y="0" type="curve" smooth="yes"/>
			<point x="44" y="0" type="line" smooth="yes"/>
			<point x="-33" y="0"/>
			<point x="-41" y="8"/>
			<point x="-27" y="68" type="curve" smooth="yes"/>
			<point x="259" y="1308" type="line" smooth="yes"/>
			<point x="268" y="1345"/>
			<point x="254" y="1350"/>
			<point x="226" y="1350" type="curve" smooth="yes"/>
			<point x="222" y="1350" type="line" smooth="yes"/>
			<point x="193" y="1350"/>
			<point x="187" y="1355"/>
			<point x="187" y="1396" type="curve" smooth="yes"/>
			<point x="187" y="1498" type="line" smooth="yes"/>
			<point x="187" y="1558"/>
			<point x="198" y="1560"/>
			<point x="256" y="1560" type="curve" smooth="yes"/>
			<point x="648" y="1560" type="line" smooth="yes"/>
			<point x="715" y="1560"/>
			<point x="718" y="1555"/>
			<point x="705" y="1498" type="curve" smooth="yes"/>
			<point x="585" y="966" type="line" smooth="yes"/>
			<point x="569" y="890"/>
			<point x="585" y="893"/>
			<point x="614" y="939" type="curve" smooth="yes"/>
			<point x="678" y="1039"/>
			<point x="764" y="1078"/>
			<point x="856" y="1078" type="curve" smooth="yes"/>
			<point x="1014" y="1078"/>
			<point x="1125" y="1014"/>
			<point x="1018" y="682" type="curve" smooth="yes"/>
			<point x="882" y="250" type="line" smooth="yes"/>
			<point x="876" y="232"/>
			<point x="872" y="210"/>
			<point x="872" y="202" type="curve" smooth="yes"/>
			<point x="872" y="191"/>
			<point x="875" y="184"/>
			<point x="885" y="184" type="curve" smooth="yes"/>
			<point x="899" y="184"/>
			<point x="909" y="204"/>
			<point x="928" y="262" type="curve" smooth="yes"/>
			<point x="944" y="309"/>
			<point x="944" y="315"/>
			<point x="976" y="309" type="curve" smooth="yes"/>
			<point x="1058" y="294" type="line" smooth="yes"/>
			<point x="1088" y="289"/>
			<point x="1079" y="269"/>
		</contour>
	</outline>
</glyph>
<glyph name="l" format="2">
	<advance width="583" height="2310"/>
	<unicode hex="006C"/>
	<anchor x="466" y="1696" name="Anchor-0"/>
	<anchor x="785" y="1040" name="Anchor-1"/>
	<anchor x="280" y="0" name="Anchor-2"/>
	<outline>
		<contour>
			<point x="699" y="1500" type="curve" smooth="yes"/>
			<point x="410" y="252" type="line" smooth="yes"/>
			<point x="407" y="240"/>
			<point x="402" y="212"/>
			<point x="402" y="202" type="curve" smooth="yes"/>
			<point x="402" y="191"/>
			<point x="403" y="184"/>
			<point x="410" y="184" type="curve" smooth="yes"/>
			<point x="426" y="184"/>
			<point x="436" y="210"/>
			<point x="456" y="271" type="curve" smooth="yes"/>
			<point x="469" y="310"/>
			<point x="474" y="315"/>
			<point x="501" y="310" type="curve" smooth="yes"/>
			<point x="574" y="297" type="line" smooth="yes"/>
			<point x="607" y="291"/>
			<point x="596" y="255"/>
			<point x="582" y="212" type="curve" smooth="yes"/>
			<point x="516" y="13"/>
			<point x="393" y="-50"/>
			<point x="230" y="-50" type="curve" smooth="yes"/>
			<point x="66" y="-50"/>
			<point x="-6" y="34"/>
			<point x="-6" y="154" type="curve" smooth="yes"/>
			<point x="-6" y="192"/>
			<point x="7" y="249"/>
			<point x="14" y="280" type="curve" smooth="yes"/>
			<point x="238" y="1292" type="line" smooth="yes"/>
			<point x="249" y="1341"/>
			<point x="251" y="1350"/>
			<point x="221" y="1350" type="curve" smooth="yes"/>
			<point x="215" y="1350" type="line" smooth="yes"/>
			<point x="173" y="1350"/>
			<point x="168" y="1356"/>
			<point x="168" y="1400" type="curve" smooth="yes"/>
			<point x="168" y="1518" type="line" smooth="yes"/>
			<point x="168" y="1557"/>
			<point x="178" y="1560"/>
			<point x="215" y="1560" type="curve" smooth="yes"/>
			<point x="647" y="1560" type="line" smooth="yes"/>
			<point x="713" y="1560"/>
			<point x="713" y="1555"/>
		</contour>
	</outline>
</glyph>
<glyph name="m" format="2">
	<advance width="1537" height="2310"/>
	<unicode hex="006D"/>
	<anchor x="1048" y="1040" name="Anchor-0"/>
	<anchor x="730" y="0" name="Anchor-1"/>
	<anchor x="730" y="0" name="Anchor-2"/>
	<outline>
		<contour>
			<point x="102" y="1040" type="curve" smooth="yes"/>
			<point x="475" y="1040" type="line" smooth="yes"/>
			<point x="520" y="1040"/>
			<point x="543" y="1035"/>
			<point x="536" y="992" type="curve" smooth="yes"/>
			<point x="524" y="918" type="line" smooth="yes"/>
			<point x="519" y="889"/>
			<point x="541" y="865"/>
			<point x="569" y="915" type="curve" smooth="yes"/>
			<point x="633" y="1037"/>
			<point x="714" y="1078"/>
			<point x="816" y="1078" type="curve" smooth="yes"/>
			<point x="934" y="1078"/>
			<point x="982" y="1021"/>
			<point x="1002" y="952" type="curve" smooth="yes"/>
			<point x="1022" y="884"/>
			<point x="1041" y="886"/>
			<point x="1075" y="935" type="curve" smooth="yes"/>
			<point x="1147" y="1043"/>
			<point x="1218" y="1078"/>
			<point x="1314" y="1078" type="curve" smooth="yes"/>
			<point x="1472" y="1078"/>
			<point x="1593" y="1014"/>
			<point x="1486" y="682" type="curve" smooth="yes"/>
			<point x="1348" y="250" type="line" smooth="yes"/>
			<point x="1340" y="225"/>
			<point x="1339" y="210"/>
			<point x="1339" y="202" type="curve" smooth="yes"/>
			<point x="1339" y="192"/>
			<point x="1343" y="184"/>
			<point x="1354" y="184" type="curve" smooth="yes"/>
			<point x="1369" y="184"/>
			<point x="1378" y="215"/>
			<point x="1397" y="270" type="curve" smooth="yes"/>
			<point x="1410" y="306"/>
			<point x="1415" y="314"/>
			<point x="1453" y="307" type="curve" smooth="yes"/>
			<point x="1502" y="298" type="line" smooth="yes"/>
			<point x="1550" y="289"/>
			<point x="1550" y="282"/>
			<point x="1529" y="220" type="curve" smooth="yes"/>
			<point x="1479" y="74"/>
			<point x="1406" y="-40"/>
			<point x="1188" y="-40" type="curve" smooth="yes"/>
			<point x="1008" y="-40"/>
			<point x="934" y="44"/>
			<point x="934" y="146" type="curve" smooth="yes"/>
			<point x="934" y="184"/>
			<point x="944" y="220"/>
			<point x="953" y="250" type="curve" smooth="yes"/>
			<point x="1046" y="620" type="line" smooth="yes"/>
			<point x="1084" y="748"/>
			<point x="1101" y="796"/>
			<point x="1070" y="796" type="curve" smooth="yes"/>
			<point x="1028" y="796"/>
			<point x="987" y="597"/>
			<point x="931" y="341" type="curve" smooth="yes"/>
			<point x="866" y="42" type="line" smooth="yes"/>
			<point x="860" y="14"/>
			<point x="853" y="0"/>
			<point x="818" y="0" type="curve" smooth="yes"/>
			<point x="476" y="0" type="line" smooth="yes"/>
			<point x="427" y="0"/>
			<point x="425" y="11"/>
			<point x="435" y="55" type="curve" smooth="yes"/>
			<point x="576" y="676" type="line" smooth="yes"/>
			<point x="605" y="787"/>
			<point x="598" y="796"/>
			<point x="576" y="796" type="curve" smooth="yes"/>
			<point x="544" y="796"/>
			<point x="493" y="596"/>
			<point x="437" y="339" type="curve" smooth="yes"/>
			<point x="374" y="52" type="line" smooth="yes"/>
			<point x="366" y="18"/>
			<point x="355" y="0"/>
			<point x="312" y="0" type="curve" smooth="yes"/>
			<point x="22" y="0" type="line" smooth="yes"/>
			<point x="-48" y="0"/>
			<point x="-51" y="14"/>
			<point x="-39" y="66" type="curve" smooth="yes"/>
			<point x="125" y="772" type="line" smooth="yes"/>
			<point x="136" y="819"/>
			<point x="149" y="830"/>
			<point x="106" y="830" type="curve" smooth="yes"/>
			<point x="96" y="830" type="line" smooth="yes"/>
			<point x="64" y="830"/>
			<point x="56" y="832"/>
			<point x="56" y="884" type="curve" smooth="yes"/>
			<point x="56" y="988" type="line" smooth="yes"/>
			<point x="56" y="1032"/>
			<point x="58" y="1040"/>
		</contour>
	</outline>
</glyph>
<glyph name="n" format="2">
	<advance width="1062" height="2310"/>
	<unicode hex="006E"/>
	<anchor x="720" y="1040" name="Anchor-0"/>
	<anchor x="600" y="0" name="Anchor-1"/>
	<anchor x="600" y="0" name="Anchor-2"/>
	<outline>
		<contour>
			<point x="128" y="1040" type="curve" smooth="yes"/>
			<point x="520" y="1040" type="line" smooth="yes"/>
			<point x="587" y="1040"/>
			<point x="587" y="1036"/>
			<point x="577" y="978" type="curve" smooth="yes"/>
			<point x="575" y="966" type="line" smooth="yes"/>
			<point x="562" y="889"/>
			<point x="576" y="893"/>
			<point x="605" y="939" type="curve" smooth="yes"/>
			<point x="668" y="1039"/>
			<point x="754" y="1078"/>
			<point x="846" y="1078" type="curve" smooth="yes"/>
			<point x="1004" y="1078"/>
			<point x="1115" y="1014"/>
			<point x="1008" y="682" type="curve" smooth="yes"/>
			<point x="872" y="250" type="line" smooth="yes"/>
			<point x="866" y="232"/>
			<point x="863" y="210"/>
			<point x="863" y="202" type="curve" smooth="yes"/>
			<point x="863" y="191"/>
			<point x="866" y="184"/>
			<point x="876" y="184" type="curve" smooth="yes"/>
			<point x="890" y="184"/>
			<point x="899" y="204"/>
			<point x="918" y="262" type="curve" smooth="yes"/>
			<point x="934" y="309"/>
			<point x="934" y="315"/>
			<point x="966" y="309" type="curve" smooth="yes"/>
			<point x="1048" y="294" type="line" smooth="yes"/>
			<point x="1078" y="289"/>
			<point x="1069" y="269"/>
			<point x="1048" y="207" type="curve" smooth="yes"/>
			<point x="999" y="60"/>
			<point x="896" y="-40"/>
			<point x="740" y="-40" type="curve" smooth="yes"/>
			<point x="520" y="-40"/>
			<point x="456" y="44"/>
			<point x="456" y="146" type="curve" smooth="yes"/>
			<point x="457" y="184"/>
			<point x="465" y="220"/>
			<point x="474" y="250" type="curve" smooth="yes"/>
			<point x="578" y="620" type="line" smooth="yes"/>
			<point x="616" y="748"/>
			<point x="629" y="806"/>
			<point x="583" y="806" type="curve" smooth="yes"/>
			<point x="532" y="806"/>
			<point x="492" y="588"/>
			<point x="435" y="327" type="curve" smooth="yes"/>
			<point x="377" y="62" type="line" smooth="yes"/>
			<point x="366" y="10"/>
			<point x="360" y="0"/>
			<point x="298" y="0" type="curve" smooth="yes"/>
			<point x="34" y="0" type="line" smooth="yes"/>
			<point x="-43" y="0"/>
			<point x="-51" y="8"/>
			<point x="-37" y="68" type="curve" smooth="yes"/>
			<point x="131" y="788" type="line" smooth="yes"/>
			<point x="140" y="825"/>
			<point x="126" y="830"/>
			<point x="98" y="830" type="curve" smooth="yes"/>
			<point x="94" y="830" type="line" smooth="yes"/>
			<point x="65" y="830"/>
			<point x="59" y="845"/>
			<point x="59" y="886" type="curve" smooth="yes"/>
			<point x="59" y="978" type="line" smooth="yes"/>
			<point x="59" y="1038"/>
			<point x="70" y="1040"/>
		</contour>
	</outline>
</glyph>
<glyph name="o" format="2">
	<advance width="1020" height="2310"/>
	<unicode hex="006F"/>
	<anchor x="662" y="1040" name="Anchor-0"/>
	<anchor x="400" y="70" name="Anchor-1"/>
	<anchor x="400" y="70" name="Anchor-2"/>
	<outline>
		<contour>
			<point x="4" y="390" type="curve" smooth="yes"/>
			<point x="4" y="770"/>
			<point x="238" y="1060"/>
			<point x="623" y="1060" type="curve" smooth="yes"/>
			<point x="867" y="1060"/>
			<point x="1015" y="900"/>
			<point x="1015" y="660" type="curve" smooth="yes"/>
			<point x="1015" y="280"/>
			<point x="730" y="-20"/>
			<point x="403" y="-20" type="curve" smooth="yes"/>
			<point x="143" y="-20"/>
			<point x="4" y="160"/>
		</contour>
		<contour>
			<point x="378" y="200" type="curve" smooth="yes"/>
			<point x="378" y="180"/>
			<point x="381" y="160"/>
			<point x="399" y="160" type="curve" smooth="yes"/>
			<point x="477" y="160"/>
			<point x="604" y="792"/>
			<point x="605" y="840" type="curve" smooth="yes"/>
			<point x="605" y="858"/>
			<point x="600" y="880"/>
			<point x="580" y="880" type="curve" smooth="yes"/>
			<point x="504" y="880"/>
			<point x="379" y="238"/>
		</contour>
	</outline>
</glyph>
<glyph name="p" format="2">
	<advance width="996" height="2310"/>
	<unicode hex="0070"/>
	<anchor x="797" y="1040" name="Anchor-0"/>
	<anchor x="577" y="0" name="Anchor-1"/>
	<anchor x="577" y="0" name="Anchor-2"/>
	<outline>
		<contour>
			<point x="106" y="1040" type="curve" smooth="yes"/>
			<point x="464" y="1040" type="line" smooth="yes"/>
			<point x="492" y="1040"/>
			<point x="499" y="1039"/>
			<point x="495" y="1008" type="curve" smooth="yes"/>
			<point x="485" y="940" type="line" smooth="yes"/>
			<point x="479" y="897"/>
			<point x="481" y="882"/>
			<point x="511" y="931" type="curve" smooth="yes"/>
			<point x="566" y="1020"/>
			<point x="622" y="1078"/>
			<point x="721" y="1078" type="curve" smooth="yes"/>
			<point x="867" y="1078"/>
			<point x="998" y="968"/>
			<point x="998" y="708" type="curve" smooth="yes"/>
			<point x="998" y="268"/>
			<point x="725" y="-40"/>
			<point x="496" y="-40" type="curve" smooth="yes"/>
			<point x="410" y="-40"/>
			<point x="384" y="17"/>
			<point x="367" y="57" type="curve" smooth="yes"/>
			<point x="358" y="78"/>
			<point x="346" y="79"/>
			<point x="337" y="40" type="curve" smooth="yes"/>
			<point x="232" y="-448" type="line" smooth="yes"/>
			<point x="222" y="-492"/>
			<point x="215" y="-500"/>
			<point x="170" y="-500" type="curve" smooth="yes"/>
			<point x="-86" y="-500" type="line" smooth="yes"/>
			<point x="-159" y="-500"/>
			<point x="-157" y="-480"/>
			<point x="-145" y="-426" type="curve" smooth="yes"/>
			<point x="130" y="786" type="line" smooth="yes"/>
			<point x="138" y="821"/>
			<point x="139" y="830"/>
			<point x="104" y="830" type="curve" smooth="yes"/>
			<point x="96" y="830" type="line" smooth="yes"/>
			<point x="62" y="830"/>
			<point x="60" y="838"/>
			<point x="60" y="882" type="curve" smooth="yes"/>
			<point x="60" y="998" type="line" smooth="yes"/>
			<point x="60" y="1037"/>
			<point x="70" y="1040"/>
		</contour>
		<contour>
			<point x="386" y="198" type="curve" smooth="yes"/>
			<point x="386" y="177"/>
			<point x="392" y="158"/>
			<point x="411" y="158" type="curve" smooth="yes"/>
			<point x="487" y="158"/>
			<point x="602" y="790"/>
			<point x="603" y="838" type="curve" smooth="yes"/>
			<point x="604" y="866"/>
			<point x="597" y="880"/>
			<point x="584" y="880" type="curve" smooth="yes"/>
			<point x="508" y="880"/>
			<point x="388" y="266"/>
		</contour>
	</outline>
</glyph>
<glyph name="q" format="2">
	<advance width="979" height="2310"/>
	<unicode hex="0071"/>
	<anchor x="555" y="1040" name="Anchor-0"/>
	<anchor x="205" y="0" name="Anchor-1"/>
	<anchor x="205" y="0" name="Anchor-2"/>
	<outline>
		<contour>
			<point x="3" y="330" type="curve" smooth="yes"/>
			<point x="3" y="770"/>
			<point x="279" y="1078"/>
			<point x="508" y="1078" type="curve" smooth="yes"/>
			<point x="601" y="1078"/>
			<point x="650" y="1021"/>
			<point x="658" y="964" type="curve" smooth="yes"/>
			<point x="664" y="919"/>
			<point x="679" y="932"/>
			<point x="685" y="964" type="curve" smooth="yes"/>
			<point x="693" y="1004" type="line" smooth="yes"/>
			<point x="701" y="1038"/>
			<point x="708" y="1040"/>
			<point x="742" y="1040" type="curve" smooth="yes"/>
			<point x="989" y="1040" type="line" smooth="yes"/>
			<point x="1045" y="1040"/>
			<point x="1048" y="1035"/>
			<point x="1037" y="990" type="curve" smooth="yes"/>
			<point x="757" y="-230" type="line" smooth="yes"/>
			<point x="747" y="-273"/>
			<point x="745" y="-290"/>
			<point x="786" y="-290" type="curve" smooth="yes"/>
			<point x="787" y="-290" type="line" smooth="yes"/>
			<point x="817" y="-290"/>
			<point x="821" y="-299"/>
			<point x="821" y="-340" type="curve" smooth="yes"/>
			<point x="821" y="-445" type="line" smooth="yes"/>
			<point x="821" y="-494"/>
			<point x="815" y="-500"/>
			<point x="767" y="-500" type="curve" smooth="yes"/>
			<point x="402" y="-500" type="line" smooth="yes"/>
			<point x="351" y="-500"/>
			<point x="344" y="-493"/>
			<point x="354" y="-444" type="curve" smooth="yes"/>
			<point x="455" y="8" type="line" smooth="yes"/>
			<point x="465" y="51"/>
			<point x="435" y="27"/>
			<point x="412" y="7" type="curve" smooth="yes"/>
			<point x="377" y="-23"/>
			<point x="328" y="-40"/>
			<point x="269" y="-40" type="curve" smooth="yes"/>
			<point x="136" y="-40"/>
			<point x="3" y="70"/>
		</contour>
		<contour>
			<point x="613" y="840" type="curve" smooth="yes"/>
			<point x="613" y="861"/>
			<point x="607" y="880"/>
			<point x="588" y="880" type="curve" smooth="yes"/>
			<point x="512" y="880"/>
			<point x="389" y="248"/>
			<point x="388" y="200" type="curve" smooth="yes"/>
			<point x="387" y="172"/>
			<point x="394" y="158"/>
			<point x="407" y="158" type="curve" smooth="yes"/>
			<point x="483" y="158"/>
			<point x="611" y="772"/>
		</contour>
	</outline>
</glyph>
<glyph name="r" format="2">
	<advance width="956" height="2310"/>
	<unicode hex="0072"/>
	<anchor x="588" y="1040" name="Anchor-0"/>
	<anchor x="171" y="0" name="Anchor-1"/>
	<anchor x="171" y="0" name="Anchor-2"/>
	<outline>
		<contour>
			<point x="94" y="1040" type="curve" smooth="yes"/>
			<point x="477" y="1040" type="line" smooth="yes"/>
			<point x="528" y="1040"/>
			<point x="552" y="1034"/>
			<point x="542" y="984" type="curve" smooth="yes"/>
			<point x="533" y="938" type="line" smooth="yes"/>
			<point x="524" y="891"/>
			<point x="534" y="878"/>
			<point x="554" y="919" type="curve" smooth="yes"/>
			<point x="604" y="1023"/>
			<point x="663" y="1066"/>
			<point x="765" y="1066" type="curve" smooth="yes"/>
			<point x="882" y="1066"/>
			<point x="1004" y="974"/>
			<point x="1004" y="838" type="curve" smooth="yes"/>
			<point x="1004" y="674"/>
			<point x="892" y="560"/>
			<point x="733" y="560" type="curve" smooth="yes"/>
			<point x="624" y="560"/>
			<point x="562" y="638"/>
			<point x="564" y="720" type="curve" smooth="yes"/>
			<point x="565" y="748"/>
			<point x="572" y="756"/>
			<point x="572" y="770" type="curve" smooth="yes"/>
			<point x="572" y="778"/>
			<point x="568" y="780"/>
			<point x="564" y="780" type="curve" smooth="yes"/>
			<point x="535" y="780"/>
			<point x="510" y="664"/>
			<point x="451" y="387" type="curve" smooth="yes"/>
			<point x="382" y="70" type="line" smooth="yes"/>
			<point x="371" y="18"/>
			<point x="368" y="0"/>
			<point x="304" y="0" type="curve" smooth="yes"/>
			<point x="20" y="0" type="line" smooth="yes"/>
			<point x="-37" y="0"/>
			<point x="-48" y="6"/>
			<point x="-38" y="50" type="curve" smooth="yes"/>
			<point x="131" y="774" type="line" smooth="yes"/>
			<point x="142" y="822"/>
			<point x="141" y="830"/>
			<point x="102" y="830" type="curve" smooth="yes"/>
			<point x="96" y="830" type="line" smooth="yes"/>
			<point x="62" y="830"/>
			<point x="60" y="838"/>
			<point x="60" y="882" type="curve" smooth="yes"/>
			<point x="60" y="999" type="line" smooth="yes"/>
			<point x="60" y="1030"/>
			<point x="64" y="1040"/>
		</contour>
	</outline>
</glyph>
<glyph name="s" format="2">
	<advance width="825" height="2310"/>
	<unicode hex="0073"/>
	<anchor x="489" y="1040" name="Anchor-0"/>
	<anchor x="260" y="0" name="Anchor-1"/>
	<anchor x="260" y="0" name="Anchor-2"/>
	<outline>
		<contour>
			<point x="383" y="265" type="curve" smooth="yes"/>
			<point x="388" y="469"/>
			<point x="70" y="508"/>
			<point x="70" y="760" type="curve" smooth="yes"/>
			<point x="70" y="968"/>
			<point x="250" y="1084"/>
			<point x="498" y="1084" type="curve" smooth="yes"/>
			<point x="755" y="1084"/>
			<point x="877" y="944"/>
			<point x="877" y="812" type="curve" smooth="yes"/>
			<point x="877" y="712"/>
			<point x="803" y="624"/>
			<point x="679" y="624" type="curve" smooth="yes"/>
			<point x="596" y="624"/>
			<point x="524" y="690"/>
			<point x="526" y="780" type="curve" smooth="yes"/>
			<point x="527" y="838"/>
			<point x="546" y="848"/>
			<point x="547" y="872" type="curve" smooth="yes"/>
			<point x="547" y="892"/>
			<point x="538" y="904"/>
			<point x="515" y="904" type="curve" smooth="yes"/>
			<point x="491" y="904"/>
			<point x="476" y="866"/>
			<point x="475" y="812" type="curve" smooth="yes"/>
			<point x="471" y="632"/>
			<point x="800" y="624"/>
			<point x="800" y="348" type="curve" smooth="yes"/>
			<point x="800" y="50"/>
			<point x="540" y="-44"/>
			<point x="324" y="-44" type="curve" smooth="yes"/>
			<point x="93" y="-44"/>
			<point x="-66" y="92"/>
			<point x="-66" y="272" type="curve" smooth="yes"/>
			<point x="-66" y="388"/>
			<point x="2" y="492"/>
			<point x="132" y="492" type="curve" smooth="yes"/>
			<point x="235" y="492"/>
			<point x="309" y="428"/>
			<point x="309" y="334" type="curve" smooth="yes"/>
			<point x="307" y="228"/>
			<point x="251" y="218"/>
			<point x="251" y="198" type="curve" smooth="yes"/>
			<point x="251" y="180"/>
			<point x="274" y="156"/>
			<point x="314" y="156" type="curve" smooth="yes"/>
			<point x="345" y="156"/>
			<point x="381" y="183"/>
		</contour>
	</outline>
</glyph>
<glyph name="t" format="2">
	<advance width="588" height="2310"/>
	<unicode hex="0074"/>
	<anchor x="590" y="1277" name="Anchor-0"/>
	<anchor x="749" y="1153" name="Anchor-1"/>
	<anchor x="285" y="0" name="Anchor-2"/>
	<outline>
		<contour>
			<point x="129" y="1040" type="curve" smooth="yes"/>
			<point x="151" y="1040" type="line" smooth="yes"/>
			<point x="190" y="1040"/>
			<point x="186" y="1048"/>
			<point x="193" y="1078" type="curve" smooth="yes"/>
			<point x="220" y="1192" type="line" smooth="yes"/>
			<point x="226" y="1215"/>
			<point x="233" y="1222"/>
			<point x="259" y="1223" type="curve" smooth="yes"/>
			<point x="379" y="1229"/>
			<point x="450" y="1265"/>
			<point x="487" y="1291" type="curve" smooth="yes"/>
			<point x="525" y="1318"/>
			<point x="518" y="1316"/>
			<point x="579" y="1316" type="curve" smooth="yes"/>
			<point x="628" y="1316"/>
			<point x="645" y="1314"/>
			<point x="636" y="1278" type="curve" smooth="yes"/>
			<point x="589" y="1084" type="line" smooth="yes"/>
			<point x="580" y="1048"/>
			<point x="578" y="1040"/>
			<point x="617" y="1040" type="curve" smooth="yes"/>
			<point x="621" y="1040" type="line" smooth="yes"/>
			<point x="650" y="1040"/>
			<point x="665" y="1038"/>
			<point x="665" y="1006" type="curve" smooth="yes"/>
			<point x="665" y="884" type="line" smooth="yes"/>
			<point x="665" y="838"/>
			<point x="663" y="830"/>
			<point x="617" y="830" type="curve" smooth="yes"/>
			<point x="558" y="830" type="line" smooth="yes"/>
			<point x="529" y="830"/>
			<point x="524" y="820"/>
			<point x="517" y="792" type="curve" smooth="yes"/>
			<point x="393" y="274" type="line" smooth="yes"/>
			<point x="383" y="236"/>
			<point x="372" y="184"/>
			<point x="389" y="184" type="curve" smooth="yes"/>
			<point x="408" y="184"/>
			<point x="419" y="225"/>
			<point x="437" y="278" type="curve" smooth="yes"/>
			<point x="447" y="307"/>
			<point x="451" y="315"/>
			<point x="495" y="307" type="curve" smooth="yes"/>
			<point x="545" y="298" type="line" smooth="yes"/>
			<point x="582" y="291"/>
			<point x="581" y="274"/>
			<point x="565" y="233" type="curve" smooth="yes"/>
			<point x="493" y="52"/>
			<point x="426" y="-40"/>
			<point x="223" y="-40" type="curve" smooth="yes"/>
			<point x="41" y="-40"/>
			<point x="-43" y="60"/>
			<point x="-1" y="252" type="curve" smooth="yes"/>
			<point x="126" y="782" type="line" smooth="yes"/>
			<point x="133" y="812"/>
			<point x="140" y="830"/>
			<point x="107" y="830" type="curve" smooth="yes"/>
			<point x="105" y="830" type="line" smooth="yes"/>
			<point x="76" y="830"/>
			<point x="67" y="832"/>
			<point x="67" y="875" type="curve" smooth="yes"/>
			<point x="67" y="995" type="line" smooth="yes"/>
			<point x="67" y="1039"/>
			<point x="89" y="1040"/>
		</contour>
	</outline>
</glyph>
<glyph name="u" format="2">
	<advance width="1109" height="2310"/>
	<unicode hex="0075"/>
	<anchor x="671" y="1040" name="Anchor-0"/>
	<anchor x="404" y="0" name="Anchor-1"/>
	<anchor x="404" y="0" name="Anchor-2"/>
	<anchor x="1124" y="50" name="Anchor-3"/>
	<outline>
		<contour>
			<point x="47" y="797" type="curve" smooth="yes"/>
			<point x="96" y="980"/>
			<point x="227" y="1080"/>
			<point x="374" y="1080" type="curve" smooth="yes"/>
			<point x="589" y="1080"/>
			<point x="637" y="961"/>
			<point x="592" y="790" type="curve" smooth="yes"/>
			<point x="494" y="420" type="line" smooth="yes"/>
			<point x="458" y="292"/>
			<point x="455" y="214"/>
			<point x="487" y="214" type="curve" smooth="yes"/>
			<point x="532" y="214"/>
			<point x="595" y="462"/>
			<point x="652" y="728" type="curve" smooth="yes"/>
			<point x="706" y="976" type="line" smooth="yes"/>
			<point x="714" y="1014"/>
			<point x="718" y="1040"/>
			<point x="764" y="1040" type="curve" smooth="yes"/>
			<point x="1066" y="1040" type="line" smooth="yes"/>
			<point x="1124" y="1040"/>
			<point x="1137" y="1040"/>
			<point x="1125" y="994" type="curve" smooth="yes"/>
			<point x="934" y="252" type="line" smooth="yes"/>
			<point x="926" y="222"/>
			<point x="917" y="184"/>
			<point x="935" y="184" type="curve" smooth="yes"/>
			<point x="957" y="184"/>
			<point x="962" y="208"/>
			<point x="987" y="274" type="curve" smooth="yes"/>
			<point x="998" y="304"/>
			<point x="996" y="315"/>
			<point x="1039" y="308" type="curve" smooth="yes"/>
			<point x="1096" y="299" type="line" smooth="yes"/>
			<point x="1130" y="295"/>
			<point x="1130" y="277"/>
			<point x="1120" y="236" type="curve" smooth="yes"/>
			<point x="1073" y="50"/>
			<point x="948" y="-50"/>
			<point x="771" y="-50" type="curve" smooth="yes"/>
			<point x="604" y="-50"/>
			<point x="551" y="29"/>
			<point x="551" y="100" type="curve" smooth="yes"/>
			<point x="551" y="120" type="line" smooth="yes"/>
			<point x="551" y="137"/>
			<point x="533" y="139"/>
			<point x="522" y="114" type="curve" smooth="yes"/>
			<point x="477" y="7"/>
			<point x="423" y="-38"/>
			<point x="290" y="-38" type="curve" smooth="yes"/>
			<point x="167" y="-38"/>
			<point x="-1" y="28"/>
			<point x="107" y="358" type="curve"/>
			<point x="230" y="780" type="line" smooth="yes"/>
			<point x="239" y="810"/>
			<point x="246" y="846"/>
			<point x="228" y="846" type="curve" smooth="yes"/>
			<point x="214" y="846"/>
			<point x="202" y="827"/>
			<point x="177" y="746" type="curve" smooth="yes"/>
			<point x="170" y="724"/>
			<point x="171" y="712"/>
			<point x="131" y="720" type="curve" smooth="yes"/>
			<point x="63" y="733" type="line" smooth="yes"/>
			<point x="34" y="739"/>
			<point x="36" y="757"/>
		</contour>
	</outline>
</glyph>
<glyph name="v" format="2">
	<advance width="918" height="2310"/>
	<unicode hex="0076"/>
	<anchor x="753" y="1040" name="Anchor-0"/>
	<anchor x="507" y="0" name="Anchor-1"/>
	<anchor x="507" y="0" name="Anchor-2"/>
	<outline>
		<contour>
			<point x="665" y="674" type="curve" smooth="yes"/>
			<point x="560" y="674"/>
			<point x="492" y="750"/>
			<point x="495" y="876" type="curve" smooth="yes"/>
			<point x="498" y="996"/>
			<point x="573" y="1088"/>
			<point x="706" y="1088" type="curve" smooth="yes"/>
			<point x="857" y="1088"/>
			<point x="960" y="1000"/>
			<point x="960" y="818" type="curve" smooth="yes"/>
			<point x="960" y="531"/>
			<point x="810" y="327"/>
			<point x="309" y="-11" type="curve" smooth="yes"/>
			<point x="277" y="-33"/>
			<point x="257" y="-49"/>
			<point x="224" y="-28" type="curve" smooth="yes"/>
			<point x="127" y="34" type="line" smooth="yes"/>
			<point x="110" y="45"/>
			<point x="110" y="48"/>
			<point x="117" y="76" type="curve" smooth="yes"/>
			<point x="128" y="119"/>
			<point x="148" y="177"/>
			<point x="149" y="240" type="curve" smooth="yes"/>
			<point x="149" y="434"/>
			<point x="49" y="618"/>
			<point x="49" y="806" type="curve" smooth="yes"/>
			<point x="49" y="949"/>
			<point x="194" y="989"/>
			<point x="411" y="1089" type="curve" smooth="yes"/>
			<point x="430" y="1099"/>
			<point x="431" y="1102"/>
			<point x="439" y="1079" type="curve" smooth="yes"/>
			<point x="483" y="949" type="line" smooth="yes"/>
			<point x="491" y="927"/>
			<point x="491" y="923"/>
			<point x="479" y="912" type="curve" smooth="yes"/>
			<point x="470" y="904"/>
			<point x="456" y="887"/>
			<point x="455" y="860" type="curve" smooth="yes"/>
			<point x="452" y="721"/>
			<point x="540" y="653"/>
			<point x="542" y="407" type="curve" smooth="yes"/>
			<point x="543" y="391"/>
			<point x="541" y="381"/>
			<point x="544" y="376" type="curve" smooth="yes"/>
			<point x="548" y="368"/>
			<point x="558" y="373"/>
			<point x="575" y="389" type="curve" smooth="yes"/>
			<point x="705" y="508"/>
			<point x="803" y="642"/>
			<point x="803" y="756" type="curve" smooth="yes"/>
			<point x="803" y="762"/>
			<point x="800" y="765"/>
			<point x="795" y="765" type="curve" smooth="yes"/>
			<point x="775" y="765"/>
			<point x="766" y="674"/>
		</contour>
	</outline>
</glyph>
<glyph name="w" format="2">
	<advance width="1544" height="2310"/>
	<unicode hex="0077"/>
	<anchor x="756" y="1040" name="Anchor-0"/>
	<anchor x="577" y="0" name="Anchor-1"/>
	<anchor x="577" y="0" name="Anchor-2"/>
	<outline>
		<contour>
			<point x="48" y="797" type="curve" smooth="yes"/>
			<point x="97" y="979"/>
			<point x="226" y="1078"/>
			<point x="407" y="1078" type="curve" smooth="yes"/>
			<point x="587" y="1078"/>
			<point x="651" y="994"/>
			<point x="651" y="892" type="curve" smooth="yes"/>
			<point x="652" y="854"/>
			<point x="643" y="818"/>
			<point x="633" y="788" type="curve" smooth="yes"/>
			<point x="537" y="438" type="line" smooth="yes"/>
			<point x="499" y="310"/>
			<point x="484" y="232"/>
			<point x="520" y="232" type="curve" smooth="yes"/>
			<point x="612" y="232"/>
			<point x="676" y="446"/>
			<point x="728" y="707" type="curve" smooth="yes"/>
			<point x="781" y="991" type="line" smooth="yes"/>
			<point x="788" y="1032"/>
			<point x="798" y="1040"/>
			<point x="849" y="1040" type="curve" smooth="yes"/>
			<point x="1151" y="1040" type="line" smooth="yes"/>
			<point x="1218" y="1040"/>
			<point x="1213" y="1030"/>
			<point x="1200" y="973" type="curve" smooth="yes"/>
			<point x="1056" y="418" type="line" smooth="yes"/>
			<point x="1013" y="251"/>
			<point x="999" y="205"/>
			<point x="1041" y="205" type="curve" smooth="yes"/>
			<point x="1122" y="205"/>
			<point x="1338" y="574"/>
			<point x="1338" y="610" type="curve" smooth="yes"/>
			<point x="1338" y="622"/>
			<point x="1336" y="628"/>
			<point x="1330" y="628" type="curve" smooth="yes"/>
			<point x="1324" y="628"/>
			<point x="1311" y="624"/>
			<point x="1291" y="624" type="curve" smooth="yes"/>
			<point x="1265" y="624"/>
			<point x="1193" y="640"/>
			<point x="1193" y="806" type="curve" smooth="yes"/>
			<point x="1193" y="956"/>
			<point x="1285" y="1068"/>
			<point x="1426" y="1068" type="curve" smooth="yes"/>
			<point x="1550" y="1068"/>
			<point x="1604" y="966"/>
			<point x="1604" y="848" type="curve" smooth="yes"/>
			<point x="1604" y="638"/>
			<point x="1372" y="-40"/>
			<point x="894" y="-40" type="curve" smooth="yes"/>
			<point x="684" y="-40"/>
			<point x="662" y="38"/>
			<point x="642" y="102" type="curve" smooth="yes"/>
			<point x="631" y="137"/>
			<point x="622" y="146"/>
			<point x="597" y="103" type="curve" smooth="yes"/>
			<point x="528" y="-1"/>
			<point x="435" y="-40"/>
			<point x="311" y="-40" type="curve" smooth="yes"/>
			<point x="163" y="-40"/>
			<point x="4" y="24"/>
			<point x="107" y="356" type="curve" smooth="yes"/>
			<point x="230" y="780" type="line" smooth="yes"/>
			<point x="235" y="796"/>
			<point x="239" y="813"/>
			<point x="239" y="828" type="curve" smooth="yes"/>
			<point x="239" y="840"/>
			<point x="235" y="846"/>
			<point x="229" y="846" type="curve" smooth="yes"/>
			<point x="213" y="846"/>
			<point x="206" y="830"/>
			<point x="179" y="745" type="curve" smooth="yes"/>
			<point x="172" y="723"/>
			<point x="168" y="713"/>
			<point x="113" y="724" type="curve" smooth="yes"/>
			<point x="67" y="733" type="line" smooth="yes"/>
			<point x="40" y="738"/>
			<point x="35" y="748"/>
		</contour>
	</outline>
</glyph>
<glyph name="x" format="2">
	<advance width="1061" height="2310"/>
	<unicode hex="0078"/>
	<anchor x="664" y="1040" name="Anchor-0"/>
	<anchor x="417" y="2" name="Anchor-1"/>
	<anchor x="417" y="2" name="Anchor-2"/>
	<outline>
		<contour>
			<point x="-49" y="248" type="curve" smooth="yes"/>
			<point x="-49" y="416"/>
			<point x="67" y="538"/>
			<point x="187" y="538" type="curve" smooth="yes"/>
			<point x="293" y="538"/>
			<point x="353" y="470"/>
			<point x="353" y="360" type="curve" smooth="yes"/>
			<point x="350" y="226"/>
			<point x="264" y="211"/>
			<point x="264" y="179" type="curve" smooth="yes"/>
			<point x="264" y="163"/>
			<point x="273" y="160"/>
			<point x="288" y="160" type="curve" smooth="yes"/>
			<point x="332" y="160"/>
			<point x="373" y="325"/>
			<point x="389" y="413" type="curve" smooth="yes"/>
			<point x="397" y="454"/>
			<point x="396" y="463"/>
			<point x="396" y="514" type="curve" smooth="yes"/>
			<point x="395" y="606"/>
			<point x="390" y="655"/>
			<point x="379" y="725" type="curve" smooth="yes"/>
			<point x="374" y="757"/>
			<point x="364" y="780"/>
			<point x="340" y="780" type="curve" smooth="yes"/>
			<point x="314" y="780"/>
			<point x="281" y="746"/>
			<point x="239" y="662" type="curve" smooth="yes"/>
			<point x="224" y="632"/>
			<point x="226" y="621"/>
			<point x="197" y="639" type="curve" smooth="yes"/>
			<point x="75" y="710" type="line" smooth="yes"/>
			<point x="45" y="727"/>
			<point x="55" y="736"/>
			<point x="69" y="768" type="curve" smooth="yes"/>
			<point x="142" y="932"/>
			<point x="284" y="1084"/>
			<point x="465" y="1084" type="curve" smooth="yes"/>
			<point x="561" y="1084"/>
			<point x="621" y="1022"/>
			<point x="636" y="957" type="curve" smooth="yes"/>
			<point x="641" y="935"/>
			<point x="644" y="921"/>
			<point x="646" y="902" type="curve" smooth="yes"/>
			<point x="649" y="876"/>
			<point x="658" y="882"/>
			<point x="666" y="905" type="curve" smooth="yes"/>
			<point x="701" y="1001"/>
			<point x="748" y="1080"/>
			<point x="874" y="1080" type="curve" smooth="yes"/>
			<point x="1012" y="1080"/>
			<point x="1105" y="952"/>
			<point x="1105" y="788" type="curve" smooth="yes"/>
			<point x="1105" y="610"/>
			<point x="1012" y="518"/>
			<point x="892" y="518" type="curve" smooth="yes"/>
			<point x="799" y="518"/>
			<point x="724" y="566"/>
			<point x="724" y="676" type="curve" smooth="yes"/>
			<point x="727" y="800"/>
			<point x="793" y="830"/>
			<point x="795" y="872" type="curve" smooth="yes"/>
			<point x="795" y="882"/>
			<point x="794" y="886"/>
			<point x="786" y="886" type="curve" smooth="yes"/>
			<point x="770" y="886"/>
			<point x="706" y="754"/>
			<point x="696" y="663" type="curve" smooth="yes"/>
			<point x="691" y="622"/>
			<point x="687" y="611"/>
			<point x="686" y="559" type="curve" smooth="yes"/>
			<point x="685" y="481"/>
			<point x="705" y="391"/>
			<point x="724" y="307" type="curve" smooth="yes"/>
			<point x="729" y="285"/>
			<point x="742" y="256"/>
			<point x="764" y="256" type="curve" smooth="yes"/>
			<point x="793" y="256"/>
			<point x="833" y="303"/>
			<point x="877" y="384" type="curve" smooth="yes"/>
			<point x="897" y="420"/>
			<point x="895" y="440"/>
			<point x="932" y="414" type="curve" smooth="yes"/>
			<point x="1029" y="349" type="line" smooth="yes"/>
			<point x="1056" y="331"/>
			<point x="1062" y="330"/>
			<point x="1047" y="296" type="curve" smooth="yes"/>
			<point x="973" y="127"/>
			<point x="808" y="-40"/>
			<point x="641" y="-40" type="curve" smooth="yes"/>
			<point x="546" y="-40"/>
			<point x="497" y="-6"/>
			<point x="467" y="56" type="curve" smooth="yes"/>
			<point x="452" y="88"/>
			<point x="449" y="104"/>
			<point x="443" y="133" type="curve" smooth="yes"/>
			<point x="438" y="157"/>
			<point x="430" y="155"/>
			<point x="420" y="126" type="curve" smooth="yes"/>
			<point x="391" y="47"/>
			<point x="337" y="-44"/>
			<point x="236" y="-44" type="curve" smooth="yes"/>
			<point x="58" y="-44"/>
			<point x="-49" y="74"/>
		</contour>
	</outline>
</glyph>
<glyph name="y" format="2">
	<advance width="1046" height="2310"/>
	<unicode hex="0079"/>
	<anchor x="663" y="1040" name="Anchor-0"/>
	<anchor x="25" y="-565" name="Anchor-1"/>
	<anchor x="25" y="-565" name="Anchor-2"/>
	<outline>
		<contour>
			<point x="770" y="696" type="curve" smooth="yes"/>
			<point x="681" y="696"/>
			<point x="623" y="792"/>
			<point x="625" y="888" type="curve" smooth="yes"/>
			<point x="628" y="1028"/>
			<point x="727" y="1090"/>
			<point x="840" y="1090" type="curve" smooth="yes"/>
			<point x="998" y="1090"/>
			<point x="1080" y="942"/>
			<point x="1080" y="780" type="curve" smooth="yes"/>
			<point x="1080" y="370"/>
			<point x="563" y="-480"/>
			<point x="228" y="-540" type="curve" smooth="yes"/>
			<point x="32" y="-575"/>
			<point x="-98" y="-416"/>
			<point x="-94" y="-212" type="curve" smooth="yes"/>
			<point x="-94" y="-60"/>
			<point x="-7" y="114"/>
			<point x="152" y="114" type="curve" smooth="yes"/>
			<point x="242" y="114"/>
			<point x="321" y="48"/>
			<point x="317" y="-74" type="curve" smooth="yes"/>
			<point x="311" y="-256"/>
			<point x="193" y="-270"/>
			<point x="192" y="-310" type="curve" smooth="yes"/>
			<point x="192" y="-320"/>
			<point x="197" y="-336"/>
			<point x="215" y="-336" type="curve" smooth="yes"/>
			<point x="276" y="-336"/>
			<point x="347" y="-234"/>
			<point x="390" y="-170" type="curve" smooth="yes"/>
			<point x="406" y="-146"/>
			<point x="412" y="-153"/>
			<point x="401" y="-125" type="curve" smooth="yes"/>
			<point x="283" y="160"/>
			<point x="263" y="669"/>
			<point x="227" y="805" type="curve" smooth="yes"/>
			<point x="221" y="826"/>
			<point x="216" y="850"/>
			<point x="187" y="850" type="curve" smooth="yes"/>
			<point x="168" y="850"/>
			<point x="157" y="828"/>
			<point x="129" y="732" type="curve" smooth="yes"/>
			<point x="123" y="712"/>
			<point x="109" y="718"/>
			<point x="89" y="722" type="curve" smooth="yes"/>
			<point x="6" y="738" type="line" smooth="yes"/>
			<point x="-18" y="743"/>
			<point x="-7" y="754"/>
			<point x="-1" y="778" type="curve" smooth="yes"/>
			<point x="54" y="984"/>
			<point x="186" y="1084"/>
			<point x="336" y="1084" type="curve" smooth="yes"/>
			<point x="511" y="1084"/>
			<point x="558" y="1010"/>
			<point x="586" y="895" type="curve" smooth="yes"/>
			<point x="620" y="752"/>
			<point x="608" y="568"/>
			<point x="674" y="289" type="curve" smooth="yes"/>
			<point x="685" y="241"/>
			<point x="689" y="240"/>
			<point x="710" y="278" type="curve" smooth="yes"/>
			<point x="797" y="428"/>
			<point x="864" y="622"/>
			<point x="864" y="718" type="curve" smooth="yes"/>
			<point x="864" y="730"/>
			<point x="863" y="736"/>
			<point x="857" y="736" type="curve" smooth="yes"/>
			<point x="838" y="736"/>
			<point x="838" y="696"/>
		</contour>
	</outline>
</glyph>
<glyph name="z" format="2">
	<advance width="935" height="2310"/>
	<unicode hex="007A"/>
	<anchor x="707" y="1040" name="Anchor-0"/>
	<anchor x="429" y="0" name="Anchor-1"/>
	<anchor x="429" y="0" name="Anchor-2"/>
	<outline>
		<contour>
			<point x="44" y="695" type="curve" smooth="yes"/>
			<point x="162" y="825"/>
			<point x="303" y="1080"/>
			<point x="482" y="1080" type="curve" smooth="yes"/>
			<point x="606" y="1080"/>
			<point x="639" y="982"/>
			<point x="712" y="982" type="curve" smooth="yes"/>
			<point x="780" y="982"/>
			<point x="795" y="1005"/>
			<point x="856" y="1051" type="curve" smooth="yes"/>
			<point x="881" y="1068"/>
			<point x="880" y="1072"/>
			<point x="900" y="1049" type="curve" smooth="yes"/>
			<point x="975" y="960" type="line" smooth="yes"/>
			<point x="1000" y="930"/>
			<point x="1000" y="930"/>
			<point x="968" y="906" type="curve" smooth="yes"/>
			<point x="436" y="410" type="line" smooth="yes"/>
			<point x="405" y="383"/>
			<point x="385" y="375"/>
			<point x="387" y="365" type="curve" smooth="yes"/>
			<point x="390" y="352"/>
			<point x="405" y="367"/>
			<point x="440" y="376" type="curve" smooth="yes"/>
			<point x="460" y="381"/>
			<point x="477" y="384"/>
			<point x="490" y="384" type="curve" smooth="yes"/>
			<point x="540" y="384"/>
			<point x="590" y="380"/>
			<point x="632" y="380" type="curve" smooth="yes"/>
			<point x="694" y="380"/>
			<point x="736" y="428"/>
			<point x="793" y="509" type="curve" smooth="yes"/>
			<point x="811" y="534"/>
			<point x="813" y="526"/>
			<point x="836" y="508" type="curve" smooth="yes"/>
			<point x="939" y="428" type="line" smooth="yes"/>
			<point x="963" y="410"/>
			<point x="958" y="409"/>
			<point x="941" y="383" type="curve" smooth="yes"/>
			<point x="842" y="234"/>
			<point x="665" y="-40"/>
			<point x="462" y="-40" type="curve" smooth="yes"/>
			<point x="341" y="-40"/>
			<point x="303" y="48"/>
			<point x="228" y="48" type="curve" smooth="yes"/>
			<point x="178" y="48"/>
			<point x="146" y="30"/>
			<point x="77" y="-11" type="curve" smooth="yes"/>
			<point x="48" y="-27"/>
			<point x="49" y="-33"/>
			<point x="28" y="-8" type="curve" smooth="yes"/>
			<point x="-64" y="100" type="line" smooth="yes"/>
			<point x="-81" y="120"/>
			<point x="-81" y="120"/>
			<point x="-59" y="136" type="curve" smooth="yes"/>
			<point x="459" y="641" type="line" smooth="yes"/>
			<point x="475" y="655"/>
			<point x="489" y="666"/>
			<point x="484" y="675" type="curve" smooth="yes"/>
			<point x="481" y="681"/>
			<point x="473" y="677"/>
			<point x="464" y="672" type="curve" smooth="yes"/>
			<point x="455" y="667"/>
			<point x="445" y="665"/>
			<point x="426" y="665" type="curve" smooth="yes"/>
			<point x="402" y="665"/>
			<point x="337" y="679"/>
			<point x="316" y="679" type="curve" smooth="yes"/>
			<point x="273" y="679"/>
			<point x="259" y="646"/>
			<point x="207" y="591" type="curve" smooth="yes"/>
			<point x="181" y="565"/>
			<point x="182" y="555"/>
			<point x="149" y="578" type="curve" smooth="yes"/>
			<point x="56" y="645" type="line" smooth="yes"/>
			<point x="25" y="667"/>
			<point x="17" y="666"/>
		</contour>
	</outline>
</glyph>
<glyph name="asciitilde" format="2">
	<advance width="1376" height="2310"/>
	<unicode hex="007E"/>
	<outline>
		<contour>
			<point x="486" y="814" type="curve" smooth="yes"/>
			<point x="418" y="814"/>
			<point x="362" y="786"/>
			<point x="332" y="733" type="curve" smooth="yes"/>
			<point x="317" y="707"/>
			<point x="316" y="686"/>
			<point x="272" y="686" type="curve" smooth="yes"/>
			<point x="156" y="686" type="line" smooth="yes"/>
			<point x="122" y="686"/>
			<point x="121" y="697"/>
			<point x="126" y="724" type="curve" smooth="yes"/>
			<point x="162" y="900"/>
			<point x="316" y="1060"/>
			<point x="538" y="1060" type="curve" smooth="yes"/>
			<point x="778" y="1060"/>
			<point x="738" y="892"/>
			<point x="890" y="892" type="curve" smooth="yes"/>
			<point x="963" y="892"/>
			<point x="1022" y="924"/>
			<point x="1050" y="985" type="curve" smooth="yes"/>
			<point x="1061" y="1008"/>
			<point x="1064" y="1020"/>
			<point x="1100" y="1020" type="curve" smooth="yes"/>
			<point x="1202" y="1020" type="line" smooth="yes"/>
			<point x="1250" y="1020"/>
			<point x="1257" y="1015"/>
			<point x="1249" y="974" type="curve" smooth="yes"/>
			<point x="1215" y="801"/>
			<point x="1093" y="646"/>
			<point x="838" y="646" type="curve" smooth="yes"/>
			<point x="604" y="646"/>
			<point x="652" y="814"/>
		</contour>
	</outline>
</glyph>
<glyph name="exclamdown" format="2">
	<advance width="765" height="0"/>
	<unicode hex="00A1"/>
	<outline>
		<contour>
			<point x="672" y="840" type="curve" smooth="yes"/>
			<point x="672" y="708"/>
			<point x="564" y="600"/>
			<point x="432" y="600" type="curve" smooth="yes"/>
			<point x="300" y="600"/>
			<point x="192" y="708"/>
			<point x="192" y="840" type="curve" smooth="yes"/>
			<point x="192" y="972"/>
			<point x="300" y="1080"/>
			<point x="432" y="1080" type="curve" smooth="yes"/>
			<point x="564" y="1080"/>
			<point x="672" y="972"/>
		</contour>
		<contour>
			<point x="-78" y="-156" type="curve" smooth="yes"/>
			<point x="43" y="167"/>
			<point x="200" y="215"/>
			<point x="279" y="478" type="curve" smooth="yes"/>
			<point x="288" y="508"/>
			<point x="298" y="510"/>
			<point x="338" y="510" type="curve" smooth="yes"/>
			<point x="384" y="510" type="line" smooth="yes"/>
			<point x="432" y="510"/>
			<point x="449" y="508"/>
			<point x="441" y="470" type="curve" smooth="yes"/>
			<point x="389" y="207"/>
			<point x="501" y="87"/>
			<point x="432" y="-258" type="curve" smooth="yes"/>
			<point x="404" y="-398"/>
			<point x="296" y="-478"/>
			<point x="156" y="-478" type="curve" smooth="yes"/>
			<point x="-8" y="-478"/>
			<point x="-100" y="-376"/>
			<point x="-100" y="-274" type="curve" smooth="yes"/>
			<point x="-100" y="-238"/>
			<point x="-90" y="-187"/>
		</contour>
	</outline>
</glyph>
<glyph name="cent" format="2">
	<advance width="1096" height="2310"/>
	<unicode hex="00A2"/>
	<outline>
		<contour>
			<point x="725" y="1230" type="curve" smooth="yes"/>
			<point x="825" y="1230" type="line" smooth="yes"/>
			<point x="846" y="1230"/>
			<point x="853" y="1224"/>
			<point x="846" y="1205" type="curve" smooth="yes"/>
			<point x="363" y="-146" type="line" smooth="yes"/>
			<point x="357" y="-163"/>
			<point x="352" y="-170"/>
			<point x="333" y="-170" type="curve" smooth="yes"/>
			<point x="239" y="-170" type="line" smooth="yes"/>
			<point x="217" y="-170"/>
			<point x="209" y="-163"/>
			<point x="215" y="-147" type="curve" smooth="yes"/>
			<point x="698" y="1216" type="line" smooth="yes"/>
			<point x="702" y="1228"/>
			<point x="710" y="1230"/>
		</contour>
		<component base="c"/>
	</outline>
</glyph>
<glyph name="currency" format="2">
	<advance width="1140" height="0"/>
	<unicode hex="00A4"/>
	<outline>
		<contour>
			<point x="8" y="238" type="line"/>
			<point x="-63" y="331" type="line"/>
			<point x="131" y="489" type="line"/>
			<point x="81" y="573"/>
			<point x="85" y="653"/>
			<point x="112" y="770" type="curve" smooth="yes"/>
			<point x="139" y="887"/>
			<point x="183" y="967"/>
			<point x="261" y="1051" type="curve"/>
			<point x="139" y="1209" type="line"/>
			<point x="254" y="1302" type="line"/>
			<point x="375" y="1144" type="line"/>
			<point x="459" y="1196"/>
			<point x="547" y="1229"/>
			<point x="677" y="1229" type="curve" smooth="yes"/>
			<point x="807" y="1229"/>
			<point x="878" y="1196"/>
			<point x="939" y="1145" type="curve"/>
			<point x="1132" y="1302" type="line"/>
			<point x="1203" y="1209" type="line"/>
			<point x="1009" y="1051" type="line"/>
			<point x="1049" y="967"/>
			<point x="1055" y="887"/>
			<point x="1028" y="770" type="curve" smooth="yes"/>
			<point x="1001" y="654"/>
			<point x="959" y="573"/>
			<point x="880" y="488" type="curve"/>
			<point x="1001" y="331" type="line"/>
			<point x="886" y="238" type="line"/>
			<point x="765" y="395" type="line"/>
			<point x="681" y="344"/>
			<point x="594" y="310"/>
			<point x="465" y="310" type="curve" smooth="yes"/>
			<point x="335" y="310"/>
			<point x="261" y="344"/>
			<point x="201" y="395" type="curve"/>
		</contour>
		<contour>
			<point x="502" y="473" type="curve" smooth="yes"/>
			<point x="685" y="473"/>
			<point x="817" y="591"/>
			<point x="858" y="770" type="curve" smooth="yes"/>
			<point x="899" y="949"/>
			<point x="822" y="1067"/>
			<point x="640" y="1067" type="curve" smooth="yes"/>
			<point x="457" y="1067"/>
			<point x="323" y="949"/>
			<point x="282" y="770" type="curve" smooth="yes"/>
			<point x="241" y="591"/>
			<point x="320" y="473"/>
		</contour>
	</outline>
</glyph>
<glyph name="yen" format="2">
	<advance width="1570" height="0"/>
	<unicode hex="00A5"/>
	<outline>
		<contour>
			<point x="156" y="582" type="curve" smooth="yes"/>
			<point x="1217" y="582" type="line" smooth="yes"/>
			<point x="1255" y="582"/>
			<point x="1260" y="578"/>
			<point x="1260" y="554" type="curve" smooth="yes"/>
			<point x="1260" y="385" type="line" smooth="yes"/>
			<point x="1260" y="361"/>
			<point x="1256" y="352"/>
			<point x="1213" y="352" type="curve" smooth="yes"/>
			<point x="153" y="352" type="line" smooth="yes"/>
			<point x="111" y="352"/>
			<point x="110" y="356"/>
			<point x="110" y="382" type="curve" smooth="yes"/>
			<point x="110" y="554" type="line" smooth="yes"/>
			<point x="110" y="577"/>
			<point x="121" y="582"/>
		</contour>
		<contour>
			<point x="218" y="922" type="curve" smooth="yes"/>
			<point x="1277" y="922" type="line" smooth="yes"/>
			<point x="1315" y="922"/>
			<point x="1320" y="918"/>
			<point x="1320" y="894" type="curve" smooth="yes"/>
			<point x="1320" y="725" type="line" smooth="yes"/>
			<point x="1320" y="701"/>
			<point x="1317" y="692"/>
			<point x="1274" y="692" type="curve" smooth="yes"/>
			<point x="215" y="692" type="line" smooth="yes"/>
			<point x="174" y="692"/>
			<point x="172" y="696"/>
			<point x="172" y="722" type="curve" smooth="yes"/>
			<point x="172" y="894" type="line" smooth="yes"/>
			<point x="172" y="917"/>
			<point x="183" y="922"/>
		</contour>
		<component base="Y"/>
	</outline>
</glyph>
<glyph name="copyright" format="2">
	<advance width="1739" height="0"/>
	<unicode hex="00A9"/>
	<outline>
		<contour>
			<point x="747" y="73" type="curve" smooth="yes"/>
			<point x="1130" y="73"/>
			<point x="1486" y="349"/>
			<point x="1579" y="750" type="curve" smooth="yes"/>
			<point x="1672" y="1151"/>
			<point x="1440" y="1427"/>
			<point x="1059" y="1427" type="curve" smooth="yes"/>
			<point x="676" y="1427"/>
			<point x="320" y="1151"/>
			<point x="227" y="750" type="curve" smooth="yes"/>
			<point x="134" y="347"/>
			<point x="366" y="73"/>
		</contour>
		<contour>
			<point x="1081" y="1520" type="curve" smooth="yes"/>
			<point x="1525" y="1520"/>
			<point x="1776" y="1192"/>
			<point x="1674" y="750" type="curve" smooth="yes"/>
			<point x="1571" y="306"/>
			<point x="1167" y="-20"/>
			<point x="725" y="-20" type="curve" smooth="yes"/>
			<point x="281" y="-20"/>
			<point x="31" y="308"/>
			<point x="133" y="750" type="curve" smooth="yes"/>
			<point x="235" y="1193"/>
			<point x="639" y="1520"/>
		</contour>
		<component base="C" xScale="0.6" yScale="0.6" xOffset="344" yOffset="290"/>
	</outline>
</glyph>
